<svg width="20" height="20" viewBox="0 0 20 20" fill="none" xmlns="http://www.w3.org/2000/svg">
<g clip-path="url(#clip0_77_12648)">
<rect width="20" height="20" rx="10" fill="#FCFCFC"/>
<g clip-path="url(#clip1_77_12648)">
<path d="M-4 0.541016H24V19.2077H-4V0.541016Z" fill="white"/>
<path d="M0.616211 6.42303L3.20481 2.54013L0.616211 6.42303ZM1.58694 7.07018L4.17553 3.18728L1.58694 7.07018ZM2.55766 7.71733L5.14626 3.83443L2.55766 7.71733Z" fill="black"/>
<path d="M0.616211 6.42303L3.20481 2.54013M1.58694 7.07018L4.17553 3.18728M2.55766 7.71733L5.14626 3.83443" stroke="black" stroke-width="0.777778"/>
<path d="M14.8535 15.9138L17.4421 12.0309L14.8535 15.9138ZM15.8242 16.561L18.4128 12.678L15.8242 16.561ZM16.795 17.2081L19.3836 13.3252L16.795 17.2081Z" fill="black"/>
<path d="M14.8535 15.9138L17.4421 12.0309M15.8242 16.561L18.4128 12.678M16.795 17.2081L19.3836 13.3252" stroke="black" stroke-width="0.777778"/>
<path d="M15.501 13.5413L18.7367 15.6984L15.501 13.5413Z" fill="black"/>
<path d="M15.501 13.5413L18.7367 15.6984" stroke="white" stroke-width="0.388889"/>
<path d="M13.8827 12.4629C15.3124 10.3184 14.7329 7.42102 12.5884 5.99138C10.4439 4.56174 7.54656 5.14122 6.11692 7.28569C4.68727 9.43016 5.26676 12.3275 7.41122 13.7572C9.55569 15.1868 12.4531 14.6074 13.8827 12.4629Z" fill="#CD2E3A"/>
<path d="M6.11692 7.28569C5.77365 7.8006 5.64898 8.43077 5.77035 9.0376C5.89171 9.64442 6.24917 10.1782 6.76407 10.5214C7.27898 10.8647 7.90916 10.9894 8.51598 10.868C9.1228 10.7466 9.65655 10.3892 9.99982 9.87429C10.3431 9.35938 10.8768 9.00193 11.4837 8.88056C12.0905 8.7592 12.7207 8.88386 13.2356 9.22713C13.7505 9.5704 14.1079 10.1042 14.2293 10.711C14.3507 11.3178 14.226 11.948 13.8827 12.4629C13.1962 13.4927 12.1287 14.2076 10.915 14.4503C9.70139 14.6931 8.44104 14.4437 7.41122 13.7572C6.38141 13.0707 5.66651 12.0031 5.42378 10.7895C5.18105 9.57586 5.43038 8.3155 6.11692 7.28569Z" fill="#0047A0"/>
<path d="M3.20508 17.2088L0.616481 13.3259L3.20508 17.2088ZM4.1758 16.5617L1.58721 12.6788L4.1758 16.5617ZM5.14653 15.9145L2.55793 12.0316L5.14653 15.9145Z" fill="black"/>
<path d="M3.20508 17.2088L0.616481 13.3259M4.1758 16.5617L1.58721 12.6788M5.14653 15.9145L2.55793 12.0316" stroke="black" stroke-width="0.777778"/>
<path d="M17.4424 7.7168L14.8538 3.83389L17.4424 7.7168ZM18.4131 7.06965L15.8245 3.18674L18.4131 7.06965ZM19.3838 6.4225L16.7952 2.53959L19.3838 6.4225Z" fill="black"/>
<path d="M17.4424 7.7168L14.8538 3.83389M18.4131 7.06965L15.8245 3.18674M19.3838 6.4225L16.7952 2.53959" stroke="black" stroke-width="0.777778"/>
<path d="M2.39648 14.9427L3.36721 14.2956L2.39648 14.9427ZM15.5013 6.20623L16.6338 5.45122L15.5013 6.20623ZM17.6045 4.80407L18.5753 4.15692L17.6045 4.80407Z" fill="black"/>
<path d="M2.39648 14.9427L3.36721 14.2956M15.5013 6.20623L16.6338 5.45122M17.6045 4.80407L18.5753 4.15692" stroke="white" stroke-width="0.388889"/>
</g>
</g>
<defs>
<clipPath id="clip0_77_12648">
<rect width="20" height="20" rx="10" fill="white"/>
</clipPath>
<clipPath id="clip1_77_12648">
<rect width="28" height="18.6667" fill="white" transform="translate(-4 0.541016)"/>
</clipPath>
</defs>
</svg>
