<svg width="20" height="20" viewBox="0 0 20 20" fill="none" xmlns="http://www.w3.org/2000/svg">
<g clip-path="url(#clip0_77_12555)">
<rect width="20" height="20" rx="10" fill="black"/>
<g clip-path="url(#clip1_77_12555)">
<path d="M24.9828 1.66539H-4.99609V21.6513H24.9828V1.66539Z" fill="black"/>
<path d="M9.99326 13.5574C12.3664 13.5574 14.2902 11.6336 14.2902 9.26041C14.2902 6.88726 12.3664 4.96344 9.99326 4.96344C7.62011 4.96344 5.69629 6.88726 5.69629 9.26041C5.69629 11.6336 7.62011 13.5574 9.99326 13.5574Z" fill="#CE1126"/>
<path d="M24.9828 8.32777H-4.99609V14.9897H24.9828V8.32777Z" fill="#CE1126"/>
<path d="M9.9938 2.46624C9.84724 2.46624 9.79395 2.68609 9.79395 2.89927C9.79395 3.43223 9.86057 3.6987 9.9938 4.46483C10.1297 3.6987 10.1937 3.42556 10.1937 2.89927C10.1937 2.67942 10.127 2.46624 9.9938 2.46624Z" fill="#CE1126"/>
<path d="M10.5858 2.49179C10.4398 2.47902 10.3676 2.69338 10.349 2.90575C10.3025 3.43668 10.3457 3.70795 10.4116 4.48278C10.6138 3.73141 10.7013 3.46488 10.7472 2.94059C10.7663 2.72158 10.7185 2.5034 10.5858 2.49179Z" fill="#CE1126"/>
<path d="M11.1734 2.56921C11.029 2.54376 10.9384 2.75101 10.9014 2.96096C10.8088 3.48582 10.8282 3.75982 10.8263 4.53744C11.0932 3.80655 11.2036 3.54867 11.295 3.03037C11.3332 2.81386 11.3046 2.59235 11.1734 2.56921Z" fill="#CE1126"/>
<path d="M11.7526 2.69765C11.6111 2.65971 11.5027 2.85827 11.4475 3.06419C11.3096 3.57899 11.3049 3.85363 11.2353 4.62814C11.5649 3.92329 11.6974 3.67601 11.8336 3.16765C11.8905 2.95529 11.8813 2.73213 11.7526 2.69765Z" fill="#CE1126"/>
<path d="M12.3187 2.87569C12.1809 2.82556 12.0557 3.01392 11.9828 3.21425C11.8005 3.71506 11.7719 3.98826 11.6351 4.75375C12.0248 4.08031 12.1784 3.84552 12.3584 3.35096C12.4336 3.14437 12.4439 2.92126 12.3187 2.87569Z" fill="#CE1126"/>
<path d="M12.8667 3.10243C12.7338 3.04049 12.5926 3.21721 12.5025 3.41042C12.2773 3.89345 12.2251 4.16311 12.022 4.91377C12.469 4.27686 12.6424 4.05634 12.8648 3.57935C12.9577 3.38011 12.9874 3.15874 12.8667 3.10243Z" fill="#CE1126"/>
<path d="M13.3918 3.37601C13.2649 3.30273 13.1088 3.46648 13.0022 3.6511C12.7358 4.11265 12.6602 4.37674 12.3925 5.10685C12.8933 4.51131 13.0853 4.30674 13.3484 3.85096C13.4583 3.66057 13.5072 3.44263 13.3918 3.37601Z" fill="#CE1126"/>
<path d="M13.8922 3.69487C13.7722 3.6108 13.6024 3.76032 13.4801 3.93495C13.1744 4.37152 13.0762 4.62802 12.7459 5.33202C13.2966 4.78239 13.5057 4.59533 13.8076 4.16422C13.9337 3.98413 14.0014 3.77129 13.8922 3.69487Z" fill="#CE1126"/>
<path d="M14.3621 4.05445C14.2498 3.96025 14.0677 4.0944 13.9306 4.25771C13.5881 4.66598 13.4678 4.91293 13.0774 5.58546C13.674 5.08593 13.8985 4.91781 14.2368 4.51464C14.3782 4.34623 14.4642 4.1401 14.3621 4.05445Z" fill="#CE1126"/>
<path d="M14.7995 4.45522C14.6959 4.35158 14.5027 4.46935 14.352 4.62009C13.9751 4.99695 13.8338 5.23249 13.3863 5.86844C14.0241 5.4228 14.2625 5.27488 14.6346 4.90274C14.7901 4.74728 14.8937 4.54943 14.7995 4.45522Z" fill="#CE1126"/>
<path d="M15.1988 4.89305C15.1046 4.78078 14.9019 4.88127 14.7386 5.0183C14.3303 5.36088 14.169 5.5832 13.6678 6.17772C14.342 5.78937 14.5924 5.6628 14.9955 5.3245C15.1639 5.18319 15.2844 4.99512 15.1988 4.89305Z" fill="#CE1126"/>
<path d="M15.5599 5.36314C15.4759 5.24308 15.2652 5.32552 15.0906 5.4478C14.654 5.75349 14.4739 5.96091 13.9228 6.50948C14.6283 6.18138 14.8887 6.0771 15.3199 5.77523C15.5 5.64913 15.6364 5.47228 15.5599 5.36314Z" fill="#CE1126"/>
<path d="M15.8782 5.86293C15.805 5.73601 15.5879 5.79977 15.4033 5.90636C14.9418 6.17284 14.7443 6.36378 14.1474 6.86223C14.8789 6.59686 15.1474 6.51568 15.6032 6.25253C15.7936 6.14261 15.9449 5.97832 15.8782 5.86293Z" fill="#CE1126"/>
<path d="M16.1518 6.389C16.0899 6.25617 15.8681 6.30078 15.6749 6.39088C15.1919 6.61611 14.9785 6.78911 14.3405 7.23365C15.0923 7.03304 15.3669 6.97557 15.8439 6.75314C16.0431 6.66023 16.2082 6.50976 16.1518 6.389Z" fill="#CE1126"/>
<path d="M16.3789 6.93671C16.3288 6.79898 16.104 6.82409 15.9036 6.89701C15.4028 7.07929 15.1752 7.23303 14.5008 7.62027C15.2672 7.48594 15.5458 7.45262 16.0403 7.27262C16.2469 7.19743 16.4245 7.06191 16.3789 6.93671Z" fill="#CE1126"/>
<path d="M16.5566 7.50226C16.5187 7.36069 16.2925 7.36611 16.0866 7.42129C15.5718 7.55923 15.3317 7.69255 14.6261 8.01953C15.4013 7.95252 15.6817 7.9436 16.1901 7.80739C16.4024 7.75049 16.5911 7.63096 16.5566 7.50226Z" fill="#CE1126"/>
<path d="M3.30131 8.08016C3.27586 8.2245 3.48311 8.31516 3.69305 8.35218C4.21791 8.44473 4.49191 8.42539 5.26954 8.42721C4.53865 8.16034 4.28076 8.04992 3.76246 7.95853C3.54596 7.92036 3.32444 7.94895 3.30131 8.08016Z" fill="#CE1126"/>
<path d="M3.42966 7.50166C3.39172 7.64323 3.59028 7.75161 3.7962 7.80679C4.311 7.94473 4.58564 7.94935 5.36015 8.01893C4.6553 7.68937 4.40802 7.5569 3.89966 7.42069C3.6873 7.36379 3.46414 7.37296 3.42966 7.50166Z" fill="#CE1126"/>
<path d="M3.60742 6.93618C3.55729 7.0739 3.74565 7.19918 3.94598 7.27209C4.44679 7.45437 4.71999 7.48291 5.48548 7.61974C4.81204 7.23 4.57724 7.07648 4.08269 6.89648C3.8761 6.82129 3.65299 6.81098 3.60742 6.93618Z" fill="#CE1126"/>
<path d="M3.83446 6.38823C3.77252 6.52106 3.94925 6.66228 4.14246 6.75237C4.62548 6.97761 4.89515 7.02985 5.6458 7.23287C5.00889 6.78592 4.78837 6.61253 4.31139 6.3901C4.11214 6.29719 3.89077 6.26748 3.83446 6.38823Z" fill="#CE1126"/>
<path d="M4.10872 5.86255C4.03544 5.98948 4.19918 6.14556 4.3838 6.25215C4.84536 6.51863 5.10944 6.59417 5.83955 6.86185C5.24402 6.36109 5.03945 6.16913 4.58366 5.90598C4.39327 5.79606 4.17534 5.74717 4.10872 5.86255Z" fill="#CE1126"/>
<path d="M4.42713 5.36284C4.34307 5.48289 4.49259 5.65265 4.66722 5.77493C5.10379 6.08062 5.36029 6.17889 6.06428 6.50918C5.51466 5.95842 5.3276 5.74937 4.89648 5.44749C4.7164 5.3214 4.50356 5.25369 4.42713 5.36284Z" fill="#CE1126"/>
<path d="M4.78765 4.89174C4.69344 5.00401 4.82759 5.18615 4.9909 5.32318C5.39917 5.66576 5.64612 5.78602 6.31866 6.17641C5.81913 5.57984 5.651 5.35528 5.24783 5.01698C5.07942 4.87567 4.87329 4.78967 4.78765 4.89174Z" fill="#CE1126"/>
<path d="M5.1882 4.45461C5.08456 4.55825 5.20233 4.75139 5.35307 4.90213C5.72993 5.27899 5.96547 5.42031 6.60141 5.86783C6.15578 5.23 6.00786 4.99163 5.63572 4.61949C5.48026 4.46403 5.28241 4.3604 5.1882 4.45461Z" fill="#CE1126"/>
<path d="M5.62478 4.05459C5.51251 4.14879 5.61299 4.35146 5.75002 4.51477C6.0926 4.92304 6.31493 5.08435 6.90945 5.5856C6.5211 4.91135 6.39452 4.661 6.05623 4.25784C5.91491 4.08943 5.72685 3.96894 5.62478 4.05459Z" fill="#CE1126"/>
<path d="M6.09536 3.69352C5.9753 3.77758 6.05774 3.98824 6.18002 4.16287C6.48571 4.59944 6.69313 4.77952 7.2417 5.33067C6.91359 4.62514 6.80932 4.36471 6.50745 3.9336C6.38135 3.75351 6.2045 3.61709 6.09536 3.69352Z" fill="#CE1126"/>
<path d="M6.59496 3.37449C6.46803 3.44777 6.5318 3.66481 6.63839 3.84943C6.90487 4.31099 7.0958 4.50845 7.59425 5.10532C7.32889 4.37388 7.2477 4.10536 6.98456 3.64957C6.87463 3.45918 6.71035 3.30787 6.59496 3.37449Z" fill="#CE1126"/>
<path d="M7.12059 3.10044C6.98776 3.16238 7.03236 3.38415 7.12246 3.57736C7.3477 4.06039 7.52069 4.27374 7.96523 4.91178C7.76462 4.16 7.70715 3.88542 7.48473 3.40843C7.39182 3.20919 7.24134 3.04413 7.12059 3.10044Z" fill="#CE1126"/>
<path d="M7.66925 2.87413C7.53153 2.92425 7.55664 3.14907 7.62955 3.3494C7.81183 3.85021 7.96558 4.07783 8.35281 4.75219C8.21849 3.98578 8.18517 3.70724 8.00516 3.21268C7.92997 3.0061 7.79446 2.82856 7.66925 2.87413Z" fill="#CE1126"/>
<path d="M8.23406 2.69584C8.0925 2.73377 8.09792 2.95992 8.15309 3.16584C8.29103 3.68064 8.42435 3.92079 8.75134 4.62633C8.68432 3.85113 8.67541 3.57075 8.53919 3.06238C8.48229 2.85003 8.36276 2.66135 8.23406 2.69584Z" fill="#CE1126"/>
<path d="M8.81401 2.56829C8.66967 2.59374 8.65536 2.8195 8.69238 3.02945C8.78493 3.55431 8.89681 3.80517 9.16106 4.53652C9.16187 3.75843 9.17742 3.47834 9.08603 2.96004C9.04785 2.74353 8.94523 2.54515 8.81401 2.56829Z" fill="#CE1126"/>
<path d="M9.40125 2.49123C9.25524 2.50401 9.22131 2.72766 9.23989 2.94003C9.28634 3.47096 9.37593 3.73062 9.57544 4.48222C9.64405 3.70716 9.68396 3.42949 9.63809 2.90519C9.61893 2.68619 9.53398 2.47962 9.40125 2.49123Z" fill="#CE1126"/>
<path d="M24.9828 7.82803H-4.99609V8.32768H24.9828V7.82803Z" fill="black"/>
<path d="M24.9828 14.9893H-4.99609V21.6513H24.9828V14.9893Z" fill="#339E35"/>
</g>
</g>
<defs>
<clipPath id="clip0_77_12555">
<rect width="20" height="20" rx="10" fill="white"/>
</clipPath>
<clipPath id="clip1_77_12555">
<rect width="29.9789" height="19.9859" fill="white" transform="translate(-4.99609 1.6657)"/>
</clipPath>
</defs>
</svg>
