<svg width="138" height="41" viewBox="0 0 138 41" fill="none" xmlns="http://www.w3.org/2000/svg">
<path d="M133.125 40.6266H5.69153C4.41789 40.6236 3.19774 40.116 2.29718 39.2151C1.3973 38.3142 0.890825 37.0932 0.888794 35.8196V4.79962C0.890825 3.52672 1.3973 2.30655 2.29785 1.40677C3.19841 0.506989 4.41857 0.00107438 5.69153 3.52276e-08H133.125C134.405 -0.000153733 135.634 0.503095 136.546 1.40109C137.458 2.29908 137.98 3.51978 138 4.79962V35.8196C137.981 37.1004 137.459 38.3224 136.547 39.2217C135.635 40.121 134.406 40.6256 133.125 40.6266Z" fill="#292C3E"/>
<path d="M137.019 35.8192C137.019 36.3304 136.918 36.8365 136.722 37.3087C136.527 37.7808 136.24 38.2098 135.878 38.5711C135.516 38.9323 135.087 39.2187 134.615 39.4139C134.143 39.6091 133.636 39.7094 133.125 39.7088H5.69092C4.65833 39.7101 3.66704 39.3011 2.93576 38.5717C2.2038 37.8422 1.79213 36.8522 1.79077 35.8192V4.79762C1.79213 3.76408 2.20381 2.77331 2.93509 2.04295C3.66637 1.31258 4.65765 0.902344 5.69092 0.902344H133.124C133.635 0.902452 134.142 1.00329 134.615 1.1991C135.087 1.39491 135.516 1.68187 135.878 2.04358C136.24 2.40529 136.526 2.83467 136.722 3.30721C136.917 3.77975 137.018 4.28619 137.018 4.79762V35.8192H137.019Z" fill="#292C3E"/>
<path d="M31.4895 20.0937C31.5024 19.1006 31.7658 18.1268 32.256 17.2631C32.7462 16.3993 33.447 15.6737 34.2934 15.1535C33.7558 14.386 33.0468 13.7543 32.2221 13.3086C31.3981 12.8629 30.4806 12.6155 29.5442 12.5859C27.546 12.3755 25.6081 13.7812 24.5877 13.7812C23.549 13.7812 21.9829 12.6062 20.2935 12.6436C19.2013 12.6788 18.1376 12.9963 17.2045 13.5652C16.2721 14.1341 15.5023 14.935 14.9714 15.8897C12.6692 19.8711 14.3864 25.7294 16.5917 28.9503C17.6941 30.5274 18.984 32.289 20.6706 32.2264C22.3208 32.1582 22.9376 31.1742 24.929 31.1742C26.9028 31.1742 27.481 32.2264 29.2022 32.1866C30.9735 32.1582 32.0881 30.6022 33.1525 29.0104C33.9454 27.8868 34.5554 26.6448 34.9597 25.3305C33.9311 24.895 33.0529 24.1661 32.4361 23.2348C31.8186 22.3034 31.4895 21.211 31.4895 20.0937Z" fill="white"/>
<path d="M28.2385 10.4673C29.2047 9.30836 29.6801 7.81858 29.565 6.31445C28.0889 6.46918 26.7252 7.17411 25.7461 8.2889C25.2673 8.83337 24.901 9.4668 24.6674 10.1531C24.4338 10.8393 24.3377 11.5648 24.3851 12.2882C25.1231 12.2963 25.8537 12.1366 26.5213 11.8212C27.189 11.5058 27.776 11.0428 28.2385 10.4673Z" fill="white"/>
<path d="M55.3757 31.9976H53.0688L51.8053 28.0276H47.4135L46.2103 31.9976H43.9644L48.3155 18.4844H51.0029L55.3757 31.9976ZM51.4254 26.3619L50.2825 22.8322C50.1619 22.4715 49.9344 21.6226 49.6013 20.2858H49.5627C49.4293 20.8605 49.2153 21.7093 48.9208 22.8322L47.7988 26.3619H51.4254Z" fill="white"/>
<path d="M66.565 27.0038C66.6436 28.4383 66.1622 29.8472 65.221 30.9332C64.8438 31.348 64.3821 31.6772 63.8668 31.8987C63.3515 32.1201 62.7942 32.2286 62.2336 32.217C61.6899 32.2611 61.1448 32.1558 60.6573 31.9123C60.1691 31.6689 59.7574 31.2965 59.4662 30.8357H59.4256V35.9684H57.2602V25.4591C57.2602 24.4169 57.2331 23.3474 57.179 22.2505H59.0837L59.2042 23.7943H59.2448C59.5732 23.2919 60.014 22.8732 60.5327 22.5715C61.0513 22.2698 61.6337 22.0933 62.2322 22.0562C62.8315 22.0191 63.4307 22.1224 63.9826 22.3579C64.5344 22.5933 65.0239 22.9544 65.4112 23.4124C66.2177 24.4306 66.6273 25.7065 66.565 27.0038ZM64.359 27.085C64.3929 26.2555 64.1688 25.4359 63.7171 24.7392C63.5086 24.4343 63.2262 24.1864 62.8971 24.0183C62.5681 23.8501 62.2018 23.7669 61.8321 23.7764C61.2998 23.7762 60.7852 23.9644 60.3783 24.3078C59.945 24.6611 59.645 25.1514 59.5272 25.698C59.4676 25.9135 59.4337 26.1352 59.4263 26.3586V27.9837C59.4073 28.643 59.6396 29.2849 60.0763 29.7794C60.2869 30.0187 60.5482 30.2085 60.8414 30.3349C61.1346 30.4613 61.4515 30.5214 61.7704 30.5107C62.1415 30.5256 62.5105 30.4471 62.843 30.2825C63.1761 30.1178 63.4618 29.8721 63.6751 29.5681C64.162 28.8324 64.4017 27.9605 64.359 27.0793V27.085Z" fill="white"/>
<path d="M77.7739 27.0038C77.8524 28.4384 77.3703 29.8476 76.4291 30.9332C76.052 31.3481 75.5902 31.6774 75.0749 31.8988C74.5596 32.1203 74.003 32.2288 73.4424 32.217C72.8993 32.2605 72.3549 32.1548 71.8681 31.9113C71.3813 31.6679 70.9703 31.2959 70.6791 30.8357H70.6385V35.9684H68.469V25.4591C68.469 24.4169 68.4419 23.3474 68.3884 22.2505H70.2911L70.4123 23.7943H70.4536C70.782 23.2919 71.2228 22.8732 71.7415 22.5715C72.2602 22.2697 72.8425 22.0933 73.441 22.0562C74.0403 22.0191 74.6395 22.1224 75.1913 22.3579C75.7432 22.5933 76.2328 22.9544 76.6207 23.4124C77.4251 24.4313 77.8348 25.7068 77.7739 27.0038ZM75.5678 27.085C75.601 26.2554 75.3769 25.4358 74.9246 24.7392C74.716 24.4342 74.4344 24.1863 74.1053 24.0181C73.7762 23.8499 73.4099 23.7668 73.0408 23.7764C72.5086 23.7763 71.9934 23.9645 71.5864 24.3078C71.1524 24.661 70.8524 25.1513 70.7346 25.698C70.6757 25.9136 70.6419 26.1352 70.6337 26.3586V27.9837C70.6161 28.6428 70.8484 29.2843 71.2837 29.7794C71.495 30.0187 71.7571 30.2083 72.0502 30.3347C72.3434 30.4612 72.6603 30.5212 72.9799 30.5107C73.351 30.5256 73.7193 30.4471 74.0525 30.2825C74.3849 30.1178 74.6713 29.8721 74.8846 29.5681C75.3708 28.8323 75.6105 27.9605 75.5678 27.0793V27.085Z" fill="white"/>
<path d="M90.3071 28.2085C90.3247 28.7358 90.2266 29.2605 90.0187 29.7456C89.8115 30.2307 89.5 30.6644 89.1066 31.0158C88.0713 31.858 86.757 32.2802 85.4252 32.1989C84.201 32.2569 82.9862 31.9649 81.9225 31.3571L82.4242 29.5525C83.3674 30.1256 84.4508 30.4247 85.5545 30.4162C86.2343 30.4569 86.9074 30.2617 87.4606 29.8637C87.682 29.6879 87.8587 29.4626 87.9765 29.2061C88.0943 28.9495 88.1505 28.6688 88.1404 28.3865C88.1458 28.1301 88.0991 27.8754 88.0023 27.6379C87.9061 27.4003 87.7619 27.185 87.5791 27.0052C87.036 26.532 86.4016 26.1762 85.7143 25.9603C83.3478 25.0779 82.1649 23.7859 82.1663 22.0845C82.1527 21.5648 82.2583 21.0489 82.4736 20.5758C82.689 20.1026 83.0092 19.6847 83.4101 19.3536C84.3459 18.6042 85.524 18.2236 86.7212 18.2835C87.7802 18.2465 88.8331 18.4668 89.7885 18.9254L89.2508 20.6918C88.4546 20.2689 87.5648 20.055 86.6636 20.0702C86.0204 20.0315 85.3852 20.2315 84.8801 20.6317C84.7068 20.7847 84.5693 20.9732 84.4759 21.1844C84.3824 21.3956 84.3357 21.6245 84.3391 21.8554C84.3337 22.1088 84.3872 22.36 84.4948 22.5896C84.6025 22.8191 84.7616 23.0207 84.9593 23.179C85.5552 23.6292 86.2194 23.9814 86.9257 24.2223C87.8966 24.5645 88.7755 25.1268 89.4926 25.8652C90.0464 26.5175 90.3369 27.3532 90.3071 28.2085Z" fill="white"/>
<path d="M97.4668 23.8758H95.08V28.608C95.08 29.8116 95.5011 30.4132 96.3435 30.4126C96.6671 30.4196 96.9901 30.3857 97.305 30.3119L97.3652 31.9564C96.8229 32.1351 96.2527 32.2176 95.6819 32.2002C95.3109 32.2206 94.9398 32.1613 94.5938 32.0264C94.2478 31.8914 93.935 31.6838 93.6757 31.4177C93.1218 30.6595 92.8652 29.7247 92.9532 28.79V23.8709H91.5312V22.2459H92.9532V20.4583L95.0807 19.8164V22.2459H97.4675V23.8709L97.4668 23.8758Z" fill="white"/>
<path d="M108.238 27.0447C108.291 28.3926 107.833 29.7105 106.955 30.7345C106.503 31.2276 105.949 31.6159 105.332 31.8723C104.713 32.1286 104.048 32.2466 103.379 32.2181C102.74 32.2464 102.102 32.1336 101.512 31.8876C100.922 31.6418 100.392 31.2688 99.9621 30.7954C99.0968 29.804 98.6417 28.5206 98.6878 27.2056C98.6329 25.8465 99.1028 24.5182 100.001 23.4964C100.45 23.0132 101 22.6336 101.611 22.3841C102.222 22.1346 102.88 22.0212 103.539 22.0517C104.183 22.0254 104.825 22.1391 105.42 22.385C106.016 22.6309 106.551 23.0032 106.988 23.4761C107.845 24.4629 108.292 25.7394 108.238 27.0447ZM105.992 27.1146C106.015 26.305 105.814 25.5046 105.411 24.8022C105.229 24.4451 104.95 24.1465 104.606 23.9403C104.262 23.7342 103.867 23.6288 103.466 23.6362C103.059 23.6251 102.657 23.7288 102.306 23.9356C101.954 24.1424 101.668 24.4438 101.481 24.8054C101.073 25.5223 100.872 26.3378 100.9 27.1618C100.876 27.9712 101.077 28.7714 101.481 29.4734C101.67 29.8276 101.954 30.1234 102.299 30.3288C102.645 30.5342 103.04 30.6417 103.442 30.6396C103.844 30.6375 104.238 30.526 104.581 30.3169C104.925 30.1079 105.205 29.8092 105.391 29.4531C105.806 28.7448 106.013 27.9349 105.992 27.1146Z" fill="white"/>
<path d="M115.271 24.1545C115.045 24.1137 114.817 24.0935 114.588 24.0943C114.245 24.0786 113.904 24.1495 113.596 24.3004C113.287 24.4514 113.022 24.6775 112.824 24.9581C112.445 25.5267 112.256 26.2004 112.282 26.8829V31.997H110.118L110.138 25.3204C110.138 24.197 110.111 23.1743 110.057 22.2523H111.943L112.024 24.1171H112.084C112.289 23.5089 112.665 22.9728 113.167 22.5733C113.619 22.235 114.168 22.0518 114.732 22.0508C114.913 22.0499 115.094 22.0633 115.274 22.0906V24.1545H115.271Z" fill="white"/>
<path d="M124.96 26.6645C124.964 26.9938 124.937 27.3229 124.878 27.6468H118.388C118.373 28.0613 118.451 28.4739 118.614 28.8552C118.776 29.2366 119.021 29.5775 119.331 29.8537C119.935 30.3271 120.688 30.5689 121.456 30.5354C122.353 30.5473 123.244 30.3911 124.084 30.0747L124.423 31.5779C123.387 32.0015 122.275 32.2064 121.156 32.18C120.503 32.2161 119.849 32.1162 119.236 31.8867C118.623 31.6572 118.064 31.303 117.595 30.8466C117.153 30.3661 116.812 29.8026 116.59 29.1888C116.368 28.575 116.27 27.9233 116.302 27.2715C116.255 25.9441 116.681 24.6431 117.507 23.6021C117.912 23.0923 118.432 22.6852 119.023 22.4136C119.616 22.142 120.263 22.0136 120.914 22.0388C121.536 22.0044 122.155 22.1301 122.714 22.4038C123.272 22.6775 123.751 23.0902 124.104 23.6021C124.698 24.5105 124.997 25.58 124.96 26.6645ZM122.895 26.103C122.924 25.5186 122.777 24.939 122.474 24.4382C122.295 24.1454 122.041 23.9066 121.737 23.7476C121.433 23.5886 121.091 23.5153 120.749 23.5354C120.411 23.5296 120.077 23.6069 119.776 23.7609C119.476 23.9148 119.218 24.1404 119.025 24.4179C118.657 24.9076 118.436 25.4917 118.388 26.1022H122.899L122.895 26.103Z" fill="white"/>
<path d="M50.7077 10.1666C50.7443 10.6686 50.6664 11.1723 50.4809 11.6399C50.2947 12.1076 50.0049 12.527 49.6338 12.8666C48.8206 13.472 47.8185 13.7686 46.8069 13.7035C46.2869 13.7074 45.7669 13.6802 45.2502 13.6222V7.09193C45.8563 6.997 46.469 6.95082 47.0832 6.9538C48.0223 6.88542 48.9547 7.1545 49.7131 7.71271C50.0516 8.02147 50.3171 8.40214 50.489 8.82676C50.661 9.25144 50.7362 9.70923 50.7077 10.1666ZM49.5858 10.1958C49.6081 9.87187 49.5648 9.54673 49.4592 9.23973C49.3535 8.93266 49.1876 8.64996 48.9703 8.40823C48.7279 8.18885 48.4435 8.02079 48.1347 7.91415C47.8253 7.80744 47.4976 7.76437 47.1719 7.78746C46.8841 7.78313 46.597 7.80622 46.3147 7.85653V12.8219C46.553 12.847 46.7934 12.8568 47.0338 12.8512C47.3777 12.873 47.7224 12.8241 48.0467 12.7072C48.371 12.5904 48.6683 12.4082 48.9195 12.1719C49.1545 11.9025 49.3346 11.5892 49.449 11.2501C49.5628 10.911 49.6095 10.5528 49.5851 10.1958H49.5858Z" fill="white"/>
<path d="M56.6568 11.2095C56.6825 11.8716 56.4577 12.5192 56.0264 13.0223C55.805 13.2647 55.5328 13.4557 55.2301 13.5821C54.9268 13.7084 54.5997 13.7669 54.272 13.7535C53.9578 13.7675 53.6444 13.7121 53.3539 13.5912C53.0641 13.4702 52.8041 13.2868 52.5921 13.0539C52.1683 12.5666 51.9448 11.9364 51.9678 11.2907C51.9407 10.6237 52.1723 9.97208 52.6124 9.47068C52.8339 9.23362 53.104 9.04748 53.404 8.92513C53.7046 8.80278 54.0276 8.74719 54.3513 8.76215C54.6675 8.74949 54.983 8.80542 55.2755 8.92601C55.568 9.0466 55.8314 9.22908 56.0467 9.46093C56.4638 9.9456 56.6819 10.5704 56.6568 11.2095ZM55.5524 11.2444C55.5639 10.8462 55.4651 10.4526 55.2674 10.1069C55.1773 9.9324 55.0399 9.78662 54.8713 9.68607C54.7027 9.58552 54.509 9.53426 54.3127 9.53812C54.1129 9.53236 53.9159 9.5826 53.7439 9.68309C53.5712 9.78364 53.4304 9.93044 53.3376 10.1069C53.1379 10.4586 53.039 10.8588 53.0526 11.2631C53.041 11.6613 53.1399 12.0549 53.3376 12.4007C53.4304 12.5752 53.5699 12.7207 53.7405 12.8211C53.9111 12.9214 54.1061 12.9728 54.3038 12.9694C54.5016 12.9707 54.6952 12.9168 54.8638 12.8137C55.0324 12.7106 55.1692 12.5625 55.2586 12.386C55.4597 12.04 55.5606 11.6446 55.5491 11.2444H55.5524Z" fill="white"/>
<path d="M64.6371 8.85547L63.1387 13.6429H62.1636L61.5427 11.5636C61.3884 11.0559 61.2597 10.5407 61.1581 10.0198H61.1385C61.0464 10.5428 60.9177 11.0587 60.7532 11.5636L60.0944 13.6429H59.1085L57.6995 8.85547H58.7937L59.3347 11.1306C59.4653 11.669 59.5737 12.1812 59.6597 12.6671H59.6793C59.7579 12.2667 59.8899 11.7578 60.0741 11.1403L60.7532 8.85547H61.6199L62.27 11.0916C62.4277 11.637 62.5557 12.1625 62.6539 12.6679H62.683C62.7629 12.137 62.8719 11.6108 63.008 11.0916L63.589 8.85547H64.6337H64.6371Z" fill="white"/>
<path d="M70.157 13.6428H69.0926V10.9005C69.0926 10.0555 68.771 9.63297 68.1278 9.63297C67.9815 9.62871 67.8366 9.65789 67.7032 9.71829C67.5698 9.77868 67.452 9.86874 67.3592 9.98155C67.1642 10.21 67.0593 10.5018 67.0633 10.8022V13.642H65.9989V10.2229C65.9989 9.80252 65.9861 9.34588 65.9603 8.85294H66.8954L66.9449 9.60128H66.974C67.104 9.36348 67.2942 9.16414 67.5258 9.02357C67.8156 8.84441 68.1501 8.75117 68.49 8.75462C68.6959 8.74833 68.9004 8.78347 69.0913 8.85802C69.2829 8.93257 69.4576 9.04497 69.6045 9.18852C69.8002 9.40099 69.9499 9.65159 70.0453 9.92453C70.1401 10.1975 70.1781 10.4871 70.1557 10.7754L70.157 13.6428Z" fill="white"/>
<path d="M73.0909 13.644H72.0272V6.65625H73.0909V13.644Z" fill="white"/>
<path d="M79.3556 11.2095C79.382 11.8716 79.1565 12.5191 78.7252 13.0222C78.5038 13.2646 78.2323 13.4556 77.9289 13.5819C77.6263 13.7083 77.2992 13.7668 76.9708 13.7535C76.6566 13.7677 76.3431 13.7123 76.0533 13.5913C75.7628 13.4705 75.5028 13.2869 75.2916 13.0539C74.867 12.5666 74.6442 11.9364 74.6666 11.2907C74.6402 10.6237 74.8711 9.97206 75.3119 9.47066C75.5326 9.23367 75.8028 9.04753 76.1027 8.92524C76.4027 8.80289 76.7264 8.74723 77.05 8.76213C77.3662 8.7492 77.6818 8.80499 77.975 8.92565C78.2675 9.04624 78.5308 9.22886 78.7462 9.46091C79.1633 9.94572 79.3813 10.5705 79.3556 11.2095ZM78.2505 11.2444C78.262 10.8462 78.1632 10.4526 77.9655 10.1069C77.8754 9.93238 77.7386 9.78653 77.57 9.68598C77.4014 9.58549 77.2078 9.53424 77.0114 9.5381C76.8124 9.53207 76.6146 9.58218 76.4427 9.68273C76.27 9.78328 76.1298 9.93021 76.0364 10.1069C75.8366 10.4586 75.7378 10.8587 75.7513 11.2631C75.7398 11.6613 75.8387 12.0549 76.0364 12.4006C76.1298 12.5752 76.2693 12.7207 76.4393 12.8211C76.6099 12.9214 76.8049 12.9727 77.0026 12.9694C77.2003 12.9707 77.394 12.9167 77.5626 12.8137C77.7312 12.7106 77.868 12.5625 77.9567 12.386C78.1591 12.0405 78.2614 11.645 78.2505 11.2444Z" fill="white"/>
<path d="M84.5118 13.6426H83.5537L83.4724 13.0909H83.4433C83.2822 13.3076 83.0709 13.4813 82.8265 13.5965C82.5827 13.7118 82.3139 13.765 82.0444 13.7515C81.842 13.7599 81.6402 13.7256 81.4519 13.6509C81.2637 13.5761 81.0931 13.4626 80.9516 13.3176C80.8283 13.1878 80.7315 13.0348 80.6672 12.8675C80.6028 12.7002 80.5724 12.5217 80.5771 12.3426C80.567 12.074 80.6293 11.8076 80.7579 11.5717C80.8866 11.3358 81.0768 11.1392 81.3084 11.0027C81.9402 10.6602 82.6558 10.5033 83.3729 10.5501V10.4608C83.3729 9.83024 83.0418 9.51498 82.3789 9.51498C81.9368 9.50658 81.5021 9.62988 81.1303 9.86924L80.9143 9.17046C81.414 8.8808 81.9848 8.73772 82.5617 8.7577C83.813 8.7577 84.4393 9.41774 84.4407 10.7378V12.501C84.4353 12.8828 84.459 13.2645 84.5118 13.6426ZM83.4068 11.9973V11.2579C82.2327 11.2373 81.6456 11.559 81.6449 12.2231C81.6368 12.3259 81.651 12.4291 81.6862 12.5259C81.7214 12.6228 81.777 12.711 81.8487 12.7846C81.9916 12.9113 82.1778 12.9782 82.3687 12.9715C82.6037 12.9706 82.8326 12.8927 83.0188 12.7497C83.1393 12.6648 83.2375 12.5519 83.3045 12.4207C83.3722 12.2894 83.4061 12.1439 83.4047 11.9964L83.4068 11.9973Z" fill="white"/>
<path d="M90.557 13.6427H89.6124L89.563 12.874H89.5332C89.3924 13.1562 89.171 13.3903 88.8974 13.5465C88.6232 13.7027 88.3097 13.7741 87.9948 13.7516C87.7193 13.756 87.4464 13.697 87.1972 13.5792C86.9473 13.4614 86.7286 13.288 86.5566 13.0723C86.1612 12.5723 85.9588 11.9462 85.9879 11.3091C85.956 10.6268 86.1775 9.95685 86.6088 9.42728C86.7909 9.21379 87.0178 9.04302 87.273 8.92717C87.5283 8.81132 87.8066 8.75315 88.0869 8.75694C88.3496 8.73067 88.6144 8.77739 88.8527 8.8921C89.0904 9.0068 89.2922 9.18501 89.4357 9.40697H89.456V6.6582H90.5211V12.3532C90.5198 12.8191 90.532 13.2489 90.557 13.6427ZM89.4533 11.6236V10.8248C89.456 10.7123 89.4459 10.5998 89.4242 10.4893C89.3673 10.2389 89.2326 10.013 89.0389 9.84411C88.8426 9.67131 88.5887 9.57828 88.3273 9.58329C88.1438 9.57726 87.9623 9.61741 87.7985 9.70002C87.6353 9.7827 87.4951 9.90519 87.3915 10.0562C87.1518 10.4137 87.0327 10.8379 87.0503 11.2677C87.0306 11.6771 87.1444 12.0818 87.3753 12.4206C87.4789 12.5705 87.6177 12.6922 87.7802 12.7746C87.9427 12.857 88.1235 12.8977 88.3056 12.8927C88.4668 12.8979 88.6266 12.8648 88.7728 12.7964C88.9191 12.7279 89.0471 12.6259 89.1466 12.4986C89.3518 12.2541 89.4608 11.9429 89.4533 11.6236Z" fill="white"/>
<path d="M99.6588 11.2095C99.6845 11.8717 99.459 12.5192 99.0277 13.0223C98.8063 13.2648 98.5348 13.456 98.2321 13.5822C97.9287 13.7086 97.6017 13.7671 97.274 13.7535C96.9598 13.7674 96.6463 13.7118 96.3558 13.5909C96.066 13.47 95.8053 13.2867 95.5941 13.054C95.1702 12.5667 94.9468 11.9365 94.9691 11.2908C94.9434 10.6235 95.1749 9.97183 95.6164 9.4707C95.8371 9.23357 96.1073 9.04744 96.408 8.92508C96.7086 8.80273 97.0316 8.74714 97.3559 8.76217C97.6721 8.74924 97.987 8.80496 98.2795 8.92562C98.572 9.04628 98.8347 9.2289 99.05 9.46095C99.4665 9.94589 99.6838 10.5707 99.6588 11.2095ZM98.5557 11.2445C98.5673 10.8463 98.4684 10.4526 98.2707 10.1069C98.18 9.93269 98.0425 9.78711 97.8739 9.68663C97.7053 9.58614 97.5116 9.53475 97.3153 9.53814C97.1155 9.53265 96.9185 9.58303 96.7465 9.68351C96.5745 9.78406 96.4337 9.93066 96.3402 10.1069C96.1405 10.4587 96.0416 10.8588 96.0552 11.2631C96.0437 11.6613 96.1418 12.055 96.3402 12.4007C96.4337 12.5746 96.5732 12.7197 96.7424 12.8206C96.9124 12.9214 97.1067 12.9741 97.3038 12.973C97.5015 12.9719 97.6951 12.9171 97.8637 12.8144C98.0323 12.7117 98.1698 12.5651 98.2619 12.3901C98.465 12.0432 98.5672 11.6465 98.5578 11.2445H98.5557Z" fill="white"/>
<path d="M105.382 13.6428H104.319V10.9005C104.319 10.0555 103.997 9.63294 103.353 9.63294C103.207 9.62861 103.062 9.65772 102.928 9.71812C102.795 9.77859 102.678 9.86864 102.585 9.98152C102.389 10.2098 102.284 10.5017 102.289 10.8022V13.642H101.225V10.2228C101.225 9.80249 101.213 9.34585 101.188 8.85291H102.119L102.169 9.60125H102.201C102.331 9.36393 102.521 9.16479 102.752 9.02354C103.042 8.84431 103.377 8.75107 103.719 8.7546C103.924 8.74843 104.128 8.78364 104.319 8.85819C104.51 8.93274 104.685 9.04508 104.832 9.18849C105.027 9.4009 105.178 9.65143 105.273 9.92451C105.367 10.1975 105.405 10.4872 105.384 10.7754L105.382 13.6428Z" fill="white"/>
<path d="M112.546 9.65395H111.374V11.9794C111.374 12.5709 111.582 12.8659 111.994 12.8659C112.154 12.8696 112.314 12.853 112.469 12.8163L112.497 13.624C112.23 13.7117 111.95 13.7519 111.669 13.7426C111.488 13.7528 111.306 13.7236 111.136 13.6574C110.966 13.5911 110.813 13.489 110.685 13.3583C110.413 12.9861 110.286 12.5265 110.331 12.0672V9.65395H109.631V8.85686H110.331V7.97932L111.374 7.66406V8.85523H112.546V9.65314V9.65395Z" fill="white"/>
<path d="M118.182 13.6427H117.12V10.9191C117.12 10.0611 116.799 9.63177 116.156 9.63123C115.928 9.6231 115.703 9.69244 115.519 9.828C115.334 9.96349 115.201 10.1573 115.141 10.3779C115.106 10.5025 115.089 10.6314 115.091 10.7606V13.6403H114.024V6.6582H115.089V9.54347H115.109C115.256 9.29538 115.467 9.09137 115.72 8.9529C115.973 8.81436 116.259 8.74638 116.547 8.75613C116.75 8.74983 116.951 8.78511 117.14 8.85973C117.328 8.93435 117.499 9.04675 117.643 9.19002C117.835 9.40805 117.983 9.66237 118.075 9.93816C118.168 10.2139 118.205 10.5054 118.184 10.7956L118.182 13.6427Z" fill="white"/>
<path d="M123.994 11.0231C123.996 11.1848 123.983 11.3465 123.954 11.5057H120.762C120.755 11.7092 120.793 11.9117 120.873 12.0989C120.953 12.2861 121.072 12.4536 121.224 12.5896C121.521 12.8221 121.892 12.9408 122.269 12.9244C122.71 12.9302 123.148 12.8533 123.56 12.6977L123.727 13.4371C123.218 13.6449 122.67 13.7456 122.121 13.7329C121.8 13.7507 121.479 13.7016 121.178 13.5889C120.877 13.4762 120.603 13.3022 120.372 13.078C120.155 12.8418 119.987 12.5647 119.878 12.2627C119.769 11.9608 119.722 11.6402 119.738 11.3197C119.714 10.6674 119.924 10.028 120.33 9.51665C120.529 9.26612 120.784 9.06604 121.074 8.93265C121.366 8.79919 121.684 8.73622 122.003 8.74881C122.308 8.73195 122.612 8.79377 122.886 8.92818C123.16 9.06265 123.395 9.26531 123.568 9.51665C123.864 9.96192 124.013 10.4888 123.994 11.0231ZM122.974 10.7476C122.989 10.4607 122.917 10.1759 122.768 9.93023C122.68 9.78641 122.555 9.66921 122.406 9.59107C122.257 9.51293 122.089 9.47677 121.92 9.48659C121.754 9.48388 121.59 9.522 121.443 9.5977C121.295 9.6734 121.169 9.78425 121.074 9.92048C120.893 10.1615 120.783 10.4484 120.758 10.7485H122.974V10.7476Z" fill="white"/>
</svg>
