<svg width="1440" height="1803" viewBox="0 0 1440 1803" fill="none" xmlns="http://www.w3.org/2000/svg">
<g opacity="0.2">
<path d="M663.574 -531.574L-467.797 599.797" stroke="white"/>
<path d="M875.706 -319.441L-255.665 811.929" stroke="white"/>
<path d="M946.416 -248.732L-184.955 882.638" stroke="white"/>
<path d="M734.284 -460.863L-397.087 670.508" stroke="white"/>
<path d="M911.061 -284.086L-220.31 847.285" stroke="white"/>
<path d="M698.929 -496.219L-432.442 635.152" stroke="white"/>
<path d="M981.772 -213.377L-149.599 917.994" stroke="white"/>
<path d="M769.64 -425.508L-361.731 705.863" stroke="white"/>
<path d="M1441.39 246.244L310.02 1377.61" stroke="white"/>
<path d="M1512.1 316.953L380.731 1448.32" stroke="white"/>
<path d="M1476.75 281.598L345.376 1412.97" stroke="white"/>
<path d="M1547.46 352.309L416.086 1483.68" stroke="white"/>
<path d="M1724.23 529.086L592.863 1660.46" stroke="white"/>
<path d="M1158.55 -36.5996L27.1775 1094.77" stroke="white"/>
<path d="M1229.26 34.1113L97.8882 1165.48" stroke="white"/>
<path d="M1193.9 -1.24414L62.5329 1130.13" stroke="white"/>
<path d="M1264.61 69.4668L133.244 1200.84" stroke="white"/>
<path d="M875.706 -319.441L-255.665 811.929" stroke="white"/>
<path d="M663.574 -531.574L-467.797 599.797" stroke="white"/>
<path d="M946.416 -248.732L-184.955 882.638" stroke="white"/>
<path d="M734.284 -460.863L-397.087 670.508" stroke="white"/>
<path d="M911.061 -284.086L-220.31 847.285" stroke="white"/>
<path d="M698.929 -496.219L-432.442 635.152" stroke="white"/>
<path d="M981.772 -213.377L-149.599 917.994" stroke="white"/>
<path d="M769.64 -425.508L-361.731 705.863" stroke="white"/>
<path d="M1441.39 246.244L310.02 1377.61" stroke="white"/>
<path d="M1512.1 316.953L380.731 1448.32" stroke="white"/>
<path d="M1476.75 281.598L345.376 1412.97" stroke="white"/>
<path d="M1547.46 352.309L416.086 1483.68" stroke="white"/>
<path d="M1724.23 529.086L592.863 1660.46" stroke="white"/>
<path d="M1158.55 -36.5996L27.1775 1094.77" stroke="white"/>
<path d="M1229.26 34.1113L97.8882 1165.48" stroke="white"/>
<path d="M1193.9 -1.24414L62.5329 1130.13" stroke="white"/>
<path d="M1264.61 69.4668L133.244 1200.84" stroke="white"/>
<path d="M1017.13 -178.021L-114.244 953.349" stroke="white"/>
<path d="M804.995 -390.152L-326.376 741.218" stroke="white"/>
<path d="M1087.84 -107.311L-43.5332 1024.06" stroke="white"/>
<path d="M1052.48 -142.666L-78.8885 988.705" stroke="white"/>
<path d="M840.35 -354.797L-291.021 776.574" stroke="white"/>
<path d="M1123.19 -71.9551L-8.17784 1059.42" stroke="white"/>
<path d="M1582.81 387.664L451.442 1519.03" stroke="white"/>
<path d="M1759.59 564.441L628.218 1695.81" stroke="white"/>
<path d="M1299.97 104.822L168.599 1236.19" stroke="white"/>
<path d="M1370.68 175.533L239.31 1306.9" stroke="white"/>
<path d="M1335.33 140.178L203.954 1271.55" stroke="white"/>
<path d="M1406.04 210.889L274.665 1342.26" stroke="white"/>
<path d="M1653.52 458.375L522.152 1589.75" stroke="white"/>
<path d="M1830.3 635.152L698.929 1766.52" stroke="white"/>
<path d="M1618.17 423.02L486.797 1554.39" stroke="white"/>
<path d="M1794.94 599.797L663.574 1731.17" stroke="white"/>
<path d="M1688.88 493.73L557.508 1625.1" stroke="white"/>
<path d="M1865.66 670.508L734.284 1801.88" stroke="white"/>
<path d="M1695.95 769.504L564.579 -361.867" stroke="white"/>
<path d="M1872.73 592.727L741.355 -538.644" stroke="white"/>
<path d="M1625.24 840.215L493.868 -291.156" stroke="white"/>
<path d="M1802.02 663.438L670.645 -467.933" stroke="white"/>
<path d="M1660.59 804.859L529.223 -326.511" stroke="white"/>
<path d="M1837.37 628.082L706 -503.289" stroke="white"/>
<path d="M1589.88 875.568L458.513 -255.802" stroke="white"/>
<path d="M1766.66 698.793L635.289 -432.578" stroke="white"/>
<path d="M1130.26 1335.19L-1.10679 203.819" stroke="white"/>
<path d="M1059.55 1405.9L-71.8174 274.528" stroke="white"/>
<path d="M1094.91 1370.54L-36.4621 239.174" stroke="white"/>
<path d="M1024.2 1441.25L-107.173 309.883" stroke="white"/>
<path d="M847.421 1618.03L-283.949 486.66" stroke="white"/>
<path d="M1413.11 1052.35L281.736 -79.0251" stroke="white"/>
<path d="M1342.4 1123.06L211.025 -8.31419" stroke="white"/>
<path d="M1377.75 1087.7L246.381 -43.6697" stroke="white"/>
<path d="M1307.04 1158.41L175.67 27.0413" stroke="white"/>
<path d="M1695.95 769.504L564.579 -361.867" stroke="white"/>
<path d="M1872.73 592.727L741.355 -538.644" stroke="white"/>
<path d="M1625.24 840.215L493.868 -291.156" stroke="white"/>
<path d="M1802.02 663.438L670.645 -467.933" stroke="white"/>
<path d="M1660.59 804.859L529.223 -326.511" stroke="white"/>
<path d="M1837.37 628.082L706 -503.289" stroke="white"/>
<path d="M1589.88 875.568L458.513 -255.802" stroke="white"/>
<path d="M1766.66 698.793L635.289 -432.578" stroke="white"/>
<path d="M1130.26 1335.19L-1.10679 203.819" stroke="white"/>
<path d="M1059.55 1405.9L-71.8174 274.528" stroke="white"/>
<path d="M1094.91 1370.54L-36.4621 239.174" stroke="white"/>
<path d="M1024.2 1441.25L-107.173 309.883" stroke="white"/>
<path d="M847.421 1618.03L-283.949 486.66" stroke="white"/>
<path d="M1413.11 1052.35L281.736 -79.0251" stroke="white"/>
<path d="M1342.4 1123.06L211.025 -8.31419" stroke="white"/>
<path d="M1377.75 1087.7L246.381 -43.6697" stroke="white"/>
<path d="M1307.04 1158.41L175.67 27.0413" stroke="white"/>
<path d="M1554.53 910.924L423.157 -220.447" stroke="white"/>
<path d="M1731.3 734.148L599.934 -397.222" stroke="white"/>
<path d="M1483.82 981.635L352.447 -149.736" stroke="white"/>
<path d="M1519.17 946.279L387.802 -185.092" stroke="white"/>
<path d="M1448.46 1016.99L317.091 -114.381" stroke="white"/>
<path d="M988.843 1476.61L-142.528 345.239" stroke="white"/>
<path d="M812.066 1653.39L-319.305 522.016" stroke="white"/>
<path d="M1271.69 1193.77L140.315 62.3967" stroke="white"/>
<path d="M1200.97 1264.48L69.6039 133.108" stroke="white"/>
<path d="M1236.33 1229.12L104.959 97.7522" stroke="white"/>
<path d="M1165.62 1299.83L34.2486 168.463" stroke="white"/>
<path d="M918.132 1547.32L-213.239 415.949" stroke="white"/>
<path d="M741.355 1724.1L-390.015 592.727" stroke="white"/>
<path d="M953.487 1511.96L-177.883 380.594" stroke="white"/>
<path d="M776.711 1688.74L-354.66 557.371" stroke="white"/>
<path d="M882.777 1582.68L-248.594 451.305" stroke="white"/>
<path d="M706 1759.45L-425.371 628.082" stroke="white"/>
</g>
</svg>
