<?xml version="1.0" encoding="UTF-8"?>
<svg width="143px" height="364px" viewBox="0 0 143 364" version="1.1" xmlns="http://www.w3.org/2000/svg" xmlns:xlink="http://www.w3.org/1999/xlink">
    <!-- Generator: Sketch 52.6 (67491) - http://www.bohemiancoding.com/sketch -->
    <title>Group 3</title>
    <desc>Created with Sketch.</desc>
    <g id="Page-1" stroke="none" stroke-width="1" fill="none" fill-rule="evenodd">
        <g id="1" transform="translate(-510.000000, -130.000000)">
            <g id="Group-3" transform="translate(510.000000, 106.000000)">
                <g id="Group-2">
                    <path d="M0,155.627193 L0,164.757781 C2.7496354e-15,187.210258 11.2132578,208.179417 29.8864437,220.646407 L45,230.736842 C61.5927655,241.814858 66.0633533,264.246459 54.9853374,280.839224 C52.3461978,284.792154 48.9529302,288.185422 45,290.824561 L29.8864437,300.914996 C11.2132578,313.381987 -3.11713448e-14,334.351145 -2.84217094e-14,356.803622 L0,365.934211 C1.42629116e-15,377.580762 9.44139515,387.022157 21.0879463,387.022157 C26.0263935,387.022157 30.8082107,385.288957 34.5997582,382.124714 L118.178131,312.374245 C146.672458,288.594257 150.494185,246.217552 126.714197,217.723225 C124.130692,214.627544 121.273812,211.770664 118.178131,209.187159 L34.5997582,139.436689 C25.6579898,131.974321 12.35981,133.173613 4.89744234,142.115381 C1.73320012,145.906929 -6.0478536e-16,150.688746 0,155.627193 Z" id="Path-2" fill="#276DF7"></path>
                    <path d="M61.0479382,161.509061 L118.178131,209.187159 C118.693637,209.617375 119.20252,210.055172 119.704622,210.50039 C119.20393,210.94386 118.695091,211.381411 118.178131,211.812841 L61.0456616,259.492838 C60.6367226,248.290147 55.0354841,237.436946 45,230.736842 L29.8864437,220.646407 C25.4828893,217.706412 21.4941978,214.293594 17.9695926,210.5 C21.4941978,206.706406 25.4828893,203.293588 29.8864437,200.353593 L45,190.263158 C48.9529302,187.624018 52.3461978,184.230751 54.9853374,180.277821 C58.8502589,174.488902 60.8226242,167.989287 61.0479382,161.509061 Z" id="Combined-Shape" fill="#094DD6"></path>
                    <path d="M0,45.0657895 L0,54.1963778 C2.7496354e-15,76.6488548 11.2132578,97.6180133 29.8864437,110.085004 L45,120.175439 C61.5927655,131.253455 66.0633533,153.685055 54.9853374,170.277821 C52.3461978,174.230751 48.9529302,177.624018 45,180.263158 L29.8864437,190.353593 C11.2132578,202.820583 -3.11713448e-14,223.789742 -2.84217094e-14,246.242219 L0,255.372807 C1.42629116e-15,267.019358 9.44139515,276.460753 21.0879463,276.460753 C26.0263935,276.460753 30.8082107,274.727553 34.5997582,271.563311 L118.178131,201.812841 C146.672458,178.032853 150.494185,135.656148 126.714197,107.161821 C124.130692,104.06614 121.273812,101.209261 118.178131,98.6257552 L34.5997582,28.8752855 C25.6579898,21.4129179 12.35981,22.6122092 4.89744234,31.5539776 C1.73320012,35.345525 -6.0478536e-16,40.1273422 0,45.0657895 Z" id="Path-2-Copy-2" fill="#79C5F5"></path>
                </g>
            </g>
        </g>
    </g>
</svg>