<svg width="328" height="206" viewBox="0 0 328 206" fill="none" xmlns="http://www.w3.org/2000/svg">
<g clip-path="url(#clip0_11030_127)">
<path fill-rule="evenodd" clip-rule="evenodd" d="M25.399 190.16C17.8336 190.16 11.7007 184.027 11.7007 176.462L11.7007 18.8034C11.7007 11.238 17.8336 5.10504 25.399 5.10504L308.72 5.10504C316.285 5.10504 322.418 11.238 322.418 18.8034V176.462C322.418 184.027 316.285 190.16 308.72 190.16L25.399 190.16Z" fill="#FF554F"/>
<path fill-rule="evenodd" clip-rule="evenodd" d="M25.399 5.10493C17.8336 5.10493 11.7007 11.2379 11.7007 18.8033L11.7007 80.4033L322.418 80.4033V18.8033C322.418 11.2379 316.285 5.10493 308.72 5.10493L25.399 5.10493Z" fill="#4C5980"/>
<rect y="3.48277" width="327.619" height="201.993" rx="20.5475" fill="#292929"/>
<rect width="327.619" height="205.475" rx="20.5475" fill="url(#paint0_linear_11030_127)"/>
<rect width="327.619" height="205.475" rx="9.13223" fill="url(#paint1_linear_11030_127)"/>
<mask id="mask0_11030_127" style="mask-type:luminance" maskUnits="userSpaceOnUse" x="0" y="0" width="328" height="206">
<rect width="327.619" height="205.475" rx="5.70764" fill="white"/>
</mask>
<g mask="url(#mask0_11030_127)">
<path d="M155.34 15.9848C151.079 5.48285 156.143 -6.44599 166.657 -10.6766L212.654 -29.1846C223.196 -33.4262 235.218 -28.3228 239.49 -17.7936L330.89 207.504C335.151 218.006 330.087 229.935 319.573 234.166L273.576 252.674C263.035 256.915 251.012 251.812 246.74 241.283L155.34 15.9848Z" fill="url(#paint2_linear_11030_127)" fill-opacity="0.5"/>
<path opacity="0.05" d="M0.751336 225.803L139.976 169.783L176.709 260.329L37.4845 316.349L0.751336 225.803Z" fill="white"/>
<path opacity="0.05" d="M-118.99 175.735L74.8737 97.7298L119.021 206.551L-74.8422 284.556L-118.99 175.735Z" fill="white"/>
<path opacity="0.05" d="M223.418 24.4122L460.162 -70.847L522.625 83.1211L285.881 178.38L223.418 24.4122Z" fill="white"/>
<path opacity="0.05" d="M173.82 -17.9991L313.044 -74.0193L344.749 4.13162L205.524 60.1518L173.82 -17.9991Z" fill="white"/>
</g>
<path d="M24.4012 22.1917H28.3463C29.0404 22.1917 29.6735 22.2648 30.2458 22.4109C30.8181 22.5448 31.3052 22.7579 31.707 23.0501C32.1088 23.3424 32.4193 23.7137 32.6385 24.1643C32.8576 24.6148 32.9672 25.1566 32.9672 25.7898C32.9672 26.4351 32.8455 26.9892 32.6019 27.4519C32.3706 27.9146 32.0418 28.292 31.6157 28.5843C31.2017 28.8765 30.7024 29.0957 30.118 29.2418C29.5457 29.3757 28.9247 29.4427 28.255 29.4427H26.2094V35.1229H24.4012V22.1917ZM26.2094 27.9085H28.1271C28.5655 27.9085 28.9673 27.8719 29.3326 27.7989C29.7101 27.7137 30.0327 27.5919 30.3006 27.4336C30.5685 27.2631 30.7755 27.044 30.9216 26.7761C31.0677 26.5082 31.1408 26.1794 31.1408 25.7898C31.1408 25.4002 31.0616 25.0775 30.9033 24.8218C30.7572 24.5539 30.5502 24.3408 30.2823 24.1825C30.0266 24.0121 29.7161 23.8964 29.3509 23.8355C28.9856 23.7624 28.5898 23.7259 28.1637 23.7259H26.2094V27.9085ZM34.3339 28.3286C34.3339 28.0972 34.3278 27.7989 34.3157 27.4336C34.3035 27.0683 34.2852 26.7456 34.2609 26.4656H35.8864C35.9107 26.6848 35.929 26.9405 35.9412 27.2327C35.9534 27.5127 35.9595 27.7441 35.9595 27.9267H36.0142C36.2578 27.4153 36.6109 27.0074 37.0736 26.703C37.5485 26.3864 38.0781 26.2281 38.6626 26.2281C38.9305 26.2281 39.1557 26.2525 39.3384 26.3012L39.2653 27.8902C39.0218 27.8293 38.76 27.7989 38.4799 27.7989C38.066 27.7989 37.7068 27.878 37.4023 28.0363C37.0979 28.1824 36.8422 28.3834 36.6352 28.6391C36.4404 28.8948 36.2943 29.1931 36.1969 29.534C36.0995 29.8628 36.0508 30.2098 36.0508 30.5751V35.1229H34.3339V28.3286ZM46.9679 30.0272C46.9558 29.6862 46.8949 29.3696 46.7853 29.0774C46.6879 28.773 46.5357 28.5112 46.3287 28.292C46.1339 28.0729 45.8842 27.9024 45.5798 27.7806C45.2876 27.6467 44.9406 27.5797 44.5388 27.5797C44.1735 27.5797 43.8264 27.6467 43.4977 27.7806C43.1811 27.9024 42.901 28.0729 42.6575 28.292C42.4262 28.5112 42.2313 28.773 42.0731 29.0774C41.9269 29.3696 41.8417 29.6862 41.8174 30.0272H46.9679ZM48.7031 30.7212C48.7031 30.8186 48.7031 30.916 48.7031 31.0134C48.7031 31.1108 48.697 31.2083 48.6848 31.3057H41.8174C41.8295 31.671 41.9087 32.018 42.0548 32.3467C42.2131 32.6633 42.4201 32.9434 42.6758 33.1869C42.9315 33.4183 43.2237 33.6009 43.5525 33.7348C43.8934 33.8688 44.2526 33.9357 44.6301 33.9357C45.2145 33.9357 45.7199 33.8079 46.146 33.5522C46.5722 33.2965 46.907 32.986 47.1506 32.6207L48.356 33.5887C47.8933 34.1975 47.3454 34.6481 46.7122 34.9403C46.0912 35.2204 45.3972 35.3604 44.6301 35.3604C43.9726 35.3604 43.3637 35.2508 42.8036 35.0316C42.2435 34.8124 41.7626 34.508 41.3607 34.1184C40.9589 33.7166 40.6423 33.2356 40.411 32.6755C40.1796 32.1154 40.064 31.4944 40.064 30.8125C40.064 30.1428 40.1735 29.5279 40.3927 28.9678C40.6241 28.3955 40.9407 27.9085 41.3425 27.5067C41.7443 27.1048 42.2192 26.7943 42.7671 26.5752C43.315 26.3438 43.9056 26.2281 44.5388 26.2281C45.1719 26.2281 45.7442 26.3316 46.2556 26.5386C46.7792 26.7456 47.2175 27.044 47.5707 27.4336C47.9359 27.8232 48.216 28.2981 48.4108 28.8582C48.6056 29.4062 48.7031 30.0272 48.7031 30.7212ZM52.7805 27.8902C52.9996 27.4275 53.3466 27.0379 53.8215 26.7213C54.3086 26.3925 54.8809 26.2281 55.5384 26.2281C56.1228 26.2281 56.6464 26.3621 57.1091 26.63C57.584 26.8978 57.9554 27.3423 58.2233 27.9633C58.5155 27.4032 58.9234 26.977 59.447 26.6848C59.9706 26.3804 60.5428 26.2281 61.1638 26.2281C61.7239 26.2281 62.2049 26.3256 62.6067 26.5204C63.0085 26.703 63.3434 26.9526 63.6113 27.2692C63.8792 27.5858 64.074 27.9572 64.1957 28.3834C64.3297 28.8095 64.3966 29.2661 64.3966 29.7532V35.1229H62.6798V30.3194C62.6798 29.9663 62.6493 29.6314 62.5885 29.3148C62.5276 28.9983 62.4241 28.7182 62.278 28.4747C62.1319 28.2311 61.937 28.0363 61.6935 27.8902C61.45 27.7441 61.1395 27.671 60.762 27.671C60.3724 27.671 60.0375 27.7563 59.7575 27.9267C59.4774 28.085 59.2461 28.2981 59.0634 28.566C58.893 28.8217 58.7651 29.1139 58.6799 29.4427C58.6068 29.7715 58.5703 30.1063 58.5703 30.4472V35.1229H56.8534V29.9724C56.8534 29.6314 56.823 29.3209 56.7621 29.0409C56.7012 28.7608 56.5977 28.5234 56.4516 28.3286C56.3055 28.1216 56.1168 27.9633 55.8854 27.8537C55.6541 27.7319 55.3679 27.671 55.027 27.671C54.3938 27.671 53.8641 27.9328 53.438 28.4564C53.024 28.9678 52.817 29.6558 52.817 30.5203V35.1229H51.1001V28.3286C51.1001 28.0972 51.094 27.7989 51.0819 27.4336C51.0697 27.0683 51.0514 26.7456 51.0271 26.4656H52.6526C52.677 26.6848 52.6952 26.9344 52.7074 27.2144C52.7196 27.4823 52.7257 27.7076 52.7257 27.8902H52.7805ZM69.0307 35.1229H67.3138V26.4656H69.0307V35.1229ZM69.3229 23.3424C69.3229 23.6589 69.2072 23.9207 68.9759 24.1277C68.7567 24.3347 68.4888 24.4382 68.1723 24.4382C67.8557 24.4382 67.5878 24.3347 67.3686 24.1277C67.1494 23.9086 67.0399 23.6468 67.0399 23.3424C67.0399 23.0258 67.1494 22.764 67.3686 22.557C67.5878 22.3378 67.8557 22.2282 68.1723 22.2282C68.4888 22.2282 68.7567 22.3378 68.9759 22.557C69.2072 22.764 69.3229 23.0258 69.3229 23.3424ZM78.1225 35.1229C78.0982 34.9038 78.0799 34.6602 78.0677 34.3924C78.0556 34.1123 78.0495 33.881 78.0495 33.6983H78.0129C77.7938 34.161 77.4224 34.5567 76.8988 34.8855C76.3874 35.2021 75.8151 35.3604 75.182 35.3604C74.6218 35.3604 74.1348 35.2691 73.7208 35.0864C73.319 34.9038 72.9841 34.6542 72.7163 34.3376C72.4606 34.0088 72.2657 33.6313 72.1318 33.2052C72.01 32.779 71.9491 32.3224 71.9491 31.8353V26.4656H73.666V31.2509C73.666 31.604 73.6904 31.9449 73.7391 32.2737C73.7999 32.5903 73.9034 32.8703 74.0496 33.1138C74.1957 33.3574 74.3966 33.5522 74.6523 33.6983C74.908 33.8444 75.2367 33.9175 75.6386 33.9175C76.3326 33.9175 76.8927 33.6618 77.3189 33.1504C77.7451 32.6268 77.9582 31.9327 77.9582 31.0682V26.4656H79.675V33.26C79.675 33.4913 79.6811 33.7896 79.6933 34.1549C79.7055 34.5202 79.7237 34.8429 79.7481 35.1229H78.1225ZM84.333 27.8902C84.5522 27.4275 84.8992 27.0379 85.3741 26.7213C85.8611 26.3925 86.4334 26.2281 87.091 26.2281C87.6754 26.2281 88.199 26.3621 88.6617 26.63C89.1366 26.8978 89.508 27.3423 89.7758 27.9633C90.0681 27.4032 90.476 26.977 90.9996 26.6848C91.5231 26.3804 92.0954 26.2281 92.7164 26.2281C93.2765 26.2281 93.7575 26.3256 94.1593 26.5204C94.5611 26.703 94.896 26.9526 95.1638 27.2692C95.4317 27.5858 95.6265 27.9572 95.7483 28.3834C95.8823 28.8095 95.9492 29.2661 95.9492 29.7532V35.1229H94.2324V30.3194C94.2324 29.9663 94.2019 29.6314 94.141 29.3148C94.0802 28.9983 93.9767 28.7182 93.8305 28.4747C93.6844 28.2311 93.4896 28.0363 93.2461 27.8902C93.0026 27.7441 92.6921 27.671 92.3146 27.671C91.925 27.671 91.5901 27.7563 91.31 27.9267C91.03 28.085 90.7986 28.2981 90.616 28.566C90.4455 28.8217 90.3177 29.1139 90.2324 29.4427C90.1594 29.7715 90.1229 30.1063 90.1229 30.4472V35.1229H88.406V29.9724C88.406 29.6314 88.3756 29.3209 88.3147 29.0409C88.2538 28.7608 88.1503 28.5234 88.0042 28.3286C87.8581 28.1216 87.6693 27.9633 87.438 27.8537C87.2066 27.7319 86.9205 27.671 86.5796 27.671C85.9464 27.671 85.4167 27.9328 84.9905 28.4564C84.5765 28.9678 84.3696 29.6558 84.3696 30.5203V35.1229H82.6527V28.3286C82.6527 28.0972 82.6466 27.7989 82.6344 27.4336C82.6223 27.0683 82.604 26.7456 82.5796 26.4656H84.2052C84.2295 26.6848 84.2478 26.9344 84.26 27.2144C84.2721 27.4823 84.2782 27.7076 84.2782 27.8902H84.333Z" fill="white"/>
<g clip-path="url(#clip1_11030_127)">
<path opacity="0.49814" d="M29.2771 110.867C29.2771 111.729 28.9944 112.442 28.4291 113.007C27.8728 113.573 27.1639 113.855 26.3024 113.855C25.441 113.855 24.7276 113.573 24.1623 113.007C23.6059 112.442 23.3277 111.729 23.3277 110.867C23.3277 110.006 23.6059 109.297 24.1623 108.741C24.7276 108.184 25.441 107.906 26.3024 107.906C27.1639 107.906 27.8728 108.184 28.4291 108.741C28.9944 109.297 29.2771 110.006 29.2771 110.867ZM40.8366 110.867C40.8366 111.729 40.554 112.442 39.9887 113.007C39.4323 113.573 38.7234 113.855 37.862 113.855C37.0005 113.855 36.2871 113.573 35.7218 113.007C35.1655 112.442 34.8873 111.729 34.8873 110.867C34.8873 110.006 35.1655 109.297 35.7218 108.741C36.2871 108.184 37.0005 107.906 37.862 107.906C38.7234 107.906 39.4323 108.184 39.9887 108.741C40.554 109.297 40.8366 110.006 40.8366 110.867ZM52.3962 110.867C52.3962 111.729 52.1135 112.442 51.5482 113.007C50.9918 113.573 50.2829 113.855 49.4215 113.855C48.5601 113.855 47.8467 113.573 47.2813 113.007C46.725 112.442 46.4468 111.729 46.4468 110.867C46.4468 110.006 46.725 109.297 47.2813 108.741C47.8467 108.184 48.5601 107.906 49.4215 107.906C50.2829 107.906 50.9918 108.184 51.5482 108.741C52.1135 109.297 52.3962 110.006 52.3962 110.867ZM63.9557 110.867C63.9557 111.729 63.6731 112.442 63.1077 113.007C62.5514 113.573 61.8425 113.855 60.981 113.855C60.1196 113.855 59.4062 113.573 58.8409 113.007C58.2845 112.442 58.0064 111.729 58.0064 110.867C58.0064 110.006 58.2845 109.297 58.8409 108.741C59.4062 108.184 60.1196 107.906 60.981 107.906C61.8425 107.906 62.5514 108.184 63.1077 108.741C63.6731 109.297 63.9557 110.006 63.9557 110.867Z" fill="white"/>
<path opacity="0.49814" d="M102.335 110.867C102.335 111.729 102.052 112.442 101.487 113.007C100.93 113.573 100.222 113.855 99.3601 113.855C98.4987 113.855 97.7853 113.573 97.2199 113.007C96.6636 112.442 96.3854 111.729 96.3854 110.867C96.3854 110.006 96.6636 109.297 97.2199 108.741C97.7853 108.184 98.4987 107.906 99.3601 107.906C100.222 107.906 100.93 108.184 101.487 108.741C102.052 109.297 102.335 110.006 102.335 110.867ZM113.894 110.867C113.894 111.729 113.612 112.442 113.046 113.007C112.49 113.573 111.781 113.855 110.92 113.855C110.058 113.855 109.345 113.573 108.779 113.007C108.223 112.442 107.945 111.729 107.945 110.867C107.945 110.006 108.223 109.297 108.779 108.741C109.345 108.184 110.058 107.906 110.92 107.906C111.781 107.906 112.49 108.184 113.046 108.741C113.612 109.297 113.894 110.006 113.894 110.867ZM125.454 110.867C125.454 111.729 125.171 112.442 124.606 113.007C124.05 113.573 123.341 113.855 122.479 113.855C121.618 113.855 120.904 113.573 120.339 113.007C119.783 112.442 119.504 111.729 119.504 110.867C119.504 110.006 119.783 109.297 120.339 108.741C120.904 108.184 121.618 107.906 122.479 107.906C123.341 107.906 124.05 108.184 124.606 108.741C125.171 109.297 125.454 110.006 125.454 110.867ZM137.013 110.867C137.013 111.729 136.731 112.442 136.165 113.007C135.609 113.573 134.9 113.855 134.039 113.855C133.177 113.855 132.464 113.573 131.899 113.007C131.342 112.442 131.064 111.729 131.064 110.867C131.064 110.006 131.342 109.297 131.899 108.741C132.464 108.184 133.177 107.906 134.039 107.906C134.9 107.906 135.609 108.184 136.165 108.741C136.731 109.297 137.013 110.006 137.013 110.867Z" fill="white"/>
<path opacity="0.49814" d="M175.393 110.867C175.393 111.729 175.11 112.442 174.545 113.007C173.988 113.573 173.279 113.855 172.418 113.855C171.557 113.855 170.843 113.573 170.278 113.007C169.722 112.442 169.443 111.729 169.443 110.867C169.443 110.006 169.722 109.297 170.278 108.741C170.843 108.184 171.557 107.906 172.418 107.906C173.279 107.906 173.988 108.184 174.545 108.741C175.11 109.297 175.393 110.006 175.393 110.867ZM186.952 110.867C186.952 111.729 186.67 112.442 186.104 113.007C185.548 113.573 184.839 113.855 183.978 113.855C183.116 113.855 182.403 113.573 181.837 113.007C181.281 112.442 181.003 111.729 181.003 110.867C181.003 110.006 181.281 109.297 181.837 108.741C182.403 108.184 183.116 107.906 183.978 107.906C184.839 107.906 185.548 108.184 186.104 108.741C186.67 109.297 186.952 110.006 186.952 110.867ZM198.512 110.867C198.512 111.729 198.229 112.442 197.664 113.007C197.107 113.573 196.399 113.855 195.537 113.855C194.676 113.855 193.962 113.573 193.397 113.007C192.841 112.442 192.562 111.729 192.562 110.867C192.562 110.006 192.841 109.297 193.397 108.741C193.962 108.184 194.676 107.906 195.537 107.906C196.399 107.906 197.107 108.184 197.664 108.741C198.229 109.297 198.512 110.006 198.512 110.867ZM210.071 110.867C210.071 111.729 209.789 112.442 209.223 113.007C208.667 113.573 207.958 113.855 207.097 113.855C206.235 113.855 205.522 113.573 204.956 113.007C204.4 112.442 204.122 111.729 204.122 110.867C204.122 110.006 204.4 109.297 204.956 108.741C205.522 108.184 206.235 107.906 207.097 107.906C207.958 107.906 208.667 108.184 209.223 108.741C209.789 109.297 210.071 110.006 210.071 110.867Z" fill="white"/>
<path d="M247.931 110.175C248.598 110.37 249.149 110.755 249.585 111.329C250.022 111.903 250.24 112.604 250.24 113.431C250.24 113.971 250.131 114.459 249.913 114.895C249.706 115.32 249.425 115.688 249.068 115.998C248.712 116.297 248.293 116.526 247.811 116.687C247.34 116.86 246.846 116.946 246.329 116.946C245.812 116.946 245.313 116.86 244.83 116.687C244.359 116.526 243.946 116.297 243.59 115.998C243.234 115.688 242.946 115.32 242.728 114.895C242.521 114.459 242.418 113.971 242.418 113.431C242.418 113.018 242.476 112.638 242.59 112.294C242.705 111.938 242.866 111.622 243.073 111.346C243.28 111.059 243.521 110.818 243.796 110.623C244.084 110.427 244.394 110.278 244.727 110.175V110.14C244.451 110.048 244.198 109.916 243.969 109.744C243.75 109.56 243.561 109.348 243.4 109.107C243.239 108.854 243.113 108.584 243.021 108.297C242.929 107.998 242.883 107.694 242.883 107.384C242.883 106.89 242.975 106.442 243.159 106.04C243.343 105.638 243.59 105.299 243.9 105.023C244.221 104.736 244.589 104.518 245.002 104.369C245.416 104.208 245.858 104.127 246.329 104.127C246.789 104.127 247.225 104.208 247.638 104.369C248.063 104.518 248.431 104.736 248.741 105.023C249.063 105.299 249.315 105.638 249.499 106.04C249.683 106.442 249.775 106.89 249.775 107.384C249.775 107.694 249.729 107.998 249.637 108.297C249.545 108.584 249.419 108.854 249.258 109.107C249.097 109.348 248.902 109.56 248.672 109.744C248.454 109.916 248.207 110.048 247.931 110.14V110.175ZM244.089 107.453C244.089 107.774 244.147 108.067 244.262 108.331C244.376 108.595 244.537 108.825 244.744 109.02C244.951 109.216 245.186 109.371 245.45 109.486C245.726 109.589 246.019 109.641 246.329 109.641C246.639 109.641 246.926 109.589 247.191 109.486C247.466 109.371 247.707 109.216 247.914 109.02C248.121 108.825 248.282 108.595 248.397 108.331C248.511 108.067 248.569 107.774 248.569 107.453C248.569 107.131 248.511 106.832 248.397 106.557C248.282 106.27 248.121 106.028 247.914 105.833C247.719 105.626 247.483 105.465 247.208 105.351C246.944 105.236 246.651 105.178 246.329 105.178C246.007 105.178 245.709 105.236 245.433 105.351C245.169 105.465 244.934 105.626 244.727 105.833C244.532 106.028 244.376 106.27 244.262 106.557C244.147 106.832 244.089 107.131 244.089 107.453ZM243.659 113.293C243.659 113.661 243.722 114.005 243.848 114.327C243.974 114.649 244.152 114.924 244.382 115.154C244.623 115.384 244.905 115.567 245.226 115.705C245.56 115.832 245.927 115.895 246.329 115.895C246.731 115.895 247.093 115.832 247.415 115.705C247.748 115.567 248.029 115.384 248.259 115.154C248.5 114.924 248.684 114.649 248.81 114.327C248.936 114.005 249 113.661 249 113.293C249 112.926 248.936 112.587 248.81 112.277C248.684 111.967 248.5 111.697 248.259 111.467C248.029 111.237 247.748 111.059 247.415 110.933C247.093 110.806 246.731 110.743 246.329 110.743C245.927 110.743 245.56 110.806 245.226 110.933C244.905 111.059 244.623 111.237 244.382 111.467C244.152 111.697 243.974 111.967 243.848 112.277C243.722 112.587 243.659 112.926 243.659 113.293ZM259.076 111.312L259.041 111.277C258.857 111.415 258.599 111.524 258.266 111.605C257.933 111.685 257.611 111.725 257.301 111.725C256.773 111.725 256.279 111.633 255.819 111.45C255.371 111.266 254.981 111.013 254.648 110.692C254.315 110.359 254.05 109.962 253.855 109.503C253.671 109.032 253.579 108.521 253.579 107.969C253.579 107.407 253.677 106.89 253.872 106.419C254.068 105.936 254.343 105.529 254.699 105.196C255.055 104.862 255.475 104.604 255.957 104.42C256.44 104.225 256.968 104.127 257.542 104.127C258.116 104.127 258.645 104.225 259.127 104.42C259.61 104.604 260.029 104.862 260.385 105.196C260.741 105.529 261.017 105.936 261.212 106.419C261.407 106.89 261.505 107.407 261.505 107.969C261.505 108.601 261.396 109.187 261.177 109.727C260.959 110.267 260.701 110.783 260.402 111.277L257.077 116.636H255.647L259.076 111.312ZM260.264 107.969C260.264 107.579 260.195 107.211 260.058 106.867C259.931 106.522 259.747 106.229 259.506 105.988C259.265 105.735 258.978 105.54 258.645 105.402C258.312 105.253 257.944 105.178 257.542 105.178C257.14 105.178 256.773 105.253 256.44 105.402C256.106 105.54 255.819 105.735 255.578 105.988C255.337 106.229 255.147 106.522 255.01 106.867C254.883 107.211 254.82 107.579 254.82 107.969C254.82 108.36 254.883 108.728 255.01 109.072C255.136 109.405 255.314 109.698 255.544 109.951C255.785 110.192 256.072 110.381 256.405 110.519C256.75 110.657 257.129 110.726 257.542 110.726C257.956 110.726 258.329 110.657 258.662 110.519C259.007 110.381 259.294 110.192 259.523 109.951C259.765 109.698 259.948 109.405 260.075 109.072C260.201 108.728 260.264 108.36 260.264 107.969ZM268.686 104.127C269.444 104.127 270.076 104.317 270.581 104.696C271.098 105.063 271.512 105.552 271.822 106.16C272.132 106.758 272.35 107.441 272.477 108.211C272.615 108.98 272.683 109.761 272.683 110.554C272.683 111.346 272.615 112.127 272.477 112.897C272.35 113.655 272.132 114.338 271.822 114.947C271.512 115.544 271.098 116.027 270.581 116.394C270.076 116.762 269.444 116.946 268.686 116.946C267.917 116.946 267.274 116.762 266.757 116.394C266.251 116.027 265.844 115.544 265.533 114.947C265.223 114.338 265.005 113.655 264.879 112.897C264.752 112.127 264.689 111.346 264.689 110.554C264.689 109.761 264.752 108.98 264.879 108.211C265.005 107.441 265.223 106.758 265.533 106.16C265.844 105.552 266.251 105.063 266.757 104.696C267.274 104.317 267.917 104.127 268.686 104.127ZM268.686 105.178C268.146 105.178 267.699 105.345 267.342 105.678C266.986 106.011 266.705 106.436 266.498 106.953C266.291 107.47 266.148 108.05 266.068 108.693C265.987 109.325 265.947 109.945 265.947 110.554C265.947 111.163 265.987 111.783 266.068 112.414C266.148 113.046 266.291 113.621 266.498 114.137C266.705 114.643 266.986 115.062 267.342 115.395C267.699 115.717 268.146 115.878 268.686 115.878C269.215 115.878 269.657 115.717 270.013 115.395C270.369 115.062 270.65 114.643 270.857 114.137C271.064 113.621 271.207 113.046 271.288 112.414C271.38 111.783 271.426 111.163 271.426 110.554C271.426 109.945 271.38 109.325 271.288 108.693C271.207 108.05 271.064 107.47 270.857 106.953C270.65 106.436 270.369 106.011 270.013 105.678C269.657 105.345 269.215 105.178 268.686 105.178ZM281.037 116.636H279.796V105.971L277.591 107.849L276.833 106.987L279.934 104.437H281.037V116.636Z" fill="white"/>
</g>
<path d="M25.2939 177.097H24.2254V166.59H30.562V167.54H25.2939V171.191H30.191V172.126H25.2939V177.097ZM36.1666 172.615C36.1666 172.012 36.0083 171.562 35.6917 171.265C35.3752 170.968 34.9151 170.82 34.3116 170.82C33.8961 170.82 33.5103 170.894 33.1541 171.042C32.798 171.191 32.4962 171.389 32.2489 171.636L31.685 170.968C31.9719 170.681 32.3478 170.444 32.8128 170.256C33.2877 170.068 33.8219 169.974 34.4155 169.974C34.7915 169.974 35.1427 170.028 35.4691 170.137C35.7956 170.236 36.0825 170.389 36.3299 170.597C36.5772 170.805 36.7701 171.067 36.9086 171.384C37.0471 171.7 37.1164 172.071 37.1164 172.497V175.539C37.1164 175.806 37.1263 176.083 37.1461 176.37C37.1658 176.657 37.1955 176.899 37.2351 177.097H36.3299C36.3002 176.929 36.2754 176.746 36.2557 176.548C36.2359 176.35 36.226 176.157 36.226 175.969H36.1963C35.8797 176.434 35.5186 176.771 35.113 176.978C34.7173 177.176 34.2374 177.275 33.6735 177.275C33.4064 177.275 33.1294 177.236 32.8425 177.156C32.5655 177.087 32.3083 176.968 32.0708 176.8C31.8433 176.632 31.6504 176.414 31.4921 176.147C31.3437 175.88 31.2695 175.554 31.2695 175.168C31.2695 174.634 31.403 174.213 31.6701 173.907C31.9472 173.59 32.3132 173.357 32.7683 173.209C33.2234 173.051 33.7428 172.952 34.3265 172.912C34.9201 172.863 35.5335 172.838 36.1666 172.838V172.615ZM35.8698 173.625C35.4543 173.625 35.0338 173.644 34.6084 173.684C34.1929 173.714 33.812 173.783 33.4658 173.892C33.1294 173.991 32.8524 174.139 32.6347 174.337C32.4171 174.535 32.3083 174.797 32.3083 175.123C32.3083 175.371 32.3528 175.578 32.4418 175.747C32.5407 175.915 32.6694 176.053 32.8277 176.162C32.9859 176.261 33.1591 176.335 33.347 176.385C33.5449 176.424 33.7428 176.444 33.9406 176.444C34.2968 176.444 34.6134 176.385 34.8904 176.266C35.1674 176.137 35.3999 175.969 35.5879 175.761C35.7758 175.544 35.9193 175.297 36.0182 175.019C36.1172 174.742 36.1666 174.451 36.1666 174.144V173.625H35.8698ZM42.7023 170.998H40.7434V175.049C40.7434 175.306 40.7682 175.519 40.8176 175.687C40.8671 175.855 40.9364 175.989 41.0254 176.088C41.1243 176.177 41.2381 176.241 41.3667 176.281C41.4953 176.311 41.6338 176.325 41.7822 176.325C41.9207 176.325 42.0642 176.306 42.2126 176.266C42.3709 176.226 42.5193 176.172 42.6578 176.103L42.7023 176.978C42.5242 177.048 42.3363 177.097 42.1384 177.127C41.9504 177.166 41.7427 177.186 41.5151 177.186C41.3272 177.186 41.1293 177.161 40.9215 177.112C40.7138 177.062 40.5209 176.968 40.3428 176.83C40.1647 176.691 40.0163 176.503 39.8976 176.266C39.7888 176.029 39.7343 175.717 39.7343 175.331V170.998H38.2949V170.152H39.7343V168.193H40.7434V170.152H42.7023V170.998ZM45.305 177.097H44.2959V170.152H45.305V177.097ZM45.5127 167.481C45.5127 167.689 45.4385 167.862 45.2901 168C45.1417 168.129 44.9785 168.193 44.8004 168.193C44.6223 168.193 44.4591 168.129 44.3107 168C44.1623 167.862 44.0881 167.689 44.0881 167.481C44.0881 167.273 44.1623 167.105 44.3107 166.976C44.4591 166.838 44.6223 166.769 44.8004 166.769C44.9785 166.769 45.1417 166.838 45.2901 166.976C45.4385 167.105 45.5127 167.273 45.5127 167.481ZM48.9853 171.339C49.1831 170.934 49.4849 170.607 49.8905 170.36C50.306 170.103 50.766 169.974 51.2706 169.974C51.4586 169.974 51.6515 169.994 51.8494 170.033C52.0571 170.073 52.255 170.152 52.443 170.271C52.6408 170.38 52.8189 170.528 52.9772 170.716C53.1454 170.904 53.2888 171.146 53.4075 171.443C53.645 170.968 53.9665 170.607 54.3721 170.36C54.7877 170.103 55.2774 169.974 55.8413 169.974C56.7218 169.974 57.3797 170.236 57.815 170.76C58.2602 171.285 58.4828 171.977 58.4828 172.838V177.097H57.4737V173.254C57.4737 172.521 57.3352 171.933 57.0582 171.488C56.791 171.042 56.331 170.82 55.678 170.82C55.312 170.82 55.0004 170.894 54.7431 171.042C54.4958 171.191 54.293 171.389 54.1347 171.636C53.9863 171.873 53.8775 172.146 53.8082 172.452C53.739 172.759 53.7043 173.075 53.7043 173.402V177.097H52.6952V173.046C52.6952 172.709 52.6705 172.403 52.621 172.126C52.5716 171.849 52.4825 171.616 52.3539 171.428C52.2352 171.23 52.067 171.082 51.8494 170.983C51.6317 170.874 51.3547 170.82 51.0183 170.82C50.7809 170.82 50.5385 170.874 50.2912 170.983C50.0537 171.092 49.8361 171.26 49.6382 171.488C49.4502 171.705 49.2969 171.987 49.1782 172.333C49.0595 172.67 49.0001 173.071 49.0001 173.536V177.097H47.991V171.681C47.991 171.493 47.986 171.25 47.9761 170.953C47.9663 170.657 47.9514 170.389 47.9316 170.152H48.8962C48.916 170.34 48.9308 170.548 48.9407 170.775C48.9506 171.003 48.9556 171.191 48.9556 171.339H48.9853ZM65.4696 172.615C65.4696 172.012 65.3113 171.562 64.9947 171.265C64.6781 170.968 64.2181 170.82 63.6146 170.82C63.1991 170.82 62.8132 170.894 62.4571 171.042C62.1009 171.191 61.7992 171.389 61.5519 171.636L60.9879 170.968C61.2748 170.681 61.6508 170.444 62.1158 170.256C62.5906 170.068 63.1249 169.974 63.7185 169.974C64.0944 169.974 64.4456 170.028 64.7721 170.137C65.0986 170.236 65.3855 170.389 65.6328 170.597C65.8801 170.805 66.0731 171.067 66.2116 171.384C66.3501 171.7 66.4193 172.071 66.4193 172.497V175.539C66.4193 175.806 66.4292 176.083 66.449 176.37C66.4688 176.657 66.4985 176.899 66.538 177.097H65.6328C65.6031 176.929 65.5784 176.746 65.5586 176.548C65.5388 176.35 65.5289 176.157 65.5289 175.969H65.4993C65.1827 176.434 64.8216 176.771 64.4159 176.978C64.0202 177.176 63.5404 177.275 62.9765 177.275C62.7094 177.275 62.4323 177.236 62.1454 177.156C61.8684 177.087 61.6112 176.968 61.3738 176.8C61.1462 176.632 60.9533 176.414 60.795 176.147C60.6466 175.88 60.5724 175.554 60.5724 175.168C60.5724 174.634 60.706 174.213 60.9731 173.907C61.2501 173.59 61.6162 173.357 62.0712 173.209C62.5263 173.051 63.0457 172.952 63.6294 172.912C64.223 172.863 64.8364 172.838 65.4696 172.838V172.615ZM65.1728 173.625C64.7573 173.625 64.3368 173.644 63.9114 173.684C63.4959 173.714 63.115 173.783 62.7687 173.892C62.4323 173.991 62.1553 174.139 61.9377 174.337C61.72 174.535 61.6112 174.797 61.6112 175.123C61.6112 175.371 61.6557 175.578 61.7448 175.747C61.8437 175.915 61.9723 176.053 62.1306 176.162C62.2889 176.261 62.462 176.335 62.65 176.385C62.8479 176.424 63.0457 176.444 63.2436 176.444C63.5998 176.444 63.9163 176.385 64.1933 176.266C64.4704 176.137 64.7029 175.969 64.8908 175.761C65.0788 175.544 65.2222 175.297 65.3212 175.019C65.4201 174.742 65.4696 174.451 65.4696 174.144V173.625H65.1728ZM72.7883 166.59H75.9195C76.3152 166.59 76.7159 166.635 77.1215 166.724C77.5272 166.803 77.8883 166.947 78.2049 167.154C78.5313 167.352 78.7935 167.624 78.9914 167.971C79.1991 168.317 79.303 168.752 79.303 169.276C79.303 169.83 79.1348 170.315 78.7984 170.731C78.4621 171.136 78.0119 171.404 77.448 171.532V171.562C78.1307 171.641 78.6946 171.908 79.1398 172.363C79.5949 172.808 79.8224 173.417 79.8224 174.188C79.8224 174.624 79.7284 175.024 79.5404 175.39C79.3624 175.747 79.1051 176.053 78.7688 176.311C78.4324 176.558 78.0218 176.751 77.5371 176.889C77.0523 177.028 76.5082 177.097 75.9047 177.097H72.7883V166.59ZM73.8568 171.191H76.0086C76.2658 171.191 76.523 171.161 76.7802 171.102C77.0473 171.042 77.2897 170.943 77.5074 170.805C77.725 170.657 77.8982 170.464 78.0268 170.226C78.1653 169.989 78.2345 169.697 78.2345 169.351C78.2345 169.014 78.1653 168.732 78.0268 168.505C77.8982 168.267 77.7201 168.074 77.4925 167.926C77.265 167.778 76.9979 167.674 76.6912 167.614C76.3845 167.545 76.058 167.511 75.7118 167.511H73.8568V171.191ZM73.8568 176.177H75.8453C76.2312 176.177 76.5972 176.142 76.9435 176.073C77.2996 175.994 77.6063 175.875 77.8635 175.717C78.1307 175.549 78.3434 175.336 78.5017 175.079C78.6599 174.812 78.7391 174.495 78.7391 174.129C78.7391 173.437 78.5017 172.922 78.0268 172.586C77.5618 172.239 76.8989 172.066 76.0382 172.066H73.8568V176.177ZM86.541 172.615C86.541 172.012 86.3827 171.562 86.0662 171.265C85.7496 170.968 85.2895 170.82 84.6861 170.82C84.2705 170.82 83.8847 170.894 83.5285 171.042C83.1724 171.191 82.8706 171.389 82.6233 171.636L82.0594 170.968C82.3463 170.681 82.7222 170.444 83.1872 170.256C83.6621 170.068 84.1963 169.974 84.7899 169.974C85.1659 169.974 85.5171 170.028 85.8436 170.137C86.17 170.236 86.4569 170.389 86.7043 170.597C86.9516 170.805 87.1445 171.067 87.283 171.384C87.4215 171.7 87.4908 172.071 87.4908 172.497V175.539C87.4908 175.806 87.5007 176.083 87.5205 176.37C87.5403 176.657 87.5699 176.899 87.6095 177.097H86.7043C86.6746 176.929 86.6499 176.746 86.6301 176.548C86.6103 176.35 86.6004 176.157 86.6004 175.969H86.5707C86.2541 176.434 85.893 176.771 85.4874 176.978C85.0917 177.176 84.6119 177.275 84.0479 177.275C83.7808 177.275 83.5038 177.236 83.2169 177.156C82.9399 177.087 82.6827 176.968 82.4452 176.8C82.2177 176.632 82.0248 176.414 81.8665 176.147C81.7181 175.88 81.6439 175.554 81.6439 175.168C81.6439 174.634 81.7774 174.213 82.0446 173.907C82.3216 173.59 82.6876 173.357 83.1427 173.209C83.5978 173.051 84.1172 172.952 84.7009 172.912C85.2945 172.863 85.9079 172.838 86.541 172.838V172.615ZM86.2442 173.625C85.8287 173.625 85.4083 173.644 84.9829 173.684C84.5673 173.714 84.1864 173.783 83.8402 173.892C83.5038 173.991 83.2268 174.139 83.0091 174.337C82.7915 174.535 82.6827 174.797 82.6827 175.123C82.6827 175.371 82.7272 175.578 82.8162 175.747C82.9152 175.915 83.0438 176.053 83.2021 176.162C83.3604 176.261 83.5335 176.335 83.7215 176.385C83.9193 176.424 84.1172 176.444 84.3151 176.444C84.6712 176.444 84.9878 176.385 85.2648 176.266C85.5418 176.137 85.7743 175.969 85.9623 175.761C86.1503 175.544 86.2937 175.297 86.3926 175.019C86.4916 174.742 86.541 174.451 86.541 174.144V173.625H86.2442ZM91.1292 175.925V177.097H90.1201V165.878H91.1292V171.354H91.1589C91.4557 170.899 91.8415 170.558 92.3164 170.33C92.7913 170.093 93.281 169.974 93.7856 169.974C94.3297 169.974 94.8194 170.068 95.2547 170.256C95.6999 170.444 96.0758 170.701 96.3825 171.028C96.6991 171.354 96.9415 171.74 97.1097 172.185C97.2878 172.63 97.3768 173.11 97.3768 173.625C97.3768 174.139 97.2878 174.619 97.1097 175.064C96.9415 175.509 96.6991 175.895 96.3825 176.222C96.0758 176.548 95.6999 176.805 95.2547 176.993C94.8194 177.181 94.3297 177.275 93.7856 177.275C93.281 177.275 92.7913 177.161 92.3164 176.934C91.8415 176.706 91.4557 176.37 91.1589 175.925H91.1292ZM96.3083 173.625C96.3083 173.239 96.249 172.878 96.1303 172.541C96.0115 172.195 95.8384 171.898 95.6109 171.651C95.3932 171.394 95.1212 171.191 94.7947 171.042C94.4682 170.894 94.0972 170.82 93.6817 170.82C93.2958 170.82 92.9397 170.894 92.6132 171.042C92.2867 171.181 92.0048 171.379 91.7673 171.636C91.5299 171.883 91.3419 172.18 91.2034 172.526C91.0748 172.863 91.0105 173.229 91.0105 173.625C91.0105 174.02 91.0748 174.391 91.2034 174.738C91.3419 175.074 91.5299 175.366 91.7673 175.613C92.0048 175.86 92.2867 176.058 92.6132 176.207C92.9397 176.345 93.2958 176.414 93.6817 176.414C94.0972 176.414 94.4682 176.345 94.7947 176.207C95.1212 176.058 95.3932 175.86 95.6109 175.613C95.8384 175.356 96.0115 175.059 96.1303 174.723C96.249 174.376 96.3083 174.01 96.3083 173.625ZM103.917 172.615C103.917 172.012 103.759 171.562 103.442 171.265C103.126 170.968 102.666 170.82 102.062 170.82C101.647 170.82 101.261 170.894 100.905 171.042C100.548 171.191 100.247 171.389 99.9993 171.636L99.4354 170.968C99.7223 170.681 100.098 170.444 100.563 170.256C101.038 170.068 101.572 169.974 102.166 169.974C102.542 169.974 102.893 170.028 103.22 170.137C103.546 170.236 103.833 170.389 104.08 170.597C104.328 170.805 104.521 171.067 104.659 171.384C104.798 171.7 104.867 172.071 104.867 172.497V175.539C104.867 175.806 104.877 176.083 104.896 176.37C104.916 176.657 104.946 176.899 104.985 177.097H104.08C104.051 176.929 104.026 176.746 104.006 176.548C103.986 176.35 103.976 176.157 103.976 175.969H103.947C103.63 176.434 103.269 176.771 102.863 176.978C102.468 177.176 101.988 177.275 101.424 177.275C101.157 177.275 100.88 177.236 100.593 177.156C100.316 177.087 100.059 176.968 99.8212 176.8C99.5937 176.632 99.4008 176.414 99.2425 176.147C99.0941 175.88 99.0199 175.554 99.0199 175.168C99.0199 174.634 99.1534 174.213 99.4205 173.907C99.6976 173.59 100.064 173.357 100.519 173.209C100.974 173.051 101.493 172.952 102.077 172.912C102.67 172.863 103.284 172.838 103.917 172.838V172.615ZM103.62 173.625C103.205 173.625 102.784 173.644 102.359 173.684C101.943 173.714 101.562 173.783 101.216 173.892C100.88 173.991 100.603 174.139 100.385 174.337C100.167 174.535 100.059 174.797 100.059 175.123C100.059 175.371 100.103 175.578 100.192 175.747C100.291 175.915 100.42 176.053 100.578 176.162C100.736 176.261 100.909 176.335 101.097 176.385C101.295 176.424 101.493 176.444 101.691 176.444C102.047 176.444 102.364 176.385 102.641 176.266C102.918 176.137 103.15 175.969 103.338 175.761C103.526 175.544 103.67 175.297 103.769 175.019C103.868 174.742 103.917 174.451 103.917 174.144V173.625H103.62ZM108.505 177.097H107.496V165.878H108.505V177.097ZM118.106 173.625C118.106 174.149 118.012 174.634 117.824 175.079C117.646 175.524 117.394 175.91 117.067 176.236C116.741 176.563 116.35 176.82 115.895 177.008C115.44 177.186 114.94 177.275 114.396 177.275C113.862 177.275 113.367 177.186 112.912 177.008C112.457 176.82 112.066 176.563 111.74 176.236C111.413 175.91 111.156 175.524 110.968 175.079C110.79 174.634 110.701 174.149 110.701 173.625C110.701 173.1 110.79 172.615 110.968 172.17C111.156 171.725 111.413 171.339 111.74 171.013C112.066 170.686 112.457 170.434 112.912 170.256C113.367 170.068 113.862 169.974 114.396 169.974C114.94 169.974 115.44 170.068 115.895 170.256C116.35 170.434 116.741 170.686 117.067 171.013C117.394 171.339 117.646 171.725 117.824 172.17C118.012 172.615 118.106 173.1 118.106 173.625ZM117.037 173.625C117.037 173.239 116.973 172.878 116.845 172.541C116.726 172.195 116.553 171.898 116.325 171.651C116.098 171.394 115.821 171.191 115.494 171.042C115.168 170.894 114.802 170.82 114.396 170.82C113.99 170.82 113.624 170.894 113.298 171.042C112.981 171.191 112.709 171.394 112.482 171.651C112.254 171.898 112.076 172.195 111.947 172.541C111.829 172.878 111.769 173.239 111.769 173.625C111.769 174.01 111.829 174.376 111.947 174.723C112.076 175.059 112.254 175.356 112.482 175.613C112.709 175.86 112.981 176.058 113.298 176.207C113.624 176.345 113.99 176.414 114.396 176.414C114.802 176.414 115.168 176.345 115.494 176.207C115.821 176.058 116.098 175.86 116.325 175.613C116.553 175.356 116.726 175.059 116.845 174.723C116.973 174.376 117.037 174.01 117.037 173.625ZM121.316 177.097H120.307V165.878H121.316V177.097ZM128.394 172.615C128.394 172.012 128.236 171.562 127.919 171.265C127.603 170.968 127.143 170.82 126.539 170.82C126.124 170.82 125.738 170.894 125.382 171.042C125.025 171.191 124.724 171.389 124.476 171.636L123.912 170.968C124.199 170.681 124.575 170.444 125.04 170.256C125.515 170.068 126.049 169.974 126.643 169.974C127.019 169.974 127.37 170.028 127.697 170.137C128.023 170.236 128.31 170.389 128.557 170.597C128.805 170.805 128.998 171.067 129.136 171.384C129.275 171.7 129.344 172.071 129.344 172.497V175.539C129.344 175.806 129.354 176.083 129.374 176.37C129.393 176.657 129.423 176.899 129.463 177.097H128.557C128.528 176.929 128.503 176.746 128.483 176.548C128.463 176.35 128.453 176.157 128.453 175.969H128.424C128.107 176.434 127.746 176.771 127.34 176.978C126.945 177.176 126.465 177.275 125.901 177.275C125.634 177.275 125.357 177.236 125.07 177.156C124.793 177.087 124.536 176.968 124.298 176.8C124.071 176.632 123.878 176.414 123.72 176.147C123.571 175.88 123.497 175.554 123.497 175.168C123.497 174.634 123.631 174.213 123.898 173.907C124.175 173.59 124.541 173.357 124.996 173.209C125.451 173.051 125.97 172.952 126.554 172.912C127.148 172.863 127.761 172.838 128.394 172.838V172.615ZM128.097 173.625C127.682 173.625 127.261 173.644 126.836 173.684C126.42 173.714 126.04 173.783 125.693 173.892C125.357 173.991 125.08 174.139 124.862 174.337C124.645 174.535 124.536 174.797 124.536 175.123C124.536 175.371 124.58 175.578 124.669 175.747C124.768 175.915 124.897 176.053 125.055 176.162C125.213 176.261 125.387 176.335 125.575 176.385C125.772 176.424 125.97 176.444 126.168 176.444C126.524 176.444 126.841 176.385 127.118 176.266C127.395 176.137 127.627 175.969 127.815 175.761C128.003 175.544 128.147 175.297 128.246 175.019C128.345 174.742 128.394 174.451 128.394 174.144V173.625H128.097Z" fill="white"/>
</g>
<defs>
<linearGradient id="paint0_linear_11030_127" x1="-99.8641" y1="36.0359" x2="-50.1865" y2="225.693" gradientUnits="userSpaceOnUse">
<stop stop-color="#454C56"/>
<stop offset="1" stop-color="#262A31"/>
</linearGradient>
<linearGradient id="paint1_linear_11030_127" x1="-99.8641" y1="36.0359" x2="-50.1865" y2="225.693" gradientUnits="userSpaceOnUse">
<stop stop-color="#454C56"/>
<stop offset="1" stop-color="#262A31"/>
</linearGradient>
<linearGradient id="paint2_linear_11030_127" x1="140.417" y1="53.5113" x2="305.166" y2="98.9273" gradientUnits="userSpaceOnUse">
<stop stop-color="#454C56"/>
<stop offset="1" stop-color="#262A31"/>
</linearGradient>
<clipPath id="clip0_11030_127">
<rect width="327.619" height="205.475" fill="white"/>
</clipPath>
<clipPath id="clip1_11030_127">
<rect width="262.552" height="34.2459" fill="white" transform="translate(21.6888 94.7469)"/>
</clipPath>
</defs>
</svg>
