<svg width="328" height="207" viewBox="0 0 328 207" fill="none" xmlns="http://www.w3.org/2000/svg">
<g clip-path="url(#clip0_11030_126)">
<path fill-rule="evenodd" clip-rule="evenodd" d="M25.399 191.113C17.8336 191.113 11.7007 184.98 11.7007 177.415L11.7007 19.7563C11.7007 12.1909 17.8336 6.05794 25.399 6.05794L308.72 6.05794C316.286 6.05794 322.418 12.1909 322.418 19.7563V177.415C322.418 184.98 316.286 191.113 308.72 191.113L25.399 191.113Z" fill="#FF554F"/>
<path fill-rule="evenodd" clip-rule="evenodd" d="M25.399 6.05795C17.8336 6.05795 11.7007 12.1909 11.7007 19.7563L11.7007 81.3563L322.418 81.3563V19.7563C322.418 12.1909 316.286 6.05795 308.72 6.05795L25.399 6.05795Z" fill="#4C5980"/>
<rect y="4.43561" width="327.619" height="201.993" rx="20.5475" fill="#292929"/>
<rect y="0.952972" width="327.619" height="205.475" rx="20.5475" fill="#67BBFB"/>
<rect y="0.952972" width="327.619" height="205.475" rx="9.13223" fill="#67BBFB"/>
<mask id="mask0_11030_126" style="mask-type:luminance" maskUnits="userSpaceOnUse" x="0" y="0" width="328" height="207">
<rect y="0.952972" width="327.619" height="205.475" rx="5.70764" fill="white"/>
</mask>
<g mask="url(#mask0_11030_126)">
<path d="M155.34 16.9377C151.079 6.43573 156.143 -5.49306 166.657 -9.72365L212.654 -28.2317C223.196 -32.4732 235.218 -27.3699 239.49 -16.8406L330.89 208.457C335.151 218.959 330.087 230.888 319.573 235.119L273.576 253.627C263.035 257.868 251.012 252.765 246.74 242.236L155.34 16.9377Z" fill="#67BBFB"/>
<path opacity="0.05" d="M0.751336 226.756L139.976 170.736L176.709 261.282L37.4846 317.302L0.751336 226.756Z" fill="white"/>
<path opacity="0.05" d="M-118.99 176.688L74.8736 98.6827L119.021 207.504L-74.8424 285.509L-118.99 176.688Z" fill="white"/>
<path opacity="0.05" d="M223.418 25.3651L460.162 -69.8942L522.625 84.074L285.881 179.333L223.418 25.3651Z" fill="white"/>
<path opacity="0.05" d="M173.82 -17.0461L313.044 -73.0663L344.749 5.08458L205.525 61.1048L173.82 -17.0461Z" fill="white"/>
</g>
<path d="M30.8304 25.5373C30.5747 25.1842 30.2277 24.898 29.7893 24.6789C29.351 24.4475 28.8578 24.3318 28.3099 24.3318C28.0177 24.3318 27.7194 24.3745 27.4149 24.4597C27.1227 24.5328 26.8548 24.6606 26.6113 24.8433C26.3678 25.0137 26.1669 25.2329 26.0086 25.5008C25.8625 25.7565 25.7894 26.067 25.7894 26.4323C25.7894 26.7854 25.8564 27.0837 25.9903 27.3272C26.1364 27.5586 26.3252 27.7595 26.5565 27.9299C26.8 28.0882 27.0801 28.2283 27.3967 28.35C27.7254 28.4596 28.0725 28.5753 28.4378 28.6971C28.8761 28.831 29.3205 28.9832 29.7711 29.1537C30.2216 29.3241 30.6295 29.5494 30.9948 29.8295C31.3601 30.1095 31.6584 30.4626 31.8897 30.8888C32.1211 31.3028 32.2368 31.8325 32.2368 32.4778C32.2368 33.1475 32.1089 33.732 31.8532 34.2312C31.6097 34.7182 31.2809 35.1261 30.8669 35.4549C30.4529 35.7715 29.972 36.0089 29.424 36.1672C28.8883 36.3255 28.3343 36.4047 27.762 36.4047C26.9462 36.4047 26.1547 36.2464 25.3876 35.9298C24.6327 35.6132 24.0056 35.1444 23.5064 34.5234L24.9127 33.3362C25.2171 33.7868 25.625 34.152 26.1364 34.4321C26.6478 34.7122 27.2019 34.8522 27.7985 34.8522C28.1029 34.8522 28.4073 34.8096 28.7117 34.7243C29.0161 34.6391 29.2901 34.5052 29.5336 34.3225C29.7893 34.1399 29.9963 33.9146 30.1546 33.6467C30.3129 33.3667 30.3921 33.0318 30.3921 32.6422C30.3921 32.2525 30.3068 31.9299 30.1364 31.6742C29.9781 31.4063 29.7589 31.181 29.4788 30.9984C29.1988 30.8157 28.87 30.6635 28.4925 30.5418C28.1273 30.4078 27.7376 30.2739 27.3236 30.1399C26.9096 30.0182 26.5017 29.8721 26.0999 29.7016C25.6981 29.519 25.3389 29.2937 25.0223 29.0258C24.7057 28.7458 24.45 28.4048 24.2552 28.003C24.0604 27.6012 23.963 27.102 23.963 26.5053C23.963 25.86 24.0908 25.306 24.3465 24.8433C24.6144 24.3806 24.9553 23.997 25.3693 23.6926C25.7955 23.3882 26.2704 23.169 26.794 23.0351C27.3297 22.889 27.8655 22.8159 28.4012 22.8159C29.1562 22.8159 29.8624 22.9498 30.5199 23.2177C31.1774 23.4856 31.7071 23.8448 32.1089 24.2953L30.8304 25.5373ZM38.8389 28.8249H36.5376V33.3362C36.5376 33.8598 36.635 34.2373 36.8298 34.4686C37.0247 34.6878 37.3352 34.7974 37.7613 34.7974C37.9196 34.7974 38.0901 34.7791 38.2727 34.7426C38.4554 34.7061 38.6198 34.6513 38.7659 34.5782L38.8207 35.9846C38.6137 36.0576 38.3823 36.1124 38.1266 36.149C37.8831 36.1977 37.6274 36.222 37.3595 36.222C36.5437 36.222 35.9166 35.9968 35.4783 35.5462C35.0521 35.0957 34.839 34.4199 34.839 33.5189V28.8249H33.177V27.4185H34.839V24.9346H36.5376V27.4185H38.8389V28.8249ZM46.0005 30.4687C46.0005 29.8234 45.8056 29.3485 45.416 29.0441C45.0264 28.7275 44.5089 28.5692 43.8635 28.5692C43.3765 28.5692 42.9138 28.6666 42.4754 28.8614C42.0493 29.0441 41.6901 29.2815 41.3978 29.5737L40.4846 28.4779C40.9108 28.0761 41.4283 27.7595 42.0371 27.5281C42.6581 27.2968 43.3217 27.1811 44.0279 27.1811C44.6489 27.1811 45.1847 27.2724 45.6352 27.4551C46.0979 27.6255 46.4753 27.863 46.7676 28.1674C47.0598 28.4718 47.279 28.831 47.4251 29.245C47.5712 29.659 47.6443 30.1034 47.6443 30.5783V34.359C47.6443 34.6513 47.6504 34.9618 47.6625 35.2905C47.6869 35.6071 47.7234 35.8689 47.7721 36.0759H46.2196C46.1222 35.6619 46.0735 35.2479 46.0735 34.8339H46.0187C45.7021 35.2966 45.3003 35.6558 44.8133 35.9115C44.3384 36.1672 43.7722 36.2951 43.1147 36.2951C42.7737 36.2951 42.4145 36.2464 42.0371 36.149C41.6718 36.0637 41.3369 35.9176 41.0325 35.7106C40.7281 35.5036 40.4724 35.2296 40.2654 34.8887C40.0706 34.5478 39.9732 34.1277 39.9732 33.6285C39.9732 32.9709 40.1497 32.4534 40.5029 32.076C40.856 31.6863 41.3187 31.3941 41.891 31.1993C42.4632 30.9923 43.1086 30.8583 43.827 30.7975C44.5454 30.7366 45.2699 30.7061 46.0005 30.7061V30.4687ZM45.5804 31.9481C45.1542 31.9481 44.7098 31.9664 44.2471 32.0029C43.7966 32.0395 43.3826 32.1125 43.0051 32.2221C42.6398 32.3317 42.3354 32.4961 42.0919 32.7152C41.8483 32.9344 41.7266 33.2266 41.7266 33.5919C41.7266 33.8476 41.7753 34.0607 41.8727 34.2312C41.9823 34.4017 42.1223 34.5417 42.2928 34.6513C42.4632 34.7609 42.652 34.84 42.859 34.8887C43.066 34.9252 43.2791 34.9435 43.4982 34.9435C44.3019 34.9435 44.9168 34.7061 45.3429 34.2312C45.7813 33.7441 46.0005 33.1353 46.0005 32.4047V31.9481H45.5804ZM52.0641 27.4185C52.0885 27.6377 52.1067 27.8873 52.1189 28.1674C52.1311 28.4353 52.1372 28.6605 52.1372 28.8432H52.192C52.3016 28.6118 52.4477 28.3987 52.6303 28.2039C52.8251 27.9969 53.0443 27.8204 53.2878 27.6742C53.5314 27.516 53.7992 27.3942 54.0915 27.309C54.3837 27.2237 54.6881 27.1811 55.0047 27.1811C55.5648 27.1811 56.0458 27.2785 56.4476 27.4733C56.8494 27.656 57.1843 27.9056 57.4521 28.2222C57.72 28.5388 57.9148 28.9101 58.0366 29.3363C58.1705 29.7625 58.2375 30.2191 58.2375 30.7061V36.0759H56.5207V31.2723C56.5207 30.9192 56.4902 30.5844 56.4293 30.2678C56.3806 29.9512 56.2832 29.6712 56.1371 29.4276C55.991 29.1841 55.7901 28.9893 55.5344 28.8432C55.2787 28.6971 54.9499 28.624 54.5481 28.624C53.8662 28.624 53.3061 28.8858 52.8678 29.4094C52.4416 29.9208 52.2285 30.6087 52.2285 31.4733V36.0759H50.5116V29.2815C50.5116 29.0502 50.5056 28.7518 50.4934 28.3866C50.4812 28.0213 50.4629 27.6986 50.4386 27.4185H52.0641ZM68.0461 34.7061C67.7173 35.2296 67.2668 35.6315 66.6945 35.9115C66.1344 36.1794 65.5439 36.3133 64.9229 36.3133C64.2532 36.3133 63.6504 36.1977 63.1147 35.9663C62.5789 35.7228 62.1223 35.394 61.7449 34.98C61.3674 34.566 61.0752 34.079 60.8682 33.5189C60.6612 32.9588 60.5577 32.3621 60.5577 31.729C60.5577 31.0958 60.6612 30.5052 60.8682 29.9573C61.0752 29.3972 61.3674 28.9101 61.7449 28.4961C62.1345 28.0822 62.5972 27.7595 63.133 27.5281C63.6687 27.2968 64.2593 27.1811 64.9046 27.1811C65.6108 27.1811 66.2257 27.3333 66.7493 27.6377C67.2729 27.9299 67.6869 28.2891 67.9913 28.7153H68.0278V22.268H69.7447V36.0759H68.0826V34.7061H68.0461ZM62.3476 31.729C62.3476 32.1308 62.4085 32.5204 62.5302 32.8979C62.652 33.2753 62.8346 33.6102 63.0782 33.9024C63.3217 34.1947 63.62 34.4321 63.9731 34.6147C64.3262 34.7852 64.7402 34.8704 65.2151 34.8704C65.6535 34.8704 66.0492 34.7852 66.4023 34.6147C66.7676 34.4443 67.0781 34.219 67.3338 33.939C67.5895 33.6467 67.7843 33.3119 67.9182 32.9344C68.0644 32.5569 68.1374 32.1612 68.1374 31.7472C68.1374 31.3332 68.0644 30.9375 67.9182 30.56C67.7843 30.1826 67.5895 29.8477 67.3338 29.5555C67.0781 29.2633 66.7676 29.0319 66.4023 28.8614C66.0492 28.691 65.6535 28.6057 65.2151 28.6057C64.7402 28.6057 64.3262 28.691 63.9731 28.8614C63.62 29.0319 63.3217 29.2633 63.0782 29.5555C62.8346 29.8477 62.652 30.1826 62.5302 30.56C62.4085 30.9375 62.3476 31.3271 62.3476 31.729ZM78.1238 30.4687C78.1238 29.8234 77.929 29.3485 77.5393 29.0441C77.1497 28.7275 76.6322 28.5692 75.9869 28.5692C75.4998 28.5692 75.0371 28.6666 74.5988 28.8614C74.1726 29.0441 73.8134 29.2815 73.5212 29.5737L72.6079 28.4779C73.0341 28.0761 73.5516 27.7595 74.1604 27.5281C74.7814 27.2968 75.445 27.1811 76.1512 27.1811C76.7722 27.1811 77.308 27.2724 77.7585 27.4551C78.2212 27.6255 78.5987 27.863 78.8909 28.1674C79.1831 28.4718 79.4023 28.831 79.5484 29.245C79.6945 29.659 79.7676 30.1034 79.7676 30.5783V34.359C79.7676 34.6513 79.7737 34.9618 79.7859 35.2905C79.8102 35.6071 79.8467 35.8689 79.8955 36.0759H78.343C78.2456 35.6619 78.1969 35.2479 78.1969 34.8339H78.1421C77.8255 35.2966 77.4237 35.6558 76.9366 35.9115C76.4617 36.1672 75.8955 36.2951 75.238 36.2951C74.8971 36.2951 74.5379 36.2464 74.1604 36.149C73.7951 36.0637 73.4603 35.9176 73.1559 35.7106C72.8515 35.5036 72.5958 35.2296 72.3888 34.8887C72.1939 34.5478 72.0965 34.1277 72.0965 33.6285C72.0965 32.9709 72.2731 32.4534 72.6262 32.076C72.9793 31.6863 73.442 31.3941 74.0143 31.1993C74.5866 30.9923 75.2319 30.8583 75.9503 30.7975C76.6687 30.7366 77.3932 30.7061 78.1238 30.7061V30.4687ZM77.7037 31.9481C77.2775 31.9481 76.8331 31.9664 76.3704 32.0029C75.9199 32.0395 75.5059 32.1125 75.1284 32.2221C74.7631 32.3317 74.4587 32.4961 74.2152 32.7152C73.9717 32.9344 73.8499 33.2266 73.8499 33.5919C73.8499 33.8476 73.8986 34.0607 73.996 34.2312C74.1056 34.4017 74.2456 34.5417 74.4161 34.6513C74.5866 34.7609 74.7753 34.84 74.9823 34.8887C75.1893 34.9252 75.4024 34.9435 75.6216 34.9435C76.4252 34.9435 77.0401 34.7061 77.4663 34.2312C77.9046 33.7441 78.1238 33.1353 78.1238 32.4047V31.9481H77.7037ZM82.635 29.2815C82.635 29.0502 82.6289 28.7518 82.6167 28.3866C82.6045 28.0213 82.5863 27.6986 82.5619 27.4185H84.1875C84.2118 27.6377 84.2301 27.8934 84.2422 28.1856C84.2544 28.4657 84.2605 28.6971 84.2605 28.8797H84.3153C84.5588 28.3683 84.9119 27.9604 85.3746 27.656C85.8495 27.3394 86.3792 27.1811 86.9637 27.1811C87.2315 27.1811 87.4568 27.2055 87.6394 27.2542L87.5664 28.8432C87.3229 28.7823 87.0611 28.7518 86.781 28.7518C86.367 28.7518 86.0078 28.831 85.7034 28.9893C85.399 29.1354 85.1433 29.3363 84.9363 29.592C84.7415 29.8477 84.5954 30.146 84.498 30.487C84.4005 30.8157 84.3518 31.1628 84.3518 31.528V36.0759H82.635V29.2815ZM95.8352 34.7061C95.5064 35.2296 95.0559 35.6315 94.4836 35.9115C93.9235 36.1794 93.333 36.3133 92.712 36.3133C92.0423 36.3133 91.4395 36.1977 90.9038 35.9663C90.368 35.7228 89.9114 35.394 89.534 34.98C89.1565 34.566 88.8643 34.079 88.6573 33.5189C88.4503 32.9588 88.3468 32.3621 88.3468 31.729C88.3468 31.0958 88.4503 30.5052 88.6573 29.9573C88.8643 29.3972 89.1565 28.9101 89.534 28.4961C89.9236 28.0822 90.3863 27.7595 90.9221 27.5281C91.4578 27.2968 92.0484 27.1811 92.6937 27.1811C93.3999 27.1811 94.0148 27.3333 94.5384 27.6377C95.062 27.9299 95.476 28.2891 95.7804 28.7153H95.8169V22.268H97.5338V36.0759H95.8717V34.7061H95.8352ZM90.1367 31.729C90.1367 32.1308 90.1976 32.5204 90.3193 32.8979C90.4411 33.2753 90.6237 33.6102 90.8673 33.9024C91.1108 34.1947 91.4091 34.4321 91.7622 34.6147C92.1153 34.7852 92.5293 34.8704 93.0042 34.8704C93.4425 34.8704 93.8383 34.7852 94.1914 34.6147C94.5567 34.4443 94.8672 34.219 95.1229 33.939C95.3786 33.6467 95.5734 33.3119 95.7073 32.9344C95.8535 32.5569 95.9265 32.1612 95.9265 31.7472C95.9265 31.3332 95.8535 30.9375 95.7073 30.56C95.5734 30.1826 95.3786 29.8477 95.1229 29.5555C94.8672 29.2633 94.5567 29.0319 94.1914 28.8614C93.8383 28.691 93.4425 28.6057 93.0042 28.6057C92.5293 28.6057 92.1153 28.691 91.7622 28.8614C91.4091 29.0319 91.1108 29.2633 90.8673 29.5555C90.6237 29.8477 90.4411 30.1826 90.3193 30.56C90.1976 30.9375 90.1367 31.3271 90.1367 31.729Z" fill="white"/>
<g clip-path="url(#clip1_11030_126)">
<path opacity="0.49814" d="M29.301 111.82C29.301 112.682 29.0184 113.395 28.453 113.96C27.8967 114.526 27.1878 114.808 26.3263 114.808C25.4649 114.808 24.7515 114.526 24.1862 113.96C23.6298 113.395 23.3517 112.682 23.3517 111.82C23.3517 110.959 23.6298 110.25 24.1862 109.693C24.7515 109.137 25.4649 108.859 26.3263 108.859C27.1878 108.859 27.8967 109.137 28.453 109.693C29.0184 110.25 29.301 110.959 29.301 111.82ZM40.8606 111.82C40.8606 112.682 40.5779 113.395 40.0126 113.96C39.4562 114.526 38.7473 114.808 37.8859 114.808C37.0244 114.808 36.3111 114.526 35.7457 113.96C35.1894 113.395 34.9112 112.682 34.9112 111.82C34.9112 110.959 35.1894 110.25 35.7457 109.693C36.3111 109.137 37.0244 108.859 37.8859 108.859C38.7473 108.859 39.4562 109.137 40.0126 109.693C40.5779 110.25 40.8606 110.959 40.8606 111.82ZM52.4201 111.82C52.4201 112.682 52.1375 113.395 51.5721 113.96C51.0158 114.526 50.3069 114.808 49.4454 114.808C48.584 114.808 47.8706 114.526 47.3053 113.96C46.7489 113.395 46.4707 112.682 46.4707 111.82C46.4707 110.959 46.7489 110.25 47.3053 109.693C47.8706 109.137 48.584 108.859 49.4454 108.859C50.3069 108.859 51.0158 109.137 51.5721 109.693C52.1375 110.25 52.4201 110.959 52.4201 111.82ZM63.9797 111.82C63.9797 112.682 63.697 113.395 63.1317 113.96C62.5753 114.526 61.8664 114.808 61.005 114.808C60.1435 114.808 59.4301 114.526 58.8648 113.96C58.3085 113.395 58.0303 112.682 58.0303 111.82C58.0303 110.959 58.3085 110.25 58.8648 109.693C59.4301 109.137 60.1435 108.859 61.005 108.859C61.8664 108.859 62.5753 109.137 63.1317 109.693C63.697 110.25 63.9797 110.959 63.9797 111.82Z" fill="white"/>
<path opacity="0.49814" d="M102.359 111.82C102.359 112.682 102.076 113.395 101.511 113.96C100.954 114.526 100.245 114.808 99.384 114.808C98.5226 114.808 97.8092 114.526 97.2439 113.96C96.6875 113.395 96.4093 112.682 96.4093 111.82C96.4093 110.959 96.6875 110.25 97.2439 109.693C97.8092 109.137 98.5226 108.859 99.384 108.859C100.245 108.859 100.954 109.137 101.511 109.693C102.076 110.25 102.359 110.959 102.359 111.82ZM113.918 111.82C113.918 112.682 113.636 113.395 113.07 113.96C112.514 114.526 111.805 114.808 110.944 114.808C110.082 114.808 109.369 114.526 108.803 113.96C108.247 113.395 107.969 112.682 107.969 111.82C107.969 110.959 108.247 110.25 108.803 109.693C109.369 109.137 110.082 108.859 110.944 108.859C111.805 108.859 112.514 109.137 113.07 109.693C113.636 110.25 113.918 110.959 113.918 111.82ZM125.478 111.82C125.478 112.682 125.195 113.395 124.63 113.96C124.073 114.526 123.365 114.808 122.503 114.808C121.642 114.808 120.928 114.526 120.363 113.96C119.807 113.395 119.528 112.682 119.528 111.82C119.528 110.959 119.807 110.25 120.363 109.693C120.928 109.137 121.642 108.859 122.503 108.859C123.365 108.859 124.073 109.137 124.63 109.693C125.195 110.25 125.478 110.959 125.478 111.82ZM137.037 111.82C137.037 112.682 136.755 113.395 136.189 113.96C135.633 114.526 134.924 114.808 134.063 114.808C133.201 114.808 132.488 114.526 131.922 113.96C131.366 113.395 131.088 112.682 131.088 111.82C131.088 110.959 131.366 110.25 131.922 109.693C132.488 109.137 133.201 108.859 134.063 108.859C134.924 108.859 135.633 109.137 136.189 109.693C136.755 110.25 137.037 110.959 137.037 111.82Z" fill="white"/>
<path opacity="0.49814" d="M175.416 111.82C175.416 112.682 175.134 113.395 174.568 113.96C174.012 114.526 173.303 114.808 172.442 114.808C171.58 114.808 170.867 114.526 170.302 113.96C169.745 113.395 169.467 112.682 169.467 111.82C169.467 110.959 169.745 110.25 170.302 109.693C170.867 109.137 171.58 108.859 172.442 108.859C173.303 108.859 174.012 109.137 174.568 109.693C175.134 110.25 175.416 110.959 175.416 111.82ZM186.976 111.82C186.976 112.682 186.693 113.395 186.128 113.96C185.572 114.526 184.863 114.808 184.001 114.808C183.14 114.808 182.426 114.526 181.861 113.96C181.305 113.395 181.027 112.682 181.027 111.82C181.027 110.959 181.305 110.25 181.861 109.693C182.426 109.137 183.14 108.859 184.001 108.859C184.863 108.859 185.572 109.137 186.128 109.693C186.693 110.25 186.976 110.959 186.976 111.82ZM198.535 111.82C198.535 112.682 198.253 113.395 197.687 113.96C197.131 114.526 196.422 114.808 195.561 114.808C194.699 114.808 193.986 114.526 193.421 113.96C192.864 113.395 192.586 112.682 192.586 111.82C192.586 110.959 192.864 110.25 193.421 109.693C193.986 109.137 194.699 108.859 195.561 108.859C196.422 108.859 197.131 109.137 197.687 109.693C198.253 110.25 198.535 110.959 198.535 111.82ZM210.095 111.82C210.095 112.682 209.812 113.395 209.247 113.96C208.691 114.526 207.982 114.808 207.12 114.808C206.259 114.808 205.545 114.526 204.98 113.96C204.424 113.395 204.146 112.682 204.146 111.82C204.146 110.959 204.424 110.25 204.98 109.693C205.545 109.137 206.259 108.859 207.12 108.859C207.982 108.859 208.691 109.137 209.247 109.693C209.812 110.25 210.095 110.959 210.095 111.82Z" fill="white"/>
<path d="M245.02 110.662H245.554C245.944 110.662 246.312 110.622 246.656 110.542C247.001 110.461 247.3 110.335 247.552 110.163C247.816 109.979 248.023 109.744 248.172 109.456C248.322 109.169 248.396 108.825 248.396 108.423C248.396 108.078 248.333 107.768 248.207 107.492C248.081 107.205 247.903 106.964 247.673 106.769C247.455 106.562 247.196 106.407 246.898 106.304C246.61 106.189 246.306 106.131 245.984 106.131C245.468 106.131 245.008 106.252 244.606 106.493C244.216 106.734 243.9 107.09 243.658 107.561L242.607 107.01C242.987 106.355 243.469 105.873 244.055 105.563C244.641 105.241 245.307 105.08 246.053 105.08C246.536 105.08 246.989 105.155 247.414 105.304C247.851 105.442 248.23 105.649 248.551 105.924C248.885 106.2 249.143 106.545 249.327 106.958C249.522 107.36 249.62 107.825 249.62 108.354C249.62 109.077 249.419 109.686 249.017 110.18C248.615 110.662 248.109 110.984 247.501 111.145V111.179C248.201 111.329 248.787 111.667 249.258 112.196C249.729 112.713 249.964 113.385 249.964 114.212C249.964 114.797 249.855 115.32 249.637 115.779C249.43 116.227 249.149 116.612 248.793 116.934C248.437 117.244 248.017 117.479 247.535 117.64C247.064 117.812 246.564 117.899 246.036 117.899C245.14 117.899 244.359 117.686 243.693 117.261C243.027 116.825 242.521 116.204 242.177 115.4L243.348 114.97C243.555 115.555 243.9 116.015 244.382 116.348C244.864 116.67 245.416 116.83 246.036 116.83C246.381 116.83 246.714 116.773 247.035 116.658C247.368 116.532 247.656 116.359 247.897 116.141C248.149 115.912 248.35 115.636 248.5 115.314C248.649 114.993 248.724 114.625 248.724 114.212C248.724 113.752 248.632 113.367 248.448 113.057C248.276 112.736 248.04 112.477 247.742 112.282C247.443 112.087 247.104 111.949 246.725 111.868C246.346 111.777 245.956 111.731 245.554 111.731H245.02V110.662ZM260.023 113.557H261.815V114.642H260.023V117.588H258.817V114.642H253.235V113.436L258.403 105.39H260.023V113.557ZM258.817 106.786H258.783L254.527 113.557H258.817V106.786ZM272.27 106.527L267.36 117.588H265.964L271.012 106.493H265.034V105.39H272.27V106.527ZM278.331 110.714L278.366 110.749C278.55 110.611 278.808 110.502 279.141 110.421C279.474 110.341 279.796 110.301 280.106 110.301C280.634 110.301 281.123 110.393 281.57 110.576C282.03 110.76 282.426 111.019 282.759 111.352C283.092 111.673 283.351 112.069 283.535 112.54C283.73 113 283.827 113.505 283.827 114.057C283.827 114.631 283.73 115.153 283.535 115.624C283.339 116.095 283.064 116.497 282.708 116.83C282.352 117.163 281.932 117.422 281.45 117.606C280.967 117.801 280.439 117.899 279.865 117.899C279.291 117.899 278.762 117.801 278.28 117.606C277.797 117.422 277.378 117.163 277.022 116.83C276.666 116.497 276.39 116.095 276.195 115.624C276 115.153 275.902 114.631 275.902 114.057C275.902 113.425 276.011 112.839 276.23 112.299C276.448 111.759 276.706 111.242 277.005 110.749L280.33 105.39H281.76L278.331 110.714ZM277.143 114.057C277.143 114.459 277.206 114.832 277.332 115.176C277.47 115.51 277.66 115.802 277.901 116.055C278.142 116.296 278.429 116.492 278.762 116.641C279.095 116.779 279.463 116.848 279.865 116.848C280.267 116.848 280.634 116.779 280.967 116.641C281.301 116.492 281.588 116.296 281.829 116.055C282.07 115.802 282.254 115.51 282.38 115.176C282.518 114.832 282.587 114.459 282.587 114.057C282.587 113.666 282.524 113.304 282.397 112.971C282.271 112.627 282.087 112.334 281.846 112.092C281.616 111.84 281.329 111.644 280.985 111.507C280.652 111.369 280.278 111.3 279.865 111.3C279.451 111.3 279.072 111.369 278.728 111.507C278.395 111.644 278.107 111.84 277.866 112.092C277.637 112.334 277.459 112.627 277.332 112.971C277.206 113.304 277.143 113.666 277.143 114.057Z" fill="white"/>
</g>
<path d="M29.4195 176.24H29.4343L32.9514 167.543H34.5837V178.05H33.5153V168.924H33.4856L29.6866 178.05H29.1227L25.3237 168.924H25.294V178.05H24.2255V167.543H25.8579L29.4195 176.24ZM42.356 178.05C42.3362 177.862 42.3214 177.654 42.3115 177.427C42.3016 177.199 42.2967 177.011 42.2967 176.863H42.267C42.0691 177.268 41.7476 177.6 41.3024 177.857C40.8572 178.104 40.3873 178.228 39.8926 178.228C39.0121 178.228 38.3492 177.966 37.9041 177.442C37.4688 176.917 37.2511 176.225 37.2511 175.364V171.105H38.2602V174.949C38.2602 175.315 38.2899 175.646 38.3492 175.943C38.4086 176.24 38.5075 176.497 38.646 176.714C38.7944 176.922 38.9874 177.085 39.2248 177.204C39.4721 177.323 39.7788 177.382 40.1449 177.382C40.412 177.382 40.6692 177.328 40.9165 177.219C41.1738 177.11 41.4013 176.947 41.5992 176.729C41.797 176.502 41.9553 176.22 42.0741 175.883C42.1928 175.537 42.2521 175.132 42.2521 174.667V171.105H43.2612V176.522C43.2612 176.71 43.2662 176.952 43.2761 177.249C43.286 177.546 43.3008 177.813 43.3206 178.05H42.356ZM49.6284 172.752C49.48 172.465 49.2524 172.233 48.9457 172.055C48.6489 171.867 48.3076 171.773 47.9218 171.773C47.7437 171.773 47.5656 171.793 47.3875 171.832C47.2095 171.872 47.0512 171.936 46.9127 172.025C46.7742 172.114 46.6604 172.228 46.5714 172.366C46.4922 172.505 46.4526 172.668 46.4526 172.856C46.4526 173.183 46.5862 173.435 46.8533 173.613C47.1204 173.781 47.5409 173.925 48.1147 174.043C48.9358 174.211 49.5393 174.459 49.9252 174.785C50.3209 175.102 50.5188 175.532 50.5188 176.076C50.5188 176.472 50.4396 176.808 50.2813 177.085C50.1329 177.353 49.9351 177.575 49.6877 177.753C49.4404 177.921 49.1584 178.04 48.8419 178.109C48.5352 178.189 48.2235 178.228 47.9069 178.228C47.3826 178.228 46.8731 178.119 46.3784 177.902C45.8838 177.684 45.4781 177.343 45.1616 176.878L45.9629 176.284C46.141 176.591 46.4032 176.848 46.7494 177.056C47.0957 177.264 47.4766 177.367 47.8921 177.367C48.1098 177.367 48.3175 177.348 48.5154 177.308C48.7132 177.268 48.8864 177.199 49.0348 177.1C49.1832 177.001 49.3019 176.878 49.3909 176.729C49.48 176.571 49.5245 176.378 49.5245 176.151C49.5245 175.785 49.3464 175.512 48.9903 175.334C48.644 175.146 48.1394 174.973 47.4766 174.815C47.2688 174.766 47.0462 174.706 46.8088 174.637C46.5812 174.558 46.3685 174.449 46.1707 174.31C45.9728 174.162 45.8096 173.979 45.681 173.761C45.5523 173.544 45.488 173.272 45.488 172.945C45.488 172.589 45.5573 172.287 45.6958 172.04C45.8343 171.783 46.0173 171.575 46.2449 171.417C46.4823 171.248 46.7494 171.125 47.0462 171.046C47.343 170.966 47.6497 170.927 47.9663 170.927C48.4511 170.927 48.921 171.036 49.3761 171.253C49.8312 171.471 50.1725 171.778 50.4 172.173L49.6284 172.752ZM56.9049 173.568C56.9049 172.965 56.7466 172.515 56.43 172.218C56.1134 171.921 55.6534 171.773 55.0499 171.773C54.6344 171.773 54.2486 171.847 53.8924 171.995C53.5362 172.144 53.2345 172.342 52.9872 172.589L52.4232 171.921C52.7102 171.634 53.0861 171.397 53.5511 171.209C54.026 171.021 54.5602 170.927 55.1538 170.927C55.5297 170.927 55.8809 170.981 56.2074 171.09C56.5339 171.189 56.8208 171.342 57.0681 171.55C57.3155 171.758 57.5084 172.02 57.6469 172.337C57.7854 172.653 57.8546 173.024 57.8546 173.45V176.492C57.8546 176.759 57.8645 177.036 57.8843 177.323C57.9041 177.61 57.9338 177.852 57.9734 178.05H57.0681C57.0384 177.882 57.0137 177.699 56.9939 177.501C56.9741 177.303 56.9642 177.11 56.9642 176.922H56.9346C56.618 177.387 56.2569 177.724 55.8513 177.931C55.4555 178.129 54.9757 178.228 54.4118 178.228C54.1447 178.228 53.8677 178.189 53.5808 178.109C53.3037 178.04 53.0465 177.921 52.8091 177.753C52.5815 177.585 52.3886 177.367 52.2303 177.1C52.0819 176.833 52.0077 176.507 52.0077 176.121C52.0077 175.587 52.1413 175.166 52.4084 174.859C52.6854 174.543 53.0515 174.31 53.5066 174.162C53.9616 174.004 54.481 173.905 55.0647 173.865C55.6583 173.816 56.2717 173.791 56.9049 173.791V173.568ZM56.6081 174.578C56.1926 174.578 55.7721 174.597 55.3467 174.637C54.9312 174.667 54.5503 174.736 54.204 174.845C53.8677 174.944 53.5907 175.092 53.373 175.29C53.1553 175.488 53.0465 175.75 53.0465 176.076C53.0465 176.324 53.091 176.531 53.1801 176.7C53.279 176.868 53.4076 177.006 53.5659 177.115C53.7242 177.214 53.8973 177.288 54.0853 177.338C54.2832 177.377 54.481 177.397 54.6789 177.397C55.0351 177.397 55.3516 177.338 55.6287 177.219C55.9057 177.09 56.1382 176.922 56.3261 176.714C56.5141 176.497 56.6576 176.249 56.7565 175.972C56.8554 175.695 56.9049 175.404 56.9049 175.097V174.578H56.6081ZM63.8886 178.05H62.7162L67.2572 167.543H68.296L72.8073 178.05H71.6201L70.4626 175.29H65.0312L63.8886 178.05ZM65.4319 174.31H70.0619L67.7469 168.731L65.4319 174.31ZM76.5965 176.967H76.6262L78.7779 171.105H79.8761L76.4184 179.846C76.2106 180.38 75.9435 180.805 75.617 181.122C75.3005 181.448 74.8404 181.612 74.2369 181.612C73.9302 181.612 73.6285 181.582 73.3317 181.523L73.4356 180.603C73.673 180.682 73.9204 180.721 74.1776 180.721C74.5238 180.721 74.7959 180.612 74.9938 180.395C75.1916 180.187 75.3648 179.885 75.5132 179.49L76.0771 178.035L73.1091 171.105H74.2369L76.5965 176.967ZM88.3538 174.578C88.3538 175.102 88.2598 175.587 88.0719 176.032C87.8938 176.477 87.6415 176.863 87.315 177.189C86.9886 177.516 86.5978 177.773 86.1427 177.961C85.6876 178.139 85.188 178.228 84.6439 178.228C84.1096 178.228 83.615 178.139 83.1599 177.961C82.7048 177.773 82.314 177.516 81.9875 177.189C81.661 176.863 81.4038 176.477 81.2159 176.032C81.0378 175.587 80.9487 175.102 80.9487 174.578C80.9487 174.053 81.0378 173.568 81.2159 173.123C81.4038 172.678 81.661 172.292 81.9875 171.966C82.314 171.639 82.7048 171.387 83.1599 171.209C83.615 171.021 84.1096 170.927 84.6439 170.927C85.188 170.927 85.6876 171.021 86.1427 171.209C86.5978 171.387 86.9886 171.639 87.315 171.966C87.6415 172.292 87.8938 172.678 88.0719 173.123C88.2598 173.568 88.3538 174.053 88.3538 174.578ZM87.2854 174.578C87.2854 174.192 87.2211 173.831 87.0924 173.494C86.9737 173.148 86.8006 172.851 86.573 172.604C86.3455 172.347 86.0685 172.144 85.742 171.995C85.4155 171.847 85.0495 171.773 84.6439 171.773C84.2382 171.773 83.8722 171.847 83.5457 171.995C83.2291 172.144 82.9571 172.347 82.7295 172.604C82.502 172.851 82.3239 173.148 82.1953 173.494C82.0766 173.831 82.0172 174.192 82.0172 174.578C82.0172 174.963 82.0766 175.329 82.1953 175.676C82.3239 176.012 82.502 176.309 82.7295 176.566C82.9571 176.813 83.2291 177.011 83.5457 177.16C83.8722 177.298 84.2382 177.367 84.6439 177.367C85.0495 177.367 85.4155 177.298 85.742 177.16C86.0685 177.011 86.3455 176.813 86.573 176.566C86.8006 176.309 86.9737 176.012 87.0924 175.676C87.2211 175.329 87.2854 174.963 87.2854 174.578ZM91.5196 172.292C91.7175 171.887 92.0192 171.56 92.4248 171.313C92.8403 171.056 93.3004 170.927 93.8049 170.927C93.9929 170.927 94.1858 170.947 94.3837 170.986C94.5915 171.026 94.7893 171.105 94.9773 171.224C95.1752 171.333 95.3532 171.481 95.5115 171.669C95.6797 171.857 95.8232 172.099 95.9419 172.396C96.1793 171.921 96.5008 171.56 96.9065 171.313C97.322 171.056 97.8117 170.927 98.3756 170.927C99.2561 170.927 99.914 171.189 100.349 171.713C100.795 172.238 101.017 172.93 101.017 173.791V178.05H100.008V174.207C100.008 173.474 99.8695 172.886 99.5925 172.441C99.3254 171.995 98.8653 171.773 98.2124 171.773C97.8463 171.773 97.5347 171.847 97.2775 171.995C97.0301 172.144 96.8273 172.342 96.669 172.589C96.5206 172.826 96.4118 173.098 96.3426 173.405C96.2733 173.712 96.2387 174.028 96.2387 174.355V178.05H95.2296V173.999C95.2296 173.662 95.2048 173.356 95.1554 173.079C95.1059 172.802 95.0169 172.569 94.8882 172.381C94.7695 172.183 94.6013 172.035 94.3837 171.936C94.166 171.827 93.889 171.773 93.5527 171.773C93.3152 171.773 93.0728 171.827 92.8255 171.936C92.5881 172.045 92.3704 172.213 92.1726 172.441C91.9846 172.658 91.8312 172.94 91.7125 173.286C91.5938 173.623 91.5344 174.024 91.5344 174.488V178.05H90.5253V172.634C90.5253 172.446 90.5204 172.203 90.5105 171.906C90.5006 171.61 90.4858 171.342 90.466 171.105H91.4306C91.4503 171.293 91.4652 171.501 91.4751 171.728C91.485 171.956 91.4899 172.144 91.4899 172.292H91.5196ZM104.65 178.05H103.641V171.105H104.65V178.05ZM104.858 168.434C104.858 168.642 104.784 168.815 104.635 168.953C104.487 169.082 104.324 169.146 104.146 169.146C103.967 169.146 103.804 169.082 103.656 168.953C103.507 168.815 103.433 168.642 103.433 168.434C103.433 168.226 103.507 168.058 103.656 167.929C103.804 167.791 103.967 167.722 104.146 167.722C104.324 167.722 104.487 167.791 104.635 167.929C104.784 168.058 104.858 168.226 104.858 168.434ZM113.049 176.878C112.753 177.323 112.367 177.659 111.892 177.887C111.417 178.114 110.927 178.228 110.423 178.228C109.879 178.228 109.384 178.134 108.939 177.946C108.504 177.758 108.128 177.501 107.811 177.175C107.504 176.848 107.262 176.462 107.084 176.017C106.916 175.572 106.832 175.092 106.832 174.578C106.832 174.063 106.916 173.583 107.084 173.138C107.262 172.693 107.504 172.307 107.811 171.981C108.128 171.654 108.504 171.397 108.939 171.209C109.384 171.021 109.879 170.927 110.423 170.927C110.927 170.927 111.417 171.046 111.892 171.283C112.367 171.511 112.753 171.852 113.049 172.307H113.079V166.831H114.088V178.05H113.079V176.878H113.049ZM107.9 174.578C107.9 174.963 107.959 175.329 108.078 175.676C108.197 176.012 108.365 176.309 108.583 176.566C108.81 176.813 109.087 177.011 109.414 177.16C109.74 177.298 110.111 177.367 110.527 177.367C110.913 177.367 111.269 177.298 111.595 177.16C111.922 177.011 112.204 176.813 112.441 176.566C112.678 176.319 112.862 176.027 112.99 175.691C113.129 175.344 113.198 174.973 113.198 174.578C113.198 174.182 113.129 173.816 112.99 173.479C112.862 173.133 112.678 172.836 112.441 172.589C112.204 172.332 111.922 172.134 111.595 171.995C111.269 171.847 110.913 171.773 110.527 171.773C110.111 171.773 109.74 171.847 109.414 171.995C109.087 172.144 108.81 172.347 108.583 172.604C108.365 172.851 108.197 173.148 108.078 173.494C107.959 173.831 107.9 174.192 107.9 174.578ZM122.083 174.043C122.053 173.39 121.84 172.851 121.445 172.426C121.059 171.99 120.505 171.773 119.783 171.773C119.446 171.773 119.135 171.837 118.848 171.966C118.561 172.084 118.309 172.253 118.091 172.47C117.873 172.678 117.7 172.92 117.571 173.197C117.443 173.465 117.369 173.747 117.349 174.043H122.083ZM123.107 174.37C123.107 174.439 123.107 174.513 123.107 174.592C123.107 174.672 123.102 174.756 123.092 174.845H117.334C117.344 175.191 117.413 175.517 117.542 175.824C117.67 176.131 117.848 176.398 118.076 176.625C118.304 176.853 118.571 177.036 118.877 177.175C119.184 177.303 119.515 177.367 119.872 177.367C120.396 177.367 120.846 177.249 121.222 177.011C121.608 176.764 121.9 176.482 122.098 176.165L122.854 176.759C122.439 177.283 121.979 177.659 121.474 177.887C120.98 178.114 120.445 178.228 119.872 178.228C119.357 178.228 118.877 178.139 118.432 177.961C117.997 177.773 117.621 177.516 117.304 177.189C116.988 176.863 116.735 176.477 116.548 176.032C116.369 175.587 116.28 175.102 116.28 174.578C116.28 174.053 116.369 173.568 116.548 173.123C116.726 172.678 116.973 172.292 117.29 171.966C117.606 171.639 117.977 171.387 118.402 171.209C118.828 171.021 119.288 170.927 119.783 170.927C120.327 170.927 120.807 171.021 121.222 171.209C121.638 171.387 121.984 171.634 122.261 171.951C122.538 172.258 122.746 172.619 122.884 173.034C123.033 173.45 123.107 173.895 123.107 174.37Z" fill="white"/>
</g>
<defs>
<clipPath id="clip0_11030_126">
<rect width="327.619" height="205.475" fill="white" transform="translate(0 0.952972)"/>
</clipPath>
<clipPath id="clip1_11030_126">
<rect width="262.552" height="34.2459" fill="white" transform="translate(21.6891 95.6999)"/>
</clipPath>
</defs>
</svg>
