<svg width="138" height="41" viewBox="0 0 138 41" fill="none" xmlns="http://www.w3.org/2000/svg">
<path fill-rule="evenodd" clip-rule="evenodd" d="M132.578 40.6266H5.10107C3.75231 40.6259 2.45864 40.0914 1.5028 39.1398C0.546949 38.1882 0.00665668 36.897 0 35.5482V5.07832C0.00494672 3.72904 0.544692 2.43679 1.50091 1.48483C2.45713 0.53288 3.75179 -0.00108289 5.10107 1.64888e-06H132.578C133.927 -0.000654071 135.222 0.533448 136.178 1.48531C137.134 2.43717 137.674 3.72918 137.679 5.07832V35.5482C137.673 36.8968 137.132 38.1879 136.176 39.1394C135.22 40.0908 133.927 40.6255 132.578 40.6266Z" fill="#292C3E"/>
<path fill-rule="evenodd" clip-rule="evenodd" d="M132.578 0.812531C133.712 0.812728 134.798 1.26141 135.602 2.06056C136.405 2.8597 136.86 3.94434 136.866 5.07751V35.5474C136.862 36.6815 136.408 37.7678 135.605 38.5678C134.801 39.3677 133.712 39.816 132.578 39.814H5.10107C3.96761 39.814 2.88023 39.3653 2.07663 38.566C1.27303 37.7667 0.818544 36.6817 0.812531 35.5482V5.07832C0.816404 3.94421 1.2702 2.85799 2.07427 2.05819C2.87834 1.25838 3.96695 0.810371 5.10107 0.812531H132.578ZM132.578 0H5.10107C3.75231 0.000627783 2.45864 0.535142 1.5028 1.48673C0.546949 2.43831 0.00665668 3.72958 0 5.07832V35.5482C0.00494672 36.8975 0.544692 38.1898 1.50091 39.1417C2.45713 40.0937 3.75179 40.6276 5.10107 40.6266H132.578C133.927 40.6272 135.222 40.0931 136.178 39.1413C137.134 38.1894 137.674 36.8974 137.679 35.5482V5.07832C137.673 3.72971 137.132 2.43869 136.176 1.4872C135.22 0.535707 133.927 0.00105464 132.578 0Z" fill="#292C3E"/>
<path d="M72.5327 13.4397C72.1027 13.45 71.6754 13.3705 71.278 13.2061C70.8805 13.0417 70.5223 12.7961 70.2251 12.485C69.9231 12.1777 69.6847 11.8135 69.5249 11.4134C69.3651 11.0133 69.2859 10.5854 69.2934 10.1546C69.2825 9.72369 69.3597 9.29508 69.5202 8.89491C69.68 8.49474 69.9204 8.13133 70.2251 7.82677C70.5216 7.51571 70.8798 7.27012 71.2766 7.10572C71.6734 6.94125 72.1007 6.86169 72.53 6.87198C72.9599 6.86385 73.3865 6.94443 73.784 7.1087C74.1807 7.27296 74.5396 7.5174 74.8375 7.82677C75.4361 8.45391 75.7699 9.28743 75.7699 10.1543C75.7699 11.021 75.4361 11.8546 74.8375 12.4818C74.5423 12.7942 74.1841 13.041 73.7873 13.2061C73.3899 13.3711 72.9626 13.4507 72.5327 13.4397ZM45.1756 13.4397C44.7459 13.446 44.3192 13.3659 43.9211 13.2039C43.523 13.042 43.1616 12.8016 42.8583 12.4971C42.3928 12.0393 42.0745 11.4532 41.944 10.8135C41.8134 10.1738 41.8766 9.50979 42.1254 8.90622C42.3741 8.30264 42.7971 7.78696 43.3405 7.42504C43.8838 7.06313 44.5228 6.87144 45.1756 6.87448C45.621 6.87367 46.0615 6.96495 46.4699 7.14255C46.849 7.29707 47.1866 7.53839 47.4555 7.84708L47.5165 7.92014L46.8299 8.5938L46.7592 8.51255C46.5646 8.28287 46.3195 8.10141 46.0431 7.98223C45.7667 7.86313 45.4664 7.80964 45.1658 7.82589C44.8711 7.8225 44.5788 7.8783 44.3061 7.98995C44.0333 8.10161 43.7859 8.26689 43.5781 8.47592C43.1486 8.93256 42.9095 9.53586 42.9095 10.1628C42.9095 10.7897 43.1486 11.393 43.5781 11.8495C44.0107 12.2656 44.5875 12.4979 45.1877 12.4979C45.7879 12.4979 46.3648 12.2656 46.7974 11.8495C47.0673 11.5601 47.2314 11.1878 47.263 10.7933H45.0619V9.84584H48.2079L48.2209 9.93204C48.2471 10.0895 48.2622 10.2486 48.2665 10.4082C48.2846 10.7934 48.2244 11.1783 48.0895 11.5396C47.9546 11.9009 47.7477 12.2311 47.4815 12.5102C47.183 12.8181 46.8234 13.0599 46.4256 13.22C46.0278 13.3802 45.6009 13.455 45.1724 13.4397H45.1756ZM81.549 13.3056H80.5767L77.6062 8.55155L77.6313 9.40789V13.3032H76.661V7.0093H77.7681L77.7979 7.0573L80.5916 11.5352L80.5659 10.6812V7.00848H81.5463L81.549 13.3056ZM65.2426 13.3056H64.2603V7.95596H62.554V7.00848H66.9417V7.95596H65.2354V13.3056H65.2426ZM61.7553 13.3056H60.7754V7.0093H61.7553V13.3056ZM56.2464 13.3056H55.2664V7.95596H53.5601V7.00848H57.9478V7.95596H56.2414L56.2464 13.3056ZM52.9409 13.2959H49.1821V7.0093H52.9409V7.95678H50.1654V9.68415H52.6704V10.6211H50.1654V12.3485H52.9409V13.2959ZM70.9442 11.8334C71.15 12.0454 71.3972 12.2132 71.67 12.3264C71.9429 12.4396 72.2361 12.4958 72.532 12.4915C72.8279 12.4993 73.1224 12.4447 73.396 12.3313C73.6695 12.218 73.9167 12.0483 74.1205 11.8334C74.5369 11.3741 74.7671 10.7765 74.7671 10.1566C74.7671 9.53681 74.5369 8.93919 74.1205 8.47998C73.9146 8.26811 73.6675 8.10046 73.3946 7.98725C73.1217 7.8741 72.8279 7.81783 72.5327 7.82183C72.2368 7.81404 71.9429 7.86855 71.67 7.98196C71.3965 8.09538 71.1507 8.26506 70.9475 8.47998C70.5311 8.93892 70.3002 9.53613 70.2996 10.1558C70.2982 10.7754 70.5277 11.3732 70.9428 11.8334H70.9442Z" fill="white"/>
<path fill-rule="evenodd" clip-rule="evenodd" d="M69.1978 22.0933C68.344 22.0958 67.5099 22.3514 66.801 22.8277C66.0921 23.3041 65.5403 23.9799 65.2153 24.7697C64.8902 25.5594 64.8065 26.4278 64.9747 27.2652C65.1429 28.1025 65.5555 28.8713 66.1603 29.4742C66.7651 30.0773 67.5351 30.4875 68.3731 30.6531C69.2107 30.8188 70.0788 30.7326 70.8676 30.4051C71.6564 30.0777 72.3308 29.5239 72.8048 28.8135C73.2788 28.1032 73.532 27.2683 73.532 26.4142C73.5415 25.8432 73.4352 25.2761 73.2206 24.7468C73.0059 24.2176 72.687 23.7371 72.2821 23.3338C71.8778 22.9306 71.3964 22.6129 70.8662 22.3997C70.3367 22.1866 69.7693 22.0824 69.1978 22.0933ZM69.1978 29.0233C68.6724 29.0612 68.147 28.9397 67.6907 28.6748C67.2346 28.4099 66.8687 28.0137 66.6409 27.538C66.4132 27.0622 66.334 26.5289 66.4136 26.0076C66.4933 25.4861 66.728 25.0008 67.0874 24.6147C67.4468 24.2287 67.914 23.9597 68.4286 23.843C68.9426 23.7262 69.4802 23.7671 69.9711 23.9602C70.462 24.1534 70.8832 24.4899 71.1804 24.9258C71.477 25.3618 71.6361 25.877 71.6354 26.4045C71.6524 26.7377 71.6016 27.0709 71.4872 27.3843C71.3727 27.6977 71.1967 27.985 70.9698 28.2294C70.7423 28.4737 70.4688 28.6702 70.1648 28.8071C69.8601 28.944 69.5317 29.0186 69.1978 29.0265V29.0233ZM59.7451 22.0933C58.8911 22.0956 58.0568 22.3511 57.3478 22.8274C56.6388 23.3036 56.0869 23.9793 55.7618 24.7691C55.4365 25.5588 55.3527 26.4273 55.5208 27.2647C55.6889 28.1021 56.1014 28.8708 56.7062 29.4739C57.311 30.077 58.081 30.4874 58.9188 30.6531C59.7567 30.8189 60.6249 30.7326 61.4137 30.4052C62.2026 30.0778 62.8767 29.5239 63.3509 28.8136C63.8253 28.1033 64.0784 27.2683 64.0784 26.4142C64.0876 25.8432 63.9816 25.2762 63.767 24.747C63.5522 24.2178 63.2333 23.7373 62.8288 23.3341C62.4245 22.9308 61.943 22.6131 61.4132 22.4C60.8833 22.1868 60.3161 22.0825 59.7451 22.0933ZM59.7451 29.0233C59.2191 29.0612 58.6937 28.9397 58.2376 28.6748C57.7815 28.4099 57.4158 28.0137 57.188 27.538C56.9602 27.0622 56.881 26.5289 56.9606 26.0076C57.0402 25.4861 57.275 25.0008 57.6344 24.6147C57.9937 24.2287 58.4611 23.9597 58.9755 23.843C59.4899 23.7262 60.0274 23.7671 60.5182 23.9602C61.009 24.1534 61.4303 24.4899 61.7272 24.9258C62.0241 25.3618 62.1829 25.877 62.1827 26.4045C62.1991 26.7377 62.1485 27.0709 62.0342 27.3843C61.9198 27.6977 61.7439 27.985 61.5167 28.2294C61.2895 28.4737 61.0158 28.6702 60.7115 28.8071C60.4073 28.944 60.0787 29.0186 59.7451 29.0265V29.0233ZM48.494 23.4168V25.2459H52.8817C52.8167 26.1026 52.4671 26.9131 51.8888 27.5485C51.4498 27.9971 50.9215 28.3483 50.338 28.5796C49.7547 28.8109 49.1291 28.9168 48.5021 28.8908C47.2091 28.8908 45.9691 28.3772 45.0548 27.4629C44.1405 26.5487 43.6269 25.3086 43.6269 24.0156C43.6269 22.7227 44.1405 21.4826 45.0548 20.5684C45.9691 19.6541 47.2091 19.1404 48.5021 19.1404C49.7332 19.1259 50.9206 19.5964 51.8075 20.4502L53.1076 19.1502C52.5043 18.551 51.7874 18.0785 50.9988 17.7606C50.2103 17.4425 49.3661 17.2854 48.5159 17.2985C47.6232 17.2788 46.7356 17.4377 45.9051 17.7657C45.0745 18.0937 44.318 18.5844 43.6797 19.2088C43.0414 19.8332 42.5342 20.5788 42.188 21.4019C41.8417 22.225 41.6633 23.1089 41.6633 24.0019C41.6633 24.8948 41.8417 25.7787 42.188 26.6018C42.5342 27.4248 43.0414 28.1705 43.6797 28.7949C44.318 29.4193 45.0745 29.9099 45.9051 30.238C46.7356 30.566 47.6232 30.7249 48.5159 30.7053C49.3856 30.7412 50.2529 30.5918 51.0605 30.2669C51.8679 29.9421 52.597 29.4492 53.1994 28.8209C54.2686 27.6539 54.8395 26.1153 54.7903 24.5332C54.795 24.1516 54.7609 23.7705 54.6887 23.3957H48.4932L48.4924 23.416L48.494 23.4168ZM94.5136 24.8404C94.2543 24.0569 93.76 23.3723 93.0978 22.8797C92.4356 22.3871 91.6379 22.1106 90.8132 22.0875C90.258 22.0912 89.7095 22.2073 89.201 22.4289C88.6918 22.6505 88.2334 22.973 87.8529 23.3769C87.4717 23.7808 87.1771 24.2578 86.9862 24.7788C86.7946 25.2999 86.7113 25.8543 86.7404 26.4085C86.7275 26.9767 86.8298 27.5417 87.0397 28.0696C87.2503 28.5976 87.5651 29.0776 87.9653 29.481C88.3661 29.8844 88.8435 30.2029 89.3696 30.4174C89.8957 30.632 90.4604 30.7382 91.0285 30.7296C91.7402 30.7339 92.4423 30.5608 93.0707 30.2261C93.699 29.8913 94.2346 29.4054 94.628 28.812L93.1655 27.8297C92.9461 28.1962 92.6346 28.4992 92.2629 28.7087C91.8905 28.9184 91.47 29.0274 91.0427 29.025C90.6019 29.0414 90.1666 28.9254 89.7921 28.692C89.4184 28.4585 89.1225 28.1182 88.9437 27.7151L94.7208 25.3214L94.5116 24.8396L94.5136 24.8404ZM88.6214 26.2842C88.6018 25.9701 88.6444 25.6552 88.748 25.3578C88.8509 25.0604 89.0121 24.7865 89.222 24.552C89.4319 24.3176 89.6865 24.1273 89.9709 23.9922C90.2553 23.8572 90.5634 23.7801 90.8782 23.7654C91.2052 23.7428 91.5323 23.8175 91.818 23.9802C92.1031 24.1428 92.334 24.3861 92.4809 24.6795L88.6214 26.2842ZM83.9284 30.4712H85.8276V17.7754H83.9304L83.9284 30.4712ZM80.813 23.0577H80.7453C80.4561 22.7426 80.1034 22.4931 79.7106 22.3257C79.3172 22.1584 78.8927 22.0771 78.4661 22.0875C77.3516 22.1334 76.298 22.6083 75.5261 23.4129C74.7535 24.2176 74.3222 25.2896 74.3222 26.4049C74.3222 27.5202 74.7535 28.5921 75.5261 29.3968C76.298 30.2015 77.3516 30.6764 78.4661 30.7223C78.8941 30.7317 79.3193 30.6487 79.7127 30.4793C80.1054 30.3098 80.4575 30.0576 80.7453 29.7399H80.813V30.3607C80.813 32.0093 79.9314 32.8982 78.5108 32.8982C78.0362 32.8869 77.5757 32.7349 77.1884 32.4617C76.8004 32.1884 76.5025 31.8062 76.3319 31.3634L74.6838 32.0524C74.9959 32.809 75.5268 33.4558 76.2073 33.91C76.8885 34.3642 77.6895 34.6054 78.5081 34.6029C80.7317 34.6029 82.6161 33.2932 82.6161 30.0999V22.3467H80.8231V23.0585L80.813 23.0577ZM78.6347 29.0274C77.9786 28.9719 77.3678 28.672 76.9223 28.1873C76.4768 27.7026 76.2296 27.0682 76.2296 26.4098C76.2296 25.7514 76.4768 25.117 76.9223 24.6322C77.3678 24.1475 77.9786 23.8477 78.6347 23.7923C78.9604 23.8081 79.28 23.8894 79.5732 24.0313C79.8671 24.1733 80.1291 24.3728 80.3437 24.6182C80.5591 24.8636 80.7222 25.1498 80.8238 25.4596C80.9254 25.7694 80.964 26.0965 80.9369 26.4215C80.9646 26.7456 80.9267 27.072 80.8252 27.3809C80.7229 27.6898 80.5597 27.9748 80.3437 28.2184C80.1284 28.4621 79.8657 28.6594 79.5718 28.7983C79.2773 28.9372 78.9584 29.0149 78.6334 29.0265L78.6347 29.0274ZM103.396 17.7762H98.8593V30.4704H100.757V25.6634H103.399C103.935 25.6933 104.471 25.6134 104.976 25.4287C105.48 25.244 105.942 24.9583 106.332 24.5892C106.722 24.2201 107.033 23.7753 107.245 23.2819C107.458 22.7885 107.568 22.257 107.568 21.7198C107.568 21.1827 107.458 20.6511 107.245 20.1578C107.033 19.6645 106.722 19.2196 106.332 18.8505C105.942 18.4814 105.48 18.1957 104.976 18.011C104.471 17.8262 103.935 17.7463 103.399 17.7762H103.396ZM103.452 23.8905H100.755V19.5337H103.452C103.738 19.5337 104.022 19.5901 104.286 19.6995C104.55 19.809 104.79 19.9694 104.993 20.1718C105.194 20.374 105.355 20.6142 105.465 20.8785C105.574 21.1428 105.63 21.4261 105.63 21.7122C105.63 21.9983 105.574 22.2815 105.465 22.5458C105.355 22.81 105.194 23.0502 104.993 23.2525C104.79 23.4548 104.55 23.6152 104.286 23.7247C104.022 23.8342 103.738 23.8905 103.452 23.8905ZM115.166 22.0745C114.475 22.035 113.786 22.1973 113.185 22.5418C112.584 22.8862 112.095 23.398 111.78 24.0148L113.462 24.7136C113.628 24.4071 113.88 24.1556 114.186 23.9893C114.493 23.8231 114.841 23.7492 115.189 23.7768C115.671 23.7304 116.151 23.8766 116.525 24.1832C116.9 24.4897 117.137 24.9319 117.187 25.4133V25.5473C116.577 25.2271 115.899 25.0599 115.211 25.0598C113.395 25.0598 111.554 26.0527 111.554 27.9142C111.571 28.3067 111.667 28.6919 111.836 29.0468C112.005 29.4016 112.243 29.7191 112.536 29.9802C112.83 30.2412 113.173 30.4407 113.545 30.5666C113.918 30.6925 114.311 30.7424 114.703 30.7133C115.18 30.7412 115.655 30.6408 116.08 30.4226C116.504 30.2044 116.862 29.8764 117.117 29.4726H117.185V30.4558H119.014V25.5928C119.011 23.3274 117.329 22.0737 115.164 22.0737L115.166 22.0745ZM114.928 29.0274C114.308 29.0274 113.439 28.7234 113.439 27.9434C113.439 26.9611 114.523 26.5881 115.447 26.5881C116.052 26.5696 116.649 26.7177 117.175 27.0163C117.108 27.5675 116.843 28.0756 116.43 28.4456C116.015 28.8155 115.481 29.022 114.926 29.0265L114.928 29.0274ZM125.685 22.3459L123.507 27.8524H123.438L121.182 22.3459H119.141L122.528 30.043L120.598 34.321H122.573L127.783 22.3459H125.685ZM108.609 30.4712H110.506V17.7754H108.609V30.4712Z" fill="white"/>
<path fill-rule="evenodd" clip-rule="evenodd" d="M10.5983 7.65028C10.2683 8.05235 10.1028 8.56445 10.1352 9.08359V31.542C10.0985 32.0597 10.2688 32.5709 10.6089 32.9631L10.6901 33.0313L23.273 20.4485V20.1673L10.6787 7.58203L10.5983 7.65028Z" fill="url(#paint0_linear_5747_9323)"/>
<path fill-rule="evenodd" clip-rule="evenodd" d="M27.4565 24.6563L23.2598 20.4596V20.1655L27.4565 15.9688L27.5475 16.0248L32.5121 18.8467C33.9332 19.6471 33.9332 20.9691 32.5121 21.78L27.5475 24.6019L27.4565 24.6563Z" fill="url(#paint1_linear_5747_9323)"/>
<path fill-rule="evenodd" clip-rule="evenodd" d="M27.5452 24.6002L23.2574 20.3125L10.5957 32.9742C10.8852 33.2289 11.2543 33.375 11.6398 33.3875C12.0252 33.3999 12.403 33.2779 12.7083 33.0424L27.5484 24.6002" fill="url(#paint2_linear_5747_9323)"/>
<path fill-rule="evenodd" clip-rule="evenodd" d="M27.5452 16.0273L12.7083 7.5989C12.4043 7.36035 12.0259 7.23644 11.6396 7.2489C11.2533 7.26136 10.8837 7.40945 10.5957 7.66715L23.2574 20.3158L27.5452 16.0273Z" fill="url(#paint3_linear_5747_9323)"/>
<path opacity="0.2" fill-rule="evenodd" clip-rule="evenodd" d="M27.455 24.5098L12.7189 32.8829C12.4283 33.1073 12.072 33.2298 11.7049 33.2316C11.3377 33.2334 10.9803 33.1143 10.6876 32.8926L10.6063 32.9739L10.6876 33.0422C10.9806 33.2631 11.3379 33.3818 11.7049 33.38C12.0719 33.3783 12.428 33.2561 12.7189 33.0324L27.559 24.6032L27.455 24.5098Z" fill="black"/>
<path opacity="0.12" fill-rule="evenodd" clip-rule="evenodd" d="M32.5127 21.6327L27.4441 24.5099L27.5352 24.6009L32.4997 21.779C32.7912 21.6522 33.0432 21.4497 33.2299 21.1925C33.4165 20.9353 33.5307 20.6328 33.5608 20.3164C33.5044 20.6038 33.3797 20.8733 33.1973 21.1024C33.0149 21.3315 32.7801 21.5133 32.5127 21.6327Z" fill="black"/>
<path opacity="0.25" fill-rule="evenodd" clip-rule="evenodd" d="M12.7062 7.74227L32.51 18.9933C32.7783 19.1143 33.0143 19.2967 33.1987 19.5261C33.3831 19.7553 33.5107 20.025 33.5712 20.3129C33.5411 19.9966 33.4269 19.6941 33.2402 19.4368C33.0536 19.1797 32.8015 18.9771 32.51 18.8504L12.7062 7.59602C11.2851 6.78349 10.1329 7.46195 10.1329 9.08539V9.23245C10.1329 7.60577 11.2851 6.93949 12.7062 7.74227Z" fill="white"/>
<defs>
<linearGradient id="paint0_linear_5747_9323" x1="42.6191" y1="33.9221" x2="41.0836" y2="33.7078" gradientUnits="userSpaceOnUse">
<stop stop-color="#00A0FF"/>
<stop offset="0.007" stop-color="#00A1FF"/>
<stop offset="0.26" stop-color="#00BEFF"/>
<stop offset="0.512" stop-color="#00D2FF"/>
<stop offset="0.76" stop-color="#00DFFF"/>
<stop offset="1" stop-color="#00E3FF"/>
</linearGradient>
<linearGradient id="paint1_linear_5747_9323" x1="43.3801" y1="32.2927" x2="40.6974" y2="32.2927" gradientUnits="userSpaceOnUse">
<stop stop-color="#FFE000"/>
<stop offset="0.409" stop-color="#FFBD00"/>
<stop offset="0.775" stop-color="#FFA500"/>
<stop offset="1" stop-color="#FF9C00"/>
</linearGradient>
<linearGradient id="paint2_linear_5747_9323" x1="43.2465" y1="32.6823" x2="42.2201" y2="30.4448" gradientUnits="userSpaceOnUse">
<stop stop-color="#FF3A44"/>
<stop offset="1" stop-color="#C31162"/>
</linearGradient>
<linearGradient id="paint3_linear_5747_9323" x1="42.0539" y1="34.5988" x2="42.517" y2="33.6025" gradientUnits="userSpaceOnUse">
<stop stop-color="#32A071"/>
<stop offset="0.068" stop-color="#2DA771"/>
<stop offset="0.476" stop-color="#15CF74"/>
<stop offset="0.801" stop-color="#06E775"/>
<stop offset="1" stop-color="#00F076"/>
</linearGradient>
</defs>
</svg>
