<svg width="358" height="346" viewBox="0 0 358 346" fill="none" xmlns="http://www.w3.org/2000/svg">
<g opacity="0.24">
<path d="M162.836 -197.85L-215.16 180.146" stroke="#DDDDDD"/>
<path d="M233.707 -126.979L-144.289 251.017" stroke="#DDDDDD"/>
<path d="M257.334 -103.303L-120.661 274.693" stroke="#DDDDDD"/>
<path d="M186.457 -174.17L-191.539 203.826" stroke="#DDDDDD"/>
<path d="M245.521 -115.102L-132.474 262.894" stroke="#DDDDDD"/>
<path d="M174.645 -186.037L-203.351 191.959" stroke="#DDDDDD"/>
<path d="M269.145 -91.5039L-108.851 286.492" stroke="#DDDDDD"/>
<path d="M198.271 -162.371L-179.725 215.625" stroke="#DDDDDD"/>
<path d="M422.706 62.0293L44.7098 440.025" stroke="#DDDDDD"/>
<path d="M446.331 85.7012L68.3355 463.697" stroke="#DDDDDD"/>
<path d="M434.518 73.8574L56.5225 451.853" stroke="#DDDDDD"/>
<path d="M458.144 97.498L80.1483 475.494" stroke="#DDDDDD"/>
<path d="M517.205 156.568L139.21 534.564" stroke="#DDDDDD"/>
<path d="M328.206 -32.4336L-49.7897 345.562" stroke="#DDDDDD"/>
<path d="M351.832 -8.8418L-26.1642 369.154" stroke="#DDDDDD"/>
<path d="M340.019 -20.6367L-37.9765 357.359" stroke="#DDDDDD"/>
<path d="M363.645 2.96289L-14.3508 380.959" stroke="#DDDDDD"/>
<path d="M233.707 -126.979L-144.289 251.017" stroke="#DDDDDD"/>
<path d="M162.836 -197.85L-215.16 180.146" stroke="#DDDDDD"/>
<path d="M257.334 -103.303L-120.661 274.693" stroke="#DDDDDD"/>
<path d="M186.457 -174.17L-191.539 203.826" stroke="#DDDDDD"/>
<path d="M245.521 -115.102L-132.474 262.894" stroke="#DDDDDD"/>
<path d="M174.645 -186.037L-203.351 191.959" stroke="#DDDDDD"/>
<path d="M269.145 -91.5039L-108.851 286.492" stroke="#DDDDDD"/>
<path d="M198.271 -162.371L-179.725 215.625" stroke="#DDDDDD"/>
<path d="M422.706 62.0293L44.7098 440.025" stroke="#DDDDDD"/>
<path d="M446.331 85.7012L68.3355 463.697" stroke="#DDDDDD"/>
<path d="M434.518 73.8574L56.5225 451.853" stroke="#DDDDDD"/>
<path d="M458.144 97.498L80.1483 475.494" stroke="#DDDDDD"/>
<path d="M517.205 156.568L139.21 534.564" stroke="#DDDDDD"/>
<path d="M328.206 -32.4336L-49.7897 345.562" stroke="#DDDDDD"/>
<path d="M351.832 -8.8418L-26.1642 369.154" stroke="#DDDDDD"/>
<path d="M340.019 -20.6367L-37.9765 357.359" stroke="#DDDDDD"/>
<path d="M363.645 2.96289L-14.3508 380.959" stroke="#DDDDDD"/>
<path d="M280.957 -79.709L-97.0385 298.287" stroke="#DDDDDD"/>
<path d="M210.082 -150.574L-167.914 227.422" stroke="#DDDDDD"/>
<path d="M304.582 -56.0977L-73.4138 321.898" stroke="#DDDDDD"/>
<path d="M292.77 -67.9121L-85.226 310.084" stroke="#DDDDDD"/>
<path d="M221.896 -138.779L-156.1 239.216" stroke="#DDDDDD"/>
<path d="M316.395 -44.2363L-61.601 333.759" stroke="#DDDDDD"/>
<path d="M469.956 109.301L91.9603 487.297" stroke="#DDDDDD"/>
<path d="M529.017 168.367L151.021 546.363" stroke="#DDDDDD"/>
<path d="M375.455 14.8281L-2.54047 392.824" stroke="#DDDDDD"/>
<path d="M399.081 38.4336L21.085 416.429" stroke="#DDDDDD"/>
<path d="M387.269 26.6309L9.2735 404.627" stroke="#DDDDDD"/>
<path d="M410.893 50.2305L32.8975 428.226" stroke="#DDDDDD"/>
<path d="M493.58 132.906L115.584 510.902" stroke="#DDDDDD"/>
<path d="M552.641 191.969L174.646 569.965" stroke="#DDDDDD"/>
<path d="M481.768 121.096L103.772 499.091" stroke="#DDDDDD"/>
<path d="M540.829 180.168L162.833 558.164" stroke="#DDDDDD"/>
<path d="M505.392 144.764L127.396 522.759" stroke="#DDDDDD"/>
<path d="M564.455 203.805L186.459 581.8" stroke="#DDDDDD"/>
<path d="M507.756 236.879L129.76 -141.117" stroke="#DDDDDD"/>
<path d="M566.816 177.828L188.82 -200.168" stroke="#DDDDDD"/>
<path d="M484.132 260.504L106.136 -117.492" stroke="#DDDDDD"/>
<path d="M543.195 201.432L165.199 -176.564" stroke="#DDDDDD"/>
<path d="M495.946 248.699L117.95 -129.297" stroke="#DDDDDD"/>
<path d="M555.007 189.633L177.012 -188.363" stroke="#DDDDDD"/>
<path d="M472.321 272.303L94.3248 -105.693" stroke="#DDDDDD"/>
<path d="M531.382 213.232L153.386 -164.763" stroke="#DDDDDD"/>
<path d="M318.758 425.859L-59.2377 47.8636" stroke="#DDDDDD"/>
<path d="M295.134 449.51L-82.8618 71.514" stroke="#DDDDDD"/>
<path d="M306.947 437.691L-71.0488 59.6956" stroke="#DDDDDD"/>
<path d="M283.323 461.311L-94.6733 83.3148" stroke="#DDDDDD"/>
<path d="M224.26 520.377L-153.736 142.381" stroke="#DDDDDD"/>
<path d="M413.257 331.373L35.2615 -46.6227" stroke="#DDDDDD"/>
<path d="M389.632 354.977L11.6358 -23.0192" stroke="#DDDDDD"/>
<path d="M401.447 343.17L23.4515 -34.8259" stroke="#DDDDDD"/>
<path d="M377.822 366.816L-0.174258 -11.1794" stroke="#DDDDDD"/>
<path d="M507.756 236.879L129.76 -141.117" stroke="#DDDDDD"/>
<path d="M566.816 177.828L188.82 -200.168" stroke="#DDDDDD"/>
<path d="M484.132 260.504L106.136 -117.492" stroke="#DDDDDD"/>
<path d="M543.195 201.432L165.199 -176.564" stroke="#DDDDDD"/>
<path d="M495.946 248.699L117.95 -129.297" stroke="#DDDDDD"/>
<path d="M555.007 189.633L177.012 -188.363" stroke="#DDDDDD"/>
<path d="M472.321 272.303L94.3248 -105.693" stroke="#DDDDDD"/>
<path d="M531.382 213.232L153.386 -164.763" stroke="#DDDDDD"/>
<path d="M318.758 425.859L-59.2377 47.8636" stroke="#DDDDDD"/>
<path d="M295.134 449.51L-82.8618 71.514" stroke="#DDDDDD"/>
<path d="M306.947 437.691L-71.0488 59.6956" stroke="#DDDDDD"/>
<path d="M283.323 461.311L-94.6733 83.3148" stroke="#DDDDDD"/>
<path d="M224.26 520.377L-153.736 142.381" stroke="#DDDDDD"/>
<path d="M413.257 331.373L35.2615 -46.6227" stroke="#DDDDDD"/>
<path d="M389.632 354.977L11.6358 -23.0192" stroke="#DDDDDD"/>
<path d="M401.447 343.17L23.4515 -34.8259" stroke="#DDDDDD"/>
<path d="M377.822 366.816L-0.174258 -11.1794" stroke="#DDDDDD"/>
<path d="M460.507 284.104L82.511 -93.8923" stroke="#DDDDDD"/>
<path d="M519.569 225.045L141.573 -152.951" stroke="#DDDDDD"/>
<path d="M436.883 307.764L58.8873 -70.2321" stroke="#DDDDDD"/>
<path d="M448.695 295.912L70.699 -82.0837" stroke="#DDDDDD"/>
<path d="M425.072 319.574L47.0757 -58.4216" stroke="#DDDDDD"/>
<path d="M271.509 473.107L-106.487 95.1116" stroke="#DDDDDD"/>
<path d="M212.447 532.178L-165.549 154.182" stroke="#DDDDDD"/>
<path d="M366.009 378.635L-11.987 0.638974" stroke="#DDDDDD"/>
<path d="M342.384 402.24L-35.6118 24.2444" stroke="#DDDDDD"/>
<path d="M354.196 390.445L-23.7995 12.4495" stroke="#DDDDDD"/>
<path d="M330.571 414.045L-47.4245 36.0491" stroke="#DDDDDD"/>
<path d="M247.885 496.742L-130.111 118.746" stroke="#DDDDDD"/>
<path d="M188.824 555.793L-189.172 177.797" stroke="#DDDDDD"/>
<path d="M259.697 484.914L-118.299 106.918" stroke="#DDDDDD"/>
<path d="M200.634 543.982L-177.362 165.987" stroke="#DDDDDD"/>
<path d="M236.073 508.562L-141.923 130.567" stroke="#DDDDDD"/>
<path d="M177.01 567.617L-200.985 189.621" stroke="#DDDDDD"/>
</g>
</svg>
