<svg width="138" height="41" viewBox="0 0 138 41" fill="none" xmlns="http://www.w3.org/2000/svg">
<rect x="0.5" y="0.5" width="137" height="40" rx="4.5" fill="#F7F7F7" stroke="#3D3D3D"/>
<path d="M14.7188 21C14.7188 21.8437 14.5664 22.5729 14.2617 23.1875C13.957 23.8021 13.5391 24.276 13.0078 24.6094C12.4766 24.9427 11.8698 25.1094 11.1875 25.1094C10.5052 25.1094 9.89844 24.9427 9.36719 24.6094C8.83594 24.276 8.41797 23.8021 8.11328 23.1875C7.80859 22.5729 7.65625 21.8437 7.65625 21C7.65625 20.1562 7.80859 19.4271 8.11328 18.8125C8.41797 18.1979 8.83594 17.724 9.36719 17.3906C9.89844 17.0573 10.5052 16.8906 11.1875 16.8906C11.8698 16.8906 12.4766 17.0573 13.0078 17.3906C13.5391 17.724 13.957 18.1979 14.2617 18.8125C14.5664 19.4271 14.7188 20.1562 14.7188 21ZM13.7813 21C13.7813 20.3073 13.6654 19.7227 13.4336 19.2461C13.2044 18.7695 12.8932 18.4089 12.5 18.1641C12.1094 17.9193 11.6719 17.7969 11.1875 17.7969C10.7031 17.7969 10.2643 17.9193 9.87109 18.1641C9.48047 18.4089 9.16927 18.7695 8.9375 19.2461C8.70833 19.7227 8.59375 20.3073 8.59375 21C8.59375 21.6927 8.70833 22.2773 8.9375 22.7539C9.16927 23.2305 9.48047 23.5911 9.87109 23.8359C10.2643 24.0807 10.7031 24.2031 11.1875 24.2031C11.6719 24.2031 12.1094 24.0807 12.5 23.8359C12.8932 23.5911 13.2044 23.2305 13.4336 22.7539C13.6654 22.2773 13.7813 21.6927 13.7813 21ZM20.0039 22.5469V19H20.9258V25H20.0039V23.9844H19.9414C19.8008 24.2891 19.582 24.5482 19.2852 24.7617C18.9883 24.9727 18.6133 25.0781 18.1602 25.0781C17.7852 25.0781 17.4518 24.9961 17.1602 24.832C16.8685 24.6654 16.6393 24.4154 16.4727 24.082C16.306 23.7461 16.2227 23.3229 16.2227 22.8125V19H17.1445V22.75C17.1445 23.1875 17.2669 23.5365 17.5117 23.7969C17.7591 24.0573 18.0742 24.1875 18.457 24.1875C18.6862 24.1875 18.9193 24.1289 19.1563 24.0117C19.3958 23.8945 19.5964 23.7148 19.7578 23.4727C19.9219 23.2305 20.0039 22.9219 20.0039 22.5469ZM27.5205 19L25.3018 25H24.3643L22.1455 19H23.1455L24.8018 23.7812H24.8643L26.5205 19H27.5205ZM28.7373 25V19H29.6279V19.9062H29.6904C29.7998 19.6094 29.9977 19.3685 30.2842 19.1836C30.5706 18.9987 30.8936 18.9062 31.2529 18.9062C31.3206 18.9062 31.4053 18.9076 31.5068 18.9102C31.6084 18.9128 31.6852 18.9167 31.7373 18.9219V19.8594C31.7061 19.8516 31.6344 19.8398 31.5225 19.8242C31.4131 19.806 31.2972 19.7969 31.1748 19.7969C30.8831 19.7969 30.6227 19.8581 30.3936 19.9805C30.167 20.1003 29.9873 20.2669 29.8545 20.4805C29.7243 20.6914 29.6592 20.9323 29.6592 21.2031V25H28.7373ZM32.8301 25V19H33.752V25H32.8301ZM33.2988 18C33.1191 18 32.9642 17.9388 32.834 17.8164C32.7064 17.694 32.6426 17.5469 32.6426 17.375C32.6426 17.2031 32.7064 17.056 32.834 16.9336C32.9642 16.8112 33.1191 16.75 33.2988 16.75C33.4785 16.75 33.6322 16.8112 33.7598 16.9336C33.89 17.056 33.9551 17.2031 33.9551 17.375C33.9551 17.5469 33.89 17.694 33.7598 17.8164C33.6322 17.9388 33.4785 18 33.2988 18ZM35.4404 25V19H36.3311V19.9062H36.3936C36.5029 19.6094 36.7008 19.3685 36.9873 19.1836C37.2738 18.9987 37.5967 18.9062 37.9561 18.9062C38.0238 18.9062 38.1084 18.9076 38.21 18.9102C38.3115 18.9128 38.3883 18.9167 38.4404 18.9219V19.8594C38.4092 19.8516 38.3376 19.8398 38.2256 19.8242C38.1162 19.806 38.0003 19.7969 37.8779 19.7969C37.5863 19.7969 37.3258 19.8581 37.0967 19.9805C36.8701 20.1003 36.6904 20.2669 36.5576 20.4805C36.4274 20.6914 36.3623 20.9323 36.3623 21.2031V25H35.4404ZM44.8926 25.125C44.3926 25.125 43.9512 24.9987 43.5684 24.7461C43.1855 24.4909 42.8861 24.1315 42.6699 23.668C42.4538 23.2018 42.3457 22.651 42.3457 22.0156C42.3457 21.3854 42.4538 20.8385 42.6699 20.375C42.8861 19.9115 43.1868 19.5534 43.5723 19.3008C43.9577 19.0482 44.403 18.9219 44.9082 18.9219C45.2988 18.9219 45.6074 18.987 45.834 19.1172C46.0632 19.2448 46.2376 19.3906 46.3574 19.5547C46.4798 19.7161 46.5749 19.849 46.6426 19.9531H46.7207V17H47.6426V25H46.752V24.0781H46.6426C46.5749 24.1875 46.4785 24.3255 46.3535 24.4922C46.2285 24.6562 46.0501 24.8034 45.8184 24.9336C45.5866 25.0612 45.278 25.125 44.8926 25.125ZM45.0176 24.2969C45.3874 24.2969 45.6999 24.2005 45.9551 24.0078C46.2103 23.8125 46.4043 23.543 46.5371 23.1992C46.6699 22.8529 46.7363 22.4531 46.7363 22C46.7363 21.5521 46.6712 21.1602 46.541 20.8242C46.4108 20.4857 46.2181 20.2227 45.9629 20.0352C45.7077 19.8451 45.3926 19.75 45.0176 19.75C44.627 19.75 44.3014 19.8503 44.041 20.0508C43.7832 20.2487 43.5892 20.5182 43.459 20.8594C43.3314 21.1979 43.2676 21.5781 43.2676 22C43.2676 22.4271 43.3327 22.8151 43.4629 23.1641C43.5957 23.5104 43.791 23.7865 44.0488 23.9922C44.3092 24.1953 44.6322 24.2969 45.0176 24.2969ZM51.2246 25.1406C50.8444 25.1406 50.4993 25.069 50.1895 24.9258C49.8796 24.7799 49.6335 24.5703 49.4512 24.2969C49.2689 24.0208 49.1777 23.6875 49.1777 23.2969C49.1777 22.9531 49.2454 22.6745 49.3809 22.4609C49.5163 22.2448 49.6973 22.0755 49.9238 21.9531C50.1504 21.8307 50.4004 21.7396 50.6738 21.6797C50.9499 21.6172 51.2272 21.5677 51.5059 21.5313C51.8704 21.4844 52.166 21.4492 52.3926 21.4258C52.6217 21.3997 52.7884 21.3568 52.8926 21.2969C52.9993 21.237 53.0527 21.1328 53.0527 20.9844V20.9531C53.0527 20.5677 52.9473 20.2682 52.7363 20.0547C52.528 19.8411 52.2116 19.7344 51.7871 19.7344C51.347 19.7344 51.002 19.8307 50.752 20.0234C50.502 20.2161 50.3262 20.4219 50.2246 20.6406L49.3496 20.3281C49.5059 19.9635 49.7142 19.6797 49.9746 19.4766C50.2376 19.2708 50.5241 19.1276 50.834 19.0469C51.1465 18.9635 51.4538 18.9219 51.7559 18.9219C51.9486 18.9219 52.1699 18.9453 52.4199 18.9922C52.6725 19.0365 52.916 19.1289 53.1504 19.2695C53.3874 19.4102 53.584 19.6224 53.7402 19.9062C53.8965 20.1901 53.9746 20.5703 53.9746 21.0469V25H53.0527V24.1875H53.0059C52.9434 24.3177 52.8392 24.457 52.6934 24.6055C52.5475 24.7539 52.3535 24.8802 52.1113 24.9844C51.8691 25.0885 51.5736 25.1406 51.2246 25.1406ZM51.3652 24.3125C51.7298 24.3125 52.0371 24.2409 52.2871 24.0977C52.5397 23.9544 52.7298 23.7695 52.8574 23.543C52.9876 23.3164 53.0527 23.0781 53.0527 22.8281V21.9844C53.0137 22.0312 52.9277 22.0742 52.7949 22.1133C52.6647 22.1497 52.5137 22.1823 52.3418 22.2109C52.1725 22.237 52.0072 22.2604 51.8457 22.2812C51.6868 22.2995 51.5579 22.3151 51.459 22.3281C51.2194 22.3594 50.9954 22.4102 50.7871 22.4805C50.5814 22.5482 50.4147 22.651 50.2871 22.7891C50.1621 22.9245 50.0996 23.1094 50.0996 23.3437C50.0996 23.6641 50.2181 23.9062 50.4551 24.0703C50.6947 24.2318 50.998 24.3125 51.3652 24.3125ZM56.5791 21.3906V25H55.6572V19H56.5479V19.9375H56.626C56.7666 19.6328 56.9801 19.388 57.2666 19.2031C57.5531 19.0156 57.9229 18.9219 58.376 18.9219C58.7822 18.9219 59.1377 19.0052 59.4424 19.1719C59.7471 19.3359 59.984 19.5859 60.1533 19.9219C60.3226 20.2552 60.4072 20.6771 60.4072 21.1875V25H59.4854V21.25C59.4854 20.7786 59.363 20.4115 59.1182 20.1484C58.8734 19.8828 58.5374 19.75 58.1104 19.75C57.8161 19.75 57.5531 19.8138 57.3213 19.9414C57.0921 20.069 56.9111 20.2552 56.7783 20.5C56.6455 20.7448 56.5791 21.0417 56.5791 21.3906ZM66.3418 20.3437L65.5137 20.5781C65.4616 20.4401 65.3848 20.306 65.2832 20.1758C65.1842 20.043 65.0488 19.9336 64.877 19.8477C64.7051 19.7617 64.485 19.7187 64.2168 19.7187C63.8496 19.7187 63.5436 19.8034 63.2988 19.9727C63.0566 20.1393 62.9355 20.3516 62.9355 20.6094C62.9355 20.8385 63.0189 21.0195 63.1855 21.1523C63.3522 21.2852 63.6126 21.3958 63.9668 21.4844L64.8574 21.7031C65.3939 21.8333 65.7936 22.0326 66.0566 22.3008C66.3197 22.5664 66.4512 22.9089 66.4512 23.3281C66.4512 23.6719 66.3522 23.9792 66.1543 24.25C65.959 24.5208 65.6855 24.7344 65.334 24.8906C64.9824 25.0469 64.5736 25.125 64.1074 25.125C63.4954 25.125 62.9889 24.9922 62.5879 24.7266C62.1868 24.4609 61.9329 24.0729 61.8262 23.5625L62.7012 23.3437C62.7845 23.6667 62.9421 23.9089 63.1738 24.0703C63.4082 24.2318 63.7142 24.3125 64.0918 24.3125C64.5215 24.3125 64.8626 24.2214 65.1152 24.0391C65.3704 23.8542 65.498 23.6328 65.498 23.375C65.498 23.1667 65.4251 22.9922 65.2793 22.8516C65.1335 22.7083 64.9095 22.6016 64.6074 22.5312L63.6074 22.2969C63.0579 22.1667 62.6543 21.9648 62.3965 21.6914C62.1413 21.4154 62.0137 21.0703 62.0137 20.6562C62.0137 20.3177 62.1087 20.0182 62.2988 19.7578C62.4915 19.4974 62.7533 19.293 63.084 19.1445C63.4173 18.9961 63.7949 18.9219 64.2168 18.9219C64.8105 18.9219 65.2767 19.0521 65.6152 19.3125C65.9564 19.5729 66.1986 19.9167 66.3418 20.3437ZM71.8545 17V25H70.9326V17H71.8545ZM74.3555 17V17.7031C74.3555 17.9167 74.3164 18.1445 74.2383 18.3867C74.1628 18.6263 74.0508 18.8594 73.9023 19.0859C73.7565 19.3099 73.5794 19.5052 73.3711 19.6719L72.8711 19.2656C73.0352 19.0312 73.1771 18.7878 73.2969 18.5352C73.4193 18.2799 73.4805 18.0078 73.4805 17.7188V17H74.3555ZM76.7158 25.1406C76.3356 25.1406 75.9906 25.069 75.6807 24.9258C75.3708 24.7799 75.1247 24.5703 74.9424 24.2969C74.7601 24.0208 74.6689 23.6875 74.6689 23.2969C74.6689 22.9531 74.7367 22.6745 74.8721 22.4609C75.0075 22.2448 75.1885 22.0755 75.415 21.9531C75.6416 21.8307 75.8916 21.7396 76.165 21.6797C76.4411 21.6172 76.7184 21.5677 76.9971 21.5313C77.3617 21.4844 77.6572 21.4492 77.8838 21.4258C78.113 21.3997 78.2796 21.3568 78.3838 21.2969C78.4906 21.237 78.5439 21.1328 78.5439 20.9844V20.9531C78.5439 20.5677 78.4385 20.2682 78.2275 20.0547C78.0192 19.8411 77.7028 19.7344 77.2783 19.7344C76.8382 19.7344 76.4932 19.8307 76.2432 20.0234C75.9932 20.2161 75.8174 20.4219 75.7158 20.6406L74.8408 20.3281C74.9971 19.9635 75.2054 19.6797 75.4658 19.4766C75.7288 19.2708 76.0153 19.1276 76.3252 19.0469C76.6377 18.9635 76.945 18.9219 77.2471 18.9219C77.4398 18.9219 77.6611 18.9453 77.9111 18.9922C78.1637 19.0365 78.4072 19.1289 78.6416 19.2695C78.8786 19.4102 79.0752 19.6224 79.2314 19.9062C79.3877 20.1901 79.4658 20.5703 79.4658 21.0469V25H78.5439V24.1875H78.4971C78.4346 24.3177 78.3304 24.457 78.1846 24.6055C78.0387 24.7539 77.8447 24.8802 77.6025 24.9844C77.3604 25.0885 77.0648 25.1406 76.7158 25.1406ZM76.8564 24.3125C77.221 24.3125 77.5283 24.2409 77.7783 24.0977C78.0309 23.9544 78.221 23.7695 78.3486 23.543C78.4788 23.3164 78.5439 23.0781 78.5439 22.8281V21.9844C78.5049 22.0312 78.4189 22.0742 78.2861 22.1133C78.1559 22.1497 78.0049 22.1823 77.833 22.2109C77.6637 22.237 77.4984 22.2604 77.3369 22.2812C77.1781 22.2995 77.0492 22.3151 76.9502 22.3281C76.7106 22.3594 76.4867 22.4102 76.2783 22.4805C76.0726 22.5482 75.9059 22.651 75.7783 22.7891C75.6533 22.9245 75.5908 23.1094 75.5908 23.3437C75.5908 23.6641 75.7093 23.9062 75.9463 24.0703C76.1859 24.2318 76.4893 24.3125 76.8564 24.3125ZM81.1484 27.25V19H82.0391V19.9531H82.1484C82.2161 19.849 82.3099 19.7161 82.4297 19.5547C82.5521 19.3906 82.7266 19.2448 82.9531 19.1172C83.1823 18.987 83.4922 18.9219 83.8828 18.9219C84.388 18.9219 84.8333 19.0482 85.2188 19.3008C85.6042 19.5534 85.9049 19.9115 86.1211 20.375C86.3372 20.8385 86.4453 21.3854 86.4453 22.0156C86.4453 22.651 86.3372 23.2018 86.1211 23.668C85.9049 24.1315 85.6055 24.4909 85.2227 24.7461C84.8398 24.9987 84.3984 25.125 83.8984 25.125C83.513 25.125 83.2044 25.0612 82.9727 24.9336C82.7409 24.8034 82.5625 24.6562 82.4375 24.4922C82.3125 24.3255 82.2161 24.1875 82.1484 24.0781H82.0703V27.25H81.1484ZM82.0547 22C82.0547 22.4531 82.1211 22.8529 82.2539 23.1992C82.3867 23.543 82.5807 23.8125 82.8359 24.0078C83.0911 24.2005 83.4036 24.2969 83.7734 24.2969C84.1589 24.2969 84.4805 24.1953 84.7383 23.9922C84.9987 23.7865 85.194 23.5104 85.3242 23.1641C85.457 22.8151 85.5234 22.4271 85.5234 22C85.5234 21.5781 85.4583 21.1979 85.3281 20.8594C85.2005 20.5182 85.0065 20.2487 84.7461 20.0508C84.4883 19.8503 84.1641 19.75 83.7734 19.75C83.3984 19.75 83.0833 19.8451 82.8281 20.0352C82.5729 20.2227 82.3802 20.4857 82.25 20.8242C82.1198 21.1602 82.0547 21.5521 82.0547 22ZM87.8516 27.25V19H88.7422V19.9531H88.8516C88.9193 19.849 89.013 19.7161 89.1328 19.5547C89.2552 19.3906 89.4297 19.2448 89.6563 19.1172C89.8854 18.987 90.1953 18.9219 90.5859 18.9219C91.0911 18.9219 91.5365 19.0482 91.9219 19.3008C92.3073 19.5534 92.6081 19.9115 92.8242 20.375C93.0404 20.8385 93.1484 21.3854 93.1484 22.0156C93.1484 22.651 93.0404 23.2018 92.8242 23.668C92.6081 24.1315 92.3086 24.4909 91.9258 24.7461C91.543 24.9987 91.1016 25.125 90.6016 25.125C90.2161 25.125 89.9076 25.0612 89.6758 24.9336C89.444 24.8034 89.2656 24.6562 89.1406 24.4922C89.0156 24.3255 88.9193 24.1875 88.8516 24.0781H88.7734V27.25H87.8516ZM88.7578 22C88.7578 22.4531 88.8242 22.8529 88.957 23.1992C89.0898 23.543 89.2839 23.8125 89.5391 24.0078C89.7943 24.2005 90.1068 24.2969 90.4766 24.2969C90.862 24.2969 91.1836 24.1953 91.4414 23.9922C91.7018 23.7865 91.8971 23.5104 92.0273 23.1641C92.1602 22.8151 92.2266 22.4271 92.2266 22C92.2266 21.5781 92.1615 21.1979 92.0313 20.8594C91.9036 20.5182 91.7096 20.2487 91.4492 20.0508C91.1914 19.8503 90.8672 19.75 90.4766 19.75C90.1016 19.75 89.7865 19.8451 89.5313 20.0352C89.276 20.2227 89.0833 20.4857 88.9531 20.8242C88.8229 21.1602 88.7578 21.5521 88.7578 22ZM95.4766 17V25H94.5547V17H95.4766ZM97.165 25V19H98.0869V25H97.165ZM97.6338 18C97.4541 18 97.2992 17.9388 97.1689 17.8164C97.0413 17.694 96.9775 17.5469 96.9775 17.375C96.9775 17.2031 97.0413 17.056 97.1689 16.9336C97.2992 16.8112 97.4541 16.75 97.6338 16.75C97.8135 16.75 97.9671 16.8112 98.0947 16.9336C98.2249 17.056 98.29 17.2031 98.29 17.375C98.29 17.5469 98.2249 17.694 98.0947 17.8164C97.9671 17.9388 97.8135 18 97.6338 18ZM102.213 25.125C101.65 25.125 101.166 24.9922 100.76 24.7266C100.354 24.4609 100.041 24.0951 99.8223 23.6289C99.6035 23.1628 99.4941 22.6302 99.4941 22.0312C99.4941 21.4219 99.6061 20.8841 99.8301 20.418C100.057 19.9492 100.372 19.5833 100.775 19.3203C101.182 19.0547 101.656 18.9219 102.197 18.9219C102.619 18.9219 102.999 19 103.338 19.1562C103.676 19.3125 103.954 19.5312 104.17 19.8125C104.386 20.0937 104.52 20.4219 104.572 20.7969H103.65C103.58 20.5234 103.424 20.2812 103.182 20.0703C102.942 19.8568 102.619 19.75 102.213 19.75C101.854 19.75 101.538 19.8437 101.268 20.0312C100.999 20.2161 100.79 20.4779 100.639 20.8164C100.49 21.1523 100.416 21.5469 100.416 22C100.416 22.4635 100.489 22.8672 100.635 23.2109C100.783 23.5547 100.992 23.8216 101.26 24.0117C101.531 24.2018 101.848 24.2969 102.213 24.2969C102.452 24.2969 102.67 24.2552 102.865 24.1719C103.061 24.0885 103.226 23.9688 103.361 23.8125C103.497 23.6562 103.593 23.4687 103.65 23.25H104.572C104.52 23.6042 104.391 23.9232 104.186 24.207C103.982 24.4883 103.713 24.7122 103.377 24.8789C103.044 25.043 102.656 25.125 102.213 25.125ZM107.686 25.1406C107.305 25.1406 106.96 25.069 106.65 24.9258C106.34 24.7799 106.094 24.5703 105.912 24.2969C105.73 24.0208 105.639 23.6875 105.639 23.2969C105.639 22.9531 105.706 22.6745 105.842 22.4609C105.977 22.2448 106.158 22.0755 106.385 21.9531C106.611 21.8307 106.861 21.7396 107.135 21.6797C107.411 21.6172 107.688 21.5677 107.967 21.5313C108.331 21.4844 108.627 21.4492 108.854 21.4258C109.083 21.3997 109.249 21.3568 109.354 21.2969C109.46 21.237 109.514 21.1328 109.514 20.9844V20.9531C109.514 20.5677 109.408 20.2682 109.197 20.0547C108.989 19.8411 108.673 19.7344 108.248 19.7344C107.808 19.7344 107.463 19.8307 107.213 20.0234C106.963 20.2161 106.787 20.4219 106.686 20.6406L105.811 20.3281C105.967 19.9635 106.175 19.6797 106.436 19.4766C106.699 19.2708 106.985 19.1276 107.295 19.0469C107.607 18.9635 107.915 18.9219 108.217 18.9219C108.41 18.9219 108.631 18.9453 108.881 18.9922C109.133 19.0365 109.377 19.1289 109.611 19.2695C109.848 19.4102 110.045 19.6224 110.201 19.9062C110.357 20.1901 110.436 20.5703 110.436 21.0469V25H109.514V24.1875H109.467C109.404 24.3177 109.3 24.457 109.154 24.6055C109.008 24.7539 108.814 24.8802 108.572 24.9844C108.33 25.0885 108.035 25.1406 107.686 25.1406ZM107.826 24.3125C108.191 24.3125 108.498 24.2409 108.748 24.0977C109.001 23.9544 109.191 23.7695 109.318 23.543C109.449 23.3164 109.514 23.0781 109.514 22.8281V21.9844C109.475 22.0312 109.389 22.0742 109.256 22.1133C109.126 22.1497 108.975 22.1823 108.803 22.2109C108.633 22.237 108.468 22.2604 108.307 22.2812C108.148 22.2995 108.019 22.3151 107.92 22.3281C107.68 22.3594 107.456 22.4102 107.248 22.4805C107.042 22.5482 106.876 22.651 106.748 22.7891C106.623 22.9245 106.561 23.1094 106.561 23.3437C106.561 23.6641 106.679 23.9062 106.916 24.0703C107.156 24.2318 107.459 24.3125 107.826 24.3125ZM114.728 19V19.7812H111.618V19H114.728ZM112.524 17.5625H113.446V23.2812C113.446 23.5417 113.484 23.737 113.56 23.8672C113.638 23.9948 113.737 24.0807 113.856 24.125C113.979 24.1667 114.108 24.1875 114.243 24.1875C114.345 24.1875 114.428 24.1823 114.493 24.1719C114.558 24.1589 114.61 24.1484 114.649 24.1406L114.837 24.9687C114.774 24.9922 114.687 25.0156 114.575 25.0391C114.463 25.0651 114.321 25.0781 114.149 25.0781C113.889 25.0781 113.634 25.0221 113.384 24.9102C113.136 24.7982 112.931 24.6276 112.767 24.3984C112.605 24.1693 112.524 23.8802 112.524 23.5312V17.5625ZM116.114 25V19H117.036V25H116.114ZM116.583 18C116.403 18 116.248 17.9388 116.118 17.8164C115.991 17.694 115.927 17.5469 115.927 17.375C115.927 17.2031 115.991 17.056 116.118 16.9336C116.248 16.8112 116.403 16.75 116.583 16.75C116.763 16.75 116.916 16.8112 117.044 16.9336C117.174 17.056 117.239 17.2031 117.239 17.375C117.239 17.5469 117.174 17.694 117.044 17.8164C116.916 17.9388 116.763 18 116.583 18ZM121.162 25.125C120.62 25.125 120.145 24.9961 119.736 24.7383C119.33 24.4805 119.012 24.1198 118.783 23.6562C118.557 23.1927 118.443 22.651 118.443 22.0312C118.443 21.4062 118.557 20.8607 118.783 20.3945C119.012 19.9284 119.33 19.5664 119.736 19.3086C120.145 19.0508 120.62 18.9219 121.162 18.9219C121.704 18.9219 122.178 19.0508 122.584 19.3086C122.993 19.5664 123.311 19.9284 123.537 20.3945C123.766 20.8607 123.881 21.4062 123.881 22.0312C123.881 22.651 123.766 23.1927 123.537 23.6562C123.311 24.1198 122.993 24.4805 122.584 24.7383C122.178 24.9961 121.704 25.125 121.162 25.125ZM121.162 24.2969C121.574 24.2969 121.912 24.1914 122.178 23.9805C122.443 23.7695 122.64 23.4922 122.768 23.1484C122.895 22.8047 122.959 22.4323 122.959 22.0312C122.959 21.6302 122.895 21.2565 122.768 20.9102C122.64 20.5638 122.443 20.2839 122.178 20.0703C121.912 19.8568 121.574 19.75 121.162 19.75C120.751 19.75 120.412 19.8568 120.146 20.0703C119.881 20.2839 119.684 20.5638 119.557 20.9102C119.429 21.2565 119.365 21.6302 119.365 22.0312C119.365 22.4323 119.429 22.8047 119.557 23.1484C119.684 23.4922 119.881 23.7695 120.146 23.9805C120.412 24.1914 120.751 24.2969 121.162 24.2969ZM126.21 21.3906V25H125.288V19H126.179V19.9375H126.257C126.397 19.6328 126.611 19.388 126.897 19.2031C127.184 19.0156 127.554 18.9219 128.007 18.9219C128.413 18.9219 128.769 19.0052 129.073 19.1719C129.378 19.3359 129.615 19.5859 129.784 19.9219C129.953 20.2552 130.038 20.6771 130.038 21.1875V25H129.116V21.25C129.116 20.7786 128.994 20.4115 128.749 20.1484C128.504 19.8828 128.168 19.75 127.741 19.75C127.447 19.75 127.184 19.8138 126.952 19.9414C126.723 20.069 126.542 20.2552 126.409 20.5C126.276 20.7448 126.21 21.0417 126.21 21.3906Z" fill="black"/>
</svg>
