<svg width="138" height="41" viewBox="0 0 138 41" fill="none" xmlns="http://www.w3.org/2000/svg">
<rect x="0.5" y="0.5" width="137" height="40" rx="4.5" fill="#F7F7F7" stroke="#3C3C3C"/>
<path d="M40.4205 20.6364C40.4205 21.5568 40.2543 22.3523 39.9219 23.0227C39.5895 23.6932 39.1335 24.2102 38.554 24.5739C37.9744 24.9375 37.3125 25.1193 36.5682 25.1193C35.8239 25.1193 35.1619 24.9375 34.5824 24.5739C34.0028 24.2102 33.5469 23.6932 33.2145 23.0227C32.8821 22.3523 32.7159 21.5568 32.7159 20.6364C32.7159 19.7159 32.8821 18.9205 33.2145 18.25C33.5469 17.5795 34.0028 17.0625 34.5824 16.6989C35.1619 16.3352 35.8239 16.1534 36.5682 16.1534C37.3125 16.1534 37.9744 16.3352 38.554 16.6989C39.1335 17.0625 39.5895 17.5795 39.9219 18.25C40.2543 18.9205 40.4205 19.7159 40.4205 20.6364ZM39.3977 20.6364C39.3977 19.8807 39.2713 19.2429 39.0185 18.723C38.7685 18.2031 38.429 17.8097 38 17.5426C37.5739 17.2756 37.0966 17.142 36.5682 17.142C36.0398 17.142 35.5611 17.2756 35.1321 17.5426C34.706 17.8097 34.3665 18.2031 34.1136 18.723C33.8636 19.2429 33.7386 19.8807 33.7386 20.6364C33.7386 21.392 33.8636 22.0298 34.1136 22.5497C34.3665 23.0696 34.706 23.4631 35.1321 23.7301C35.5611 23.9972 36.0398 24.1307 36.5682 24.1307C37.0966 24.1307 37.5739 23.9972 38 23.7301C38.429 23.4631 38.7685 23.0696 39.0185 22.5497C39.2713 22.0298 39.3977 21.392 39.3977 20.6364ZM42.0611 27.4545V18.4545H43.0327V19.4943H43.152C43.2259 19.3807 43.3281 19.2358 43.4588 19.0597C43.5923 18.8807 43.7827 18.7216 44.0298 18.5824C44.2798 18.4403 44.6179 18.3693 45.044 18.3693C45.5952 18.3693 46.081 18.5071 46.5014 18.7827C46.9219 19.0582 47.25 19.4489 47.4858 19.9545C47.7216 20.4602 47.8395 21.0568 47.8395 21.7443C47.8395 22.4375 47.7216 23.0384 47.4858 23.5469C47.25 24.0526 46.9233 24.4446 46.5057 24.723C46.0881 24.9986 45.6065 25.1364 45.0611 25.1364C44.6406 25.1364 44.304 25.0668 44.0511 24.9276C43.7983 24.7855 43.6037 24.625 43.4673 24.446C43.331 24.2642 43.2259 24.1136 43.152 23.9943H43.0668V27.4545H42.0611ZM43.0497 21.7273C43.0497 22.2216 43.1222 22.6577 43.267 23.0355C43.4119 23.4105 43.6236 23.7045 43.902 23.9176C44.1804 24.1278 44.5213 24.233 44.9247 24.233C45.3452 24.233 45.696 24.1222 45.9773 23.9006C46.2614 23.6761 46.4744 23.375 46.6165 22.9972C46.7614 22.6165 46.8338 22.1932 46.8338 21.7273C46.8338 21.267 46.7628 20.8523 46.6207 20.483C46.4815 20.1108 46.2699 19.8168 45.9858 19.6009C45.7045 19.3821 45.3509 19.2727 44.9247 19.2727C44.5156 19.2727 44.1719 19.3764 43.8935 19.5838C43.6151 19.7884 43.4048 20.0753 43.2628 20.4446C43.1207 20.8111 43.0497 21.2386 43.0497 21.7273ZM52.1179 25.1364C51.4872 25.1364 50.9432 24.9972 50.4858 24.7188C50.0312 24.4375 49.6804 24.0455 49.4332 23.5426C49.1889 23.0369 49.0668 22.4489 49.0668 21.7784C49.0668 21.108 49.1889 20.517 49.4332 20.0057C49.6804 19.4915 50.0241 19.0909 50.4645 18.804C50.9077 18.5142 51.4247 18.3693 52.0156 18.3693C52.3565 18.3693 52.6932 18.4261 53.0256 18.5398C53.358 18.6534 53.6605 18.8381 53.9332 19.0938C54.206 19.3466 54.4233 19.6818 54.5852 20.0994C54.7472 20.517 54.8281 21.0312 54.8281 21.642V22.0682H49.7827V21.1989H53.8054C53.8054 20.8295 53.7315 20.5 53.5838 20.2102C53.4389 19.9205 53.2315 19.6918 52.9616 19.5241C52.6946 19.3565 52.3793 19.2727 52.0156 19.2727C51.6151 19.2727 51.2685 19.3722 50.9759 19.571C50.6861 19.767 50.4631 20.0227 50.3068 20.3381C50.1506 20.6534 50.0724 20.9915 50.0724 21.3523V21.9318C50.0724 22.4261 50.1577 22.8452 50.3281 23.1889C50.5014 23.5298 50.7415 23.7898 51.0483 23.9688C51.3551 24.1449 51.7116 24.233 52.1179 24.233C52.3821 24.233 52.6207 24.196 52.8338 24.1222C53.0497 24.0455 53.2358 23.9318 53.392 23.7812C53.5483 23.6278 53.669 23.4375 53.7543 23.2102L54.7259 23.483C54.6236 23.8125 54.4517 24.1023 54.2102 24.3523C53.9688 24.5994 53.6705 24.7926 53.3153 24.9318C52.9602 25.0682 52.5611 25.1364 52.1179 25.1364ZM57.3636 21.0625V25H56.358V18.4545H57.3295V19.4773H57.4148C57.5682 19.1449 57.8011 18.8778 58.1136 18.6761C58.4261 18.4716 58.8295 18.3693 59.3239 18.3693C59.767 18.3693 60.1548 18.4602 60.4872 18.642C60.8196 18.821 61.0781 19.0938 61.2628 19.4602C61.4474 19.8239 61.5398 20.2841 61.5398 20.8409V25H60.5341V20.9091C60.5341 20.3949 60.4006 19.9943 60.1335 19.7074C59.8665 19.4176 59.5 19.2727 59.0341 19.2727C58.7131 19.2727 58.4261 19.3423 58.1733 19.4815C57.9233 19.6207 57.7259 19.8239 57.581 20.0909C57.4361 20.358 57.3636 20.6818 57.3636 21.0625ZM66.7525 25V18.4545H67.7582V25H66.7525ZM67.2638 17.3636C67.0678 17.3636 66.8988 17.2969 66.7567 17.1634C66.6175 17.0298 66.5479 16.8693 66.5479 16.6818C66.5479 16.4943 66.6175 16.3338 66.7567 16.2003C66.8988 16.0668 67.0678 16 67.2638 16C67.4599 16 67.6275 16.0668 67.7667 16.2003C67.9087 16.3338 67.9798 16.4943 67.9798 16.6818C67.9798 16.8693 67.9087 17.0298 67.7667 17.1634C67.6275 17.2969 67.4599 17.3636 67.2638 17.3636ZM70.6058 21.0625V25H69.6001V18.4545H70.5717V19.4773H70.657C70.8104 19.1449 71.0433 18.8778 71.3558 18.6761C71.6683 18.4716 72.0717 18.3693 72.5661 18.3693C73.0092 18.3693 73.397 18.4602 73.7294 18.642C74.0618 18.821 74.3203 19.0938 74.505 19.4602C74.6896 19.8239 74.782 20.2841 74.782 20.8409V25H73.7763V20.9091C73.7763 20.3949 73.6428 19.9943 73.3757 19.7074C73.1087 19.4176 72.7422 19.2727 72.2763 19.2727C71.9553 19.2727 71.6683 19.3423 71.4155 19.4815C71.1655 19.6207 70.968 19.8239 70.8232 20.0909C70.6783 20.358 70.6058 20.6818 70.6058 21.0625ZM81.9208 25.1534C81.506 25.1534 81.1296 25.0753 80.7915 24.919C80.4535 24.7599 80.185 24.5312 79.9862 24.233C79.7873 23.9318 79.6879 23.5682 79.6879 23.142C79.6879 22.767 79.7617 22.4631 79.9094 22.2301C80.0572 21.9943 80.2546 21.8097 80.5018 21.6761C80.7489 21.5426 81.0217 21.4432 81.32 21.3778C81.6211 21.3097 81.9237 21.2557 82.2276 21.2159C82.6254 21.1648 82.9478 21.1264 83.195 21.1009C83.445 21.0724 83.6268 21.0256 83.7404 20.9602C83.8569 20.8949 83.9151 20.7812 83.9151 20.6193V20.5852C83.9151 20.1648 83.8001 19.8381 83.57 19.6051C83.3427 19.3722 82.9975 19.2557 82.5344 19.2557C82.0543 19.2557 81.6779 19.3608 81.4052 19.571C81.1325 19.7812 80.9407 20.0057 80.8299 20.2443L79.8754 19.9034C80.0458 19.5057 80.2731 19.196 80.5572 18.9744C80.8441 18.75 81.1566 18.5937 81.4947 18.5057C81.8356 18.4148 82.1708 18.3693 82.5004 18.3693C82.7106 18.3693 82.9521 18.3949 83.2248 18.446C83.5004 18.4943 83.766 18.5952 84.0217 18.7486C84.2802 18.902 84.4947 19.1335 84.6651 19.4432C84.8356 19.7528 84.9208 20.1676 84.9208 20.6875V25H83.9151V24.1136H83.864C83.7958 24.2557 83.6822 24.4077 83.5231 24.5696C83.364 24.7315 83.1523 24.8693 82.8881 24.983C82.6239 25.0966 82.3015 25.1534 81.9208 25.1534ZM82.0742 24.25C82.4719 24.25 82.8072 24.1719 83.0799 24.0156C83.3555 23.8594 83.5629 23.6577 83.7021 23.4105C83.8441 23.1634 83.9151 22.9034 83.9151 22.6307V21.7102C83.8725 21.7614 83.7788 21.8082 83.6339 21.8509C83.4918 21.8906 83.3271 21.9261 83.1396 21.9574C82.9549 21.9858 82.7745 22.0114 82.5984 22.0341C82.4251 22.054 82.2844 22.071 82.1765 22.0852C81.9151 22.1193 81.6708 22.1747 81.4435 22.2514C81.2191 22.3253 81.0373 22.4375 80.8981 22.5881C80.7617 22.7358 80.6935 22.9375 80.6935 23.1932C80.6935 23.5426 80.8228 23.8068 81.0813 23.9858C81.3427 24.1619 81.6737 24.25 82.0742 24.25ZM86.7564 27.4545V18.4545H87.728V19.4943H87.8473C87.9212 19.3807 88.0234 19.2358 88.1541 19.0597C88.2876 18.8807 88.478 18.7216 88.7251 18.5824C88.9751 18.4403 89.3132 18.3693 89.7393 18.3693C90.2905 18.3693 90.7763 18.5071 91.1967 18.7827C91.6172 19.0582 91.9453 19.4489 92.1811 19.9545C92.4169 20.4602 92.5348 21.0568 92.5348 21.7443C92.5348 22.4375 92.4169 23.0384 92.1811 23.5469C91.9453 24.0526 91.6186 24.4446 91.201 24.723C90.7834 24.9986 90.3018 25.1364 89.7564 25.1364C89.3359 25.1364 88.9993 25.0668 88.7464 24.9276C88.4936 24.7855 88.299 24.625 88.1626 24.446C88.0263 24.2642 87.9212 24.1136 87.8473 23.9943H87.7621V27.4545H86.7564ZM87.745 21.7273C87.745 22.2216 87.8175 22.6577 87.9624 23.0355C88.1072 23.4105 88.3189 23.7045 88.5973 23.9176C88.8757 24.1278 89.2166 24.233 89.62 24.233C90.0405 24.233 90.3913 24.1222 90.6726 23.9006C90.9567 23.6761 91.1697 23.375 91.3118 22.9972C91.4567 22.6165 91.5291 22.1932 91.5291 21.7273C91.5291 21.267 91.4581 20.8523 91.3161 20.483C91.1768 20.1108 90.9652 19.8168 90.6811 19.6009C90.3999 19.3821 90.0462 19.2727 89.62 19.2727C89.2109 19.2727 88.8672 19.3764 88.5888 19.5838C88.3104 19.7884 88.1001 20.0753 87.9581 20.4446C87.8161 20.8111 87.745 21.2386 87.745 21.7273ZM94.0689 27.4545V18.4545H95.0405V19.4943H95.1598C95.2337 19.3807 95.3359 19.2358 95.4666 19.0597C95.6001 18.8807 95.7905 18.7216 96.0376 18.5824C96.2876 18.4403 96.6257 18.3693 97.0518 18.3693C97.603 18.3693 98.0888 18.5071 98.5092 18.7827C98.9297 19.0582 99.2578 19.4489 99.4936 19.9545C99.7294 20.4602 99.8473 21.0568 99.8473 21.7443C99.8473 22.4375 99.7294 23.0384 99.4936 23.5469C99.2578 24.0526 98.9311 24.4446 98.5135 24.723C98.0959 24.9986 97.6143 25.1364 97.0689 25.1364C96.6484 25.1364 96.3118 25.0668 96.0589 24.9276C95.8061 24.7855 95.6115 24.625 95.4751 24.446C95.3388 24.2642 95.2337 24.1136 95.1598 23.9943H95.0746V27.4545H94.0689ZM95.0575 21.7273C95.0575 22.2216 95.13 22.6577 95.2749 23.0355C95.4197 23.4105 95.6314 23.7045 95.9098 23.9176C96.1882 24.1278 96.5291 24.233 96.9325 24.233C97.353 24.233 97.7038 24.1222 97.9851 23.9006C98.2692 23.6761 98.4822 23.375 98.6243 22.9972C98.7692 22.6165 98.8416 22.1932 98.8416 21.7273C98.8416 21.267 98.7706 20.8523 98.6286 20.483C98.4893 20.1108 98.2777 19.8168 97.9936 19.6009C97.7124 19.3821 97.3587 19.2727 96.9325 19.2727C96.5234 19.2727 96.1797 19.3764 95.9013 19.5838C95.6229 19.7884 95.4126 20.0753 95.2706 20.4446C95.1286 20.8111 95.0575 21.2386 95.0575 21.7273Z" fill="#232323"/>
</svg>
