<svg width="160" height="48.21" viewBox="0 0 114 36" fill="none" xmlns="http://www.w3.org/2000/svg">
  <g clip-path="url(#clip0_11502_1252)">
    <path
      d="M109.792 35.5801H3.54167C1.59375 35.5801 0 33.9864 0 32.0385V3.70513C0 1.75722 1.59375 0.163467 3.54167 0.163467H109.792C111.74 0.163467 113.333 1.75722 113.333 3.70513V32.0385C113.333 33.9864 111.74 35.5801 109.792 35.5801Z"
      fill="black" />
    <path fill-rule="evenodd" clip-rule="evenodd"
      d="M8.67709 17.5176V8.22075C8.67709 7.6895 9.11979 7.2468 9.5625 7.2468C10.0052 7.2468 10.1823 7.33534 10.4479 7.51242L27.5365 16.8978C27.8906 17.0749 28.0677 17.3405 28.0677 17.6062C28.0677 17.8718 27.8906 18.1374 27.5365 18.3145L10.4479 27.6999C10.2708 27.7885 10.0052 27.9655 9.5625 27.9655C9.11979 27.9655 8.67709 27.5228 8.67709 26.9916V17.5176Z"
      fill="url(#paint0_linear_11502_1252)" />
    <path fill-rule="evenodd" clip-rule="evenodd"
      d="M19.7448 17.6062L9.38541 7.2468C9.47396 7.2468 9.47395 7.2468 9.56249 7.2468C10.0052 7.2468 10.1823 7.33534 10.4479 7.51242L23.0208 14.4187L19.7448 17.6062Z"
      fill="url(#paint1_linear_11502_1252)" />
    <path fill-rule="evenodd" clip-rule="evenodd"
      d="M22.9323 20.7051L19.7448 17.5176L23.0208 14.2416L27.5365 16.7207C27.8906 16.8978 28.0677 17.1635 28.0677 17.4291C28.0677 17.6947 27.8906 17.9603 27.5365 18.1374L22.9323 20.7051Z"
      fill="url(#paint2_linear_11502_1252)" />
    <path fill-rule="evenodd" clip-rule="evenodd"
      d="M9.47395 27.7884L19.7448 17.5176L22.9323 20.7051L10.4479 27.5228C10.1823 27.6999 10.0052 27.7884 9.47395 27.7884C9.56249 27.7884 9.56249 27.7884 9.47395 27.7884Z"
      fill="url(#paint3_linear_11502_1252)" />
    <path fill-rule="evenodd" clip-rule="evenodd"
      d="M62.9531 30.1791C62.5104 29.8249 62.1562 29.2051 61.9792 28.851L63.3958 28.2312C63.4844 28.4082 63.6615 28.6739 63.8385 28.9395C64.1927 29.2937 64.724 29.6478 65.2552 29.6478C65.7865 29.6478 66.4062 29.3822 66.7604 28.9395C67.026 28.4968 67.2031 28.0541 67.2031 27.4343V26.903C66.1406 28.2312 63.9271 28.0541 62.6875 26.6374C61.3594 25.2207 61.3594 22.8301 62.6875 21.4135C64.0156 20.0853 65.9635 19.9082 67.1146 21.1478V20.528H68.6198V27.1687C68.6198 28.851 68 29.8249 67.2031 30.4447C66.6719 30.8874 65.875 31.0645 65.1667 31.0645C64.3698 30.976 63.5729 30.7103 62.9531 30.1791ZM100.052 30.5332L101.557 26.9916L98.901 20.8822H100.406L102.266 25.2207L104.125 20.8822H105.63L101.557 30.5332H100.052ZM92.8802 27.1687C92.4375 26.726 92.2604 26.1062 92.2604 25.4864C92.2604 24.9551 92.4375 24.4239 92.7916 24.0697C93.4114 23.4499 94.2969 23.1843 95.2708 23.1843C95.8906 23.1843 96.4219 23.2728 96.8646 23.5385C96.8646 22.476 95.9792 22.0332 95.2708 22.0332C94.651 22.0332 94.0312 22.3874 93.7656 23.0072L92.4375 22.476C92.7031 21.8562 93.4114 20.7051 95.1823 20.7051C96.0677 20.7051 96.9531 20.9707 97.4844 21.5905C98.0156 22.2103 98.1927 22.9187 98.1927 23.8926V27.6114H96.6875V26.9916C96.5104 27.2572 96.1562 27.4343 95.8906 27.6114C95.5364 27.7885 95.0937 27.877 94.651 27.877C94.1198 27.7885 93.3229 27.6114 92.8802 27.1687ZM45.6875 23.9812C45.6875 22.2103 47.0156 20.2624 49.4062 20.2624C51.7083 20.2624 53.125 22.2103 53.125 23.9812C53.125 25.752 51.7969 27.6999 49.4062 27.6999C47.0156 27.6999 45.6875 25.752 45.6875 23.9812ZM53.6562 23.9812C53.6562 22.2103 54.9844 20.2624 57.375 20.2624C59.6771 20.2624 61.0937 22.2103 61.0937 23.9812C61.0937 25.752 59.7656 27.6999 57.375 27.6999C55.0729 27.6999 53.6562 25.752 53.6562 23.9812ZM35.6823 25.9291C33.4687 23.7155 33.5573 20.0853 35.7708 17.7832C36.9219 16.6322 38.3385 16.101 39.8437 16.101C41.2604 16.101 42.6771 16.6322 43.7396 17.6947L42.6771 18.8457C41.0833 17.252 38.5156 17.3405 37.0104 18.9343C35.4167 20.6166 35.4167 23.1843 37.0104 24.8666C38.6042 26.5489 41.2604 26.6374 42.8542 24.9551C43.3854 24.4239 43.5625 23.7155 43.651 23.0072H39.9323V21.4135H45.1562C45.2448 21.7676 45.2448 22.2103 45.2448 22.653C45.2448 23.9812 44.7135 25.3093 43.8281 26.1947C42.8542 27.1687 41.4375 27.6999 40.0208 27.6999C38.4271 27.6114 36.8333 27.0801 35.6823 25.9291ZM73.1354 26.5489C71.8073 25.1322 71.8073 22.7416 73.1354 21.2364C74.4635 19.8197 76.6771 19.8197 77.9167 21.2364C78.3594 21.6791 78.625 22.2989 78.8906 22.9187L74.0208 24.9551C74.2865 25.5749 74.9062 26.1062 75.7917 26.1062C76.5885 26.1062 77.1198 25.8405 77.651 25.0437L78.9792 25.9291C78.8021 26.1062 78.625 26.2832 78.5365 26.4603C77.0312 27.9655 74.4635 27.9655 73.1354 26.5489ZM82.3437 27.6114V17.7832H85.5312C87.3906 17.7832 88.8958 19.1114 88.8958 20.7051C88.8958 22.2989 87.5677 23.627 85.8854 23.627H83.9375V27.5228H82.3437V27.6114ZM89.7812 27.6114V17.7832H91.2864V27.6114H89.7812ZM69.7708 27.4343V16.4551H71.3646V27.4343H69.7708ZM96.776 24.6895C96.4218 24.4239 95.8906 24.3353 95.3594 24.3353C94.2969 24.3353 93.6771 24.8666 93.6771 25.4864C93.6771 26.1062 94.2969 26.4603 94.9167 26.4603C95.8021 26.4603 96.776 25.752 96.776 24.6895ZM51.4427 23.9812C51.4427 22.9187 50.7344 21.7676 49.4062 21.7676C48.0781 21.7676 47.3698 22.9187 47.3698 23.9812C47.3698 25.0437 48.0781 26.1947 49.4062 26.1947C50.6458 26.1947 51.4427 25.0437 51.4427 23.9812ZM59.4115 23.9812C59.4115 22.9187 58.7031 21.7676 57.375 21.7676C56.0469 21.7676 55.3385 22.9187 55.3385 23.9812C55.3385 25.0437 56.0469 26.1947 57.375 26.1947C58.7031 26.1947 59.4115 25.0437 59.4115 23.9812ZM67.2917 24.601C67.2917 24.5124 67.2917 24.4239 67.3802 24.3353C67.3802 24.2468 67.3802 24.0697 67.3802 23.9812C67.3802 23.8926 67.3802 23.7155 67.3802 23.627V23.5385C67.3802 23.4499 67.2917 23.2728 67.2917 23.1843C67.026 22.2989 66.2292 21.6791 65.4323 21.6791C64.3698 21.6791 63.4844 22.7416 63.4844 23.8926C63.4844 25.1322 64.3698 26.1062 65.5208 26.1062C66.2292 26.1947 66.9375 25.5749 67.2917 24.601ZM73.7552 23.8041L77.0312 22.3874C76.6771 21.7676 76.1458 21.5905 75.7031 21.5905C74.375 21.6791 73.5781 23.0957 73.7552 23.8041ZM87.3021 20.7937C87.3021 19.9082 86.5938 19.2885 85.6198 19.2885H83.849V22.3874H85.7083C86.5937 22.3874 87.3021 21.6791 87.3021 20.7937Z"
      fill="white" />
    <path fill-rule="evenodd" clip-rule="evenodd"
      d="M101.202 28.7618H101.115V28.6739H101.202H101.115V28.7618H101.202Z" fill="white" />
    <path fill-rule="evenodd" clip-rule="evenodd"
      d="M101.38 28.7618C101.38 28.6739 101.38 28.6739 101.38 28.7618C101.292 28.6739 101.292 28.6739 101.38 28.7618C101.292 28.7618 101.292 28.7618 101.38 28.7618ZM101.38 28.6739C101.38 28.7618 101.38 28.7618 101.38 28.6739C101.292 28.7618 101.38 28.7618 101.38 28.6739C101.38 28.6739 101.292 28.6739 101.38 28.6739Z"
      fill="white" />
    <path fill-rule="evenodd" clip-rule="evenodd"
      d="M101.468 28.6739H101.38H101.468V28.7618V28.6739Z" fill="white" />
    <path
      d="M34.4427 9.10618C34.4427 7.51243 35.5938 6.53847 37.0104 6.53847C37.9844 6.53847 38.6042 6.98118 39.0469 7.60097L38.3385 8.04368C38.0729 7.68951 37.6302 7.42388 37.0104 7.42388C36.0365 7.42388 35.3281 8.13222 35.3281 9.19472C35.3281 10.2572 36.0365 10.9656 37.0104 10.9656C37.5417 10.9656 37.9844 10.6999 38.1615 10.5228V9.72597H36.7448V8.92909H39.1354V10.7885C38.6927 11.3197 37.9844 11.6739 37.099 11.6739C35.5937 11.6739 34.4427 10.6114 34.4427 9.10618Z"
      fill="white" />
    <path
      d="M40.1979 11.5853V6.62698H43.5625V7.42386H40.9948V8.66344H43.474V9.46032H40.9948V10.877H43.5625V11.6739L40.1979 11.5853Z"
      fill="white" />
    <path d="M46.0417 11.5853V7.42386H44.5365V6.62698H48.4323V7.42386H46.9271V11.5853H46.0417Z"
      fill="white" />
    <path d="M51.4427 11.5853V6.62698H52.3281V11.5853H51.4427Z" fill="white" />
    <path d="M54.7187 11.5853V7.42386H53.2135V6.62698H57.1094V7.42386H55.6042V11.5853H54.7187Z"
      fill="white" />
    <path
      d="M59.9427 9.10618C59.9427 7.60097 61.0052 6.53847 62.5104 6.53847C64.0156 6.53847 65.0781 7.60097 65.0781 9.10618C65.0781 10.6114 64.0156 11.6739 62.5104 11.6739C61.0052 11.6739 59.9427 10.5228 59.9427 9.10618ZM64.1042 9.10618C64.1042 8.04368 63.4844 7.33534 62.4219 7.33534C61.4479 7.33534 60.7396 8.13222 60.7396 9.10618C60.7396 10.1687 61.3594 10.877 62.4219 10.877C63.4844 10.877 64.1042 10.0801 64.1042 9.10618Z"
      fill="white" />
    <path
      d="M69.5052 11.5853L66.9375 8.04365V11.5853H66.0521V6.62698H66.9375L69.5052 10.0801V6.62698H70.3906V11.5853H69.5052Z"
      fill="white" />
  </g>
  <defs>
    <linearGradient id="paint0_linear_11502_1252" x1="14.4034" y1="5.98384" x2="19.3602"
      y2="26.3404" gradientUnits="userSpaceOnUse">
      <stop stop-color="#006884" />
      <stop offset="1" stop-color="#8AD1D0" />
    </linearGradient>
    <linearGradient id="paint1_linear_11502_1252" x1="8.35895" y1="8.87933" x2="21.8669"
      y2="16.1818" gradientUnits="userSpaceOnUse">
      <stop stop-color="#24BBB6" />
      <stop offset="1" stop-color="#DBE692" />
    </linearGradient>
    <linearGradient id="paint2_linear_11502_1252" x1="23.9013" y1="21.0771" x2="23.9013"
      y2="14.0394" gradientUnits="userSpaceOnUse">
      <stop stop-color="#FCC072" />
      <stop offset="1" stop-color="#F58A5B" />
    </linearGradient>
    <linearGradient id="paint3_linear_11502_1252" x1="10.9745" y1="29.6205" x2="21.6453"
      y2="18.7607" gradientUnits="userSpaceOnUse">
      <stop stop-color="#712B8F" />
      <stop offset="1" stop-color="#EA1D27" />
    </linearGradient>
    <clipPath id="clip0_11502_1252">
      <rect width="113.333" height="35.7436" fill="white" />
    </clipPath>
  </defs>
</svg>