<svg width="160" height="48.21" viewBox="0 0 114 36" fill="none" xmlns="http://www.w3.org/2000/svg">
  <g clip-path="url(#clip0_11502_1284)">
    <path
      d="M110.458 35.1442H4.20832C2.2604 35.1442 0.666655 33.5505 0.666655 31.6026V3.26922C0.666655 1.3213 2.2604 -0.272446 4.20832 -0.272446H110.458C112.406 -0.272446 114 1.3213 114 3.26922V31.6026C114 33.5505 112.406 35.1442 110.458 35.1442Z"
      fill="black" />
    <path
      d="M24.5729 17.2588C24.5729 14.514 26.875 13.1859 26.9635 13.0973C25.6354 11.238 23.6875 10.9723 22.9791 10.8838C21.2969 10.7067 19.6146 11.8578 18.8177 11.8578C17.9323 11.8578 16.6041 10.8838 15.1875 10.8838C13.3281 10.8838 11.6458 11.9463 10.6719 13.6286C8.72394 16.9932 10.1406 21.9515 12 24.6963C12.9739 26.0244 14.0364 27.5296 15.4531 27.4411C16.8698 27.3526 17.401 26.5557 19.0833 26.5557C20.7656 26.5557 21.2083 27.4411 22.7135 27.4411C24.2187 27.4411 25.1927 26.113 26.0781 24.7848C27.1406 23.2796 27.5833 21.7744 27.5833 21.6859C27.4948 21.5973 24.5729 20.5348 24.5729 17.2588Z"
      fill="white" />
    <path
      d="M21.8281 9.11297C22.5364 8.13901 23.0677 6.89943 22.9791 5.5713C21.9166 5.65985 20.5 6.27964 19.7916 7.2536C19.0833 8.05047 18.4635 9.37859 18.6406 10.6182C19.7916 10.7067 21.0312 9.99839 21.8281 9.11297Z"
      fill="white" />
    <path
      d="M44.7604 27.264H42.8125L41.75 23.8994H38.0312L37.0573 27.264H35.1979L38.9166 15.8421H41.2187L44.7604 27.264ZM41.3958 22.4828L40.4219 19.4723C40.3333 19.2067 40.1562 18.4098 39.8021 17.3473C39.7135 17.7901 39.5364 18.5869 39.2708 19.4723L38.2968 22.4828H41.3958Z"
      fill="white" />
    <path
      d="M54.2344 23.1026C54.2344 24.5192 53.8802 25.5817 53.0833 26.4671C52.375 27.1755 51.5781 27.5296 50.5156 27.5296C49.4531 27.5296 48.6562 27.1755 48.2135 26.3786V30.7171H46.3541V21.863C46.3541 20.9776 46.3541 20.0921 46.2656 19.1182H47.8594L47.9479 20.4463C48.5677 19.4724 49.4531 18.9411 50.6927 18.9411C51.6666 18.9411 52.4635 19.2953 53.0833 20.0921C53.8802 20.8005 54.2344 21.7744 54.2344 23.1026ZM52.375 23.1026C52.375 22.3057 52.1979 21.5974 51.8437 21.1546C51.4896 20.6234 50.9583 20.3578 50.25 20.3578C49.8073 20.3578 49.3646 20.5348 49.0104 20.8005C48.6562 21.0661 48.3906 21.5088 48.3021 21.9515C48.2135 22.2171 48.2135 22.3942 48.2135 22.4828V23.8994C48.2135 24.5192 48.3906 24.9619 48.7448 25.4046C49.0989 25.8474 49.6302 26.0244 50.1614 26.0244C50.8698 26.0244 51.401 25.7588 51.7552 25.2276C52.1979 24.6963 52.375 23.988 52.375 23.1026Z"
      fill="white" />
    <path
      d="M63.7083 23.1026C63.7083 24.5192 63.3541 25.5817 62.5573 26.4671C61.8489 27.1755 61.0521 27.5296 59.9896 27.5296C58.9271 27.5296 58.1302 27.1755 57.6875 26.3786V30.7171H55.8281V21.863C55.8281 20.9776 55.8281 20.0921 55.7396 19.1182H57.3333L57.4219 20.4463C58.0416 19.4724 58.9271 18.9411 60.1666 18.9411C61.1406 18.9411 61.9375 19.2953 62.5573 20.0921C63.3541 20.8005 63.7083 21.7744 63.7083 23.1026ZM61.8489 23.1026C61.8489 22.3057 61.6718 21.5974 61.3177 21.1546C60.9635 20.6234 60.4323 20.3578 59.7239 20.3578C59.2812 20.3578 58.8385 20.5348 58.4844 20.8005C58.1302 21.0661 57.8646 21.5088 57.776 21.9515C57.6875 22.2171 57.6875 22.3942 57.6875 22.4828V23.8994C57.6875 24.5192 57.8646 24.9619 58.2187 25.4046C58.5729 25.8474 59.1041 26.0244 59.6354 26.0244C60.3437 26.0244 60.875 25.7588 61.2291 25.2276C61.6719 24.6963 61.8489 23.988 61.8489 23.1026Z"
      fill="white" />
    <path
      d="M74.3333 24.0765C74.3333 25.0505 73.9792 25.8473 73.3594 26.4671C72.651 27.1755 71.5885 27.4411 70.2604 27.4411C69.0208 27.4411 68.0469 27.1755 67.3385 26.7327L67.7812 25.2275C68.5781 25.6702 69.4635 25.9359 70.4375 25.9359C71.1458 25.9359 71.6771 25.7588 72.0312 25.4932C72.3854 25.139 72.5625 24.7848 72.5625 24.2536C72.5625 23.8109 72.3854 23.3682 72.1198 23.1025C71.7656 22.7484 71.2344 22.4828 70.526 22.2171C68.4896 21.5088 67.5156 20.3578 67.5156 18.9411C67.5156 17.9671 67.8698 17.2588 68.5781 16.639C69.2864 16.0192 70.1719 15.7536 71.4114 15.7536C72.4739 15.7536 73.2708 15.9307 73.9792 16.2848L73.5364 17.79C72.9167 17.4359 72.2083 17.2588 71.3229 17.2588C70.7031 17.2588 70.1719 17.4359 69.8177 17.7015C69.5521 17.9671 69.375 18.3213 69.375 18.764C69.375 19.2067 69.5521 19.5609 69.9062 19.915C70.1719 20.1807 70.7917 20.4463 71.5885 20.8005C72.5625 21.1546 73.2708 21.6859 73.8021 22.2171C74.0677 22.6598 74.3333 23.2796 74.3333 24.0765Z"
      fill="white" />
    <path
      d="M80.3541 20.4463H78.3177V24.4307C78.3177 25.4046 78.6719 25.9359 79.3802 25.9359C79.7344 25.9359 80 25.9359 80.1771 25.8473L80.2656 27.264C79.9114 27.4411 79.4687 27.4411 78.8489 27.4411C78.1406 27.4411 77.5208 27.264 77.1666 26.8213C76.7239 26.3786 76.5468 25.6702 76.5468 24.6077V20.4463H75.3073V19.0296H76.5468V17.5244L78.3177 16.9932V19.0296H80.3541V20.4463Z"
      fill="white" />
    <path
      d="M89.4739 23.1026C89.4739 24.3421 89.1198 25.4046 88.4114 26.2015C87.6146 26.9984 86.6406 27.4411 85.401 27.4411C84.1614 27.4411 83.1875 26.9984 82.4792 26.2015C81.7708 25.4046 81.4166 24.4307 81.4166 23.1911C81.4166 21.9515 81.7708 20.889 82.5677 20.0921C83.276 19.2953 84.3385 18.8526 85.5781 18.8526C86.8177 18.8526 87.7916 19.2953 88.5 20.0921C89.1198 20.889 89.4739 21.863 89.4739 23.1026ZM87.526 23.1911C87.526 22.3942 87.3489 21.7744 86.9948 21.2432C86.6406 20.6234 86.0208 20.2692 85.3125 20.2692C84.6041 20.2692 83.9843 20.6234 83.6302 21.2432C83.276 21.7744 83.0989 22.4828 83.0989 23.1911C83.0989 23.988 83.276 24.6078 83.6302 25.139C83.9843 25.7588 84.6041 26.113 85.3125 26.113C86.0208 26.113 86.5521 25.7588 86.9948 25.139C87.3489 24.6078 87.526 23.8994 87.526 23.1911Z"
      fill="white" />
    <path
      d="M95.4062 20.6234C95.2291 20.6234 95.0521 20.5348 94.7864 20.5348C94.1666 20.5348 93.6354 20.8004 93.2812 21.2432C93.0156 21.6859 92.8385 22.2171 92.8385 22.8369V27.1755H90.9791V21.5088C90.9791 20.5348 90.9792 19.738 90.8906 18.9411H92.4843L92.5729 20.5348H92.6614C92.8385 20.0036 93.1927 19.5609 93.5469 19.2067C93.9896 18.9411 94.4323 18.764 94.875 18.764C95.0521 18.764 95.2292 18.764 95.3177 18.764V20.6234H95.4062Z"
      fill="white" />
    <path
      d="M103.552 22.7484C103.552 23.1026 103.552 23.3682 103.464 23.5453H97.9739C97.9739 24.3421 98.2396 24.9619 98.7708 25.4046C99.2135 25.7588 99.8333 26.0244 100.542 26.0244C101.339 26.0244 102.135 25.9359 102.755 25.6703L103.021 26.9098C102.224 27.264 101.339 27.4411 100.276 27.4411C99.0364 27.4411 97.9739 27.0869 97.2656 26.2901C96.5573 25.5817 96.2031 24.5192 96.2031 23.2796C96.2031 22.0401 96.5573 20.9776 97.1771 20.1807C97.8854 19.2953 98.8594 18.8526 100.099 18.8526C101.25 18.8526 102.224 19.2953 102.755 20.1807C103.375 20.889 103.552 21.7744 103.552 22.7484ZM101.87 22.3057C101.87 21.7744 101.781 21.3317 101.516 20.889C101.161 20.3578 100.719 20.0921 100.099 20.0921C99.4791 20.0921 99.0364 20.3578 98.6823 20.8005C98.4166 21.1546 98.2396 21.6859 98.151 22.2171H101.87V22.3057Z"
      fill="white" />
    <path
      d="M40.8646 8.84734C40.8646 9.82129 40.5989 10.6182 39.9791 11.1494C39.4479 11.5921 38.651 11.8578 37.5885 11.8578C37.0573 11.8578 36.6146 11.8578 36.2604 11.7692V6.27963C36.7031 6.19109 37.2343 6.19109 37.8541 6.19109C38.8281 6.19109 39.5364 6.36817 40.0677 6.81088C40.5104 7.25359 40.8646 7.96192 40.8646 8.84734ZM39.8906 8.84734C39.8906 8.22754 39.7135 7.69629 39.3594 7.34213C39.0052 6.98796 38.4739 6.81088 37.8541 6.81088C37.5885 6.81088 37.3229 6.81088 37.1458 6.89942V11.0609C37.2344 11.0609 37.5 11.0609 37.7656 11.0609C38.4739 11.0609 39.0052 10.8838 39.3594 10.5296C39.7135 10.1755 39.8906 9.55567 39.8906 8.84734Z"
      fill="white" />
    <path
      d="M45.8229 9.73274C45.8229 10.3525 45.6458 10.8838 45.2916 11.238C44.9375 11.6807 44.4062 11.8577 43.7864 11.8577C43.1666 11.8577 42.7239 11.6807 42.3698 11.238C42.0156 10.8838 41.8385 10.3525 41.8385 9.73274C41.8385 9.11295 42.0156 8.5817 42.3698 8.22753C42.7239 7.78483 43.2552 7.60774 43.875 7.60774C44.4948 7.60774 44.9375 7.78483 45.2916 8.22753C45.6458 8.5817 45.8229 9.11295 45.8229 9.73274ZM44.9375 9.73274C44.9375 9.37857 44.8489 9.02441 44.6719 8.75878C44.4948 8.40462 44.2291 8.31608 43.875 8.31608C43.5208 8.31608 43.2552 8.49316 43.0781 8.75878C42.901 9.02441 42.8125 9.37857 42.8125 9.73274C42.8125 10.0869 42.901 10.4411 43.0781 10.7067C43.2552 11.0609 43.5208 11.1494 43.875 11.1494C44.2291 11.1494 44.4948 10.9723 44.6719 10.6182C44.8489 10.4411 44.9375 10.0869 44.9375 9.73274Z"
      fill="white" />
    <path
      d="M52.6406 7.69629L51.401 11.7692H50.6041L50.0729 9.99837C49.8958 9.55566 49.8073 9.11296 49.7187 8.67025C49.6302 9.11296 49.5416 9.55566 49.3646 9.99837L48.8333 11.7692H48.0364L46.7083 7.69629H47.5937L48.0364 9.64421C48.125 10.0869 48.2135 10.5296 48.3021 10.9723C48.3906 10.6182 48.4791 10.1755 48.6562 9.64421L49.1875 7.69629H49.8958L50.4271 9.55566C50.6041 9.99837 50.6927 10.4411 50.7812 10.8838C50.8698 10.4411 50.9583 9.99837 51.0469 9.55566L51.5781 7.69629H52.6406Z"
      fill="white" />
    <path
      d="M57.2448 11.7692H56.3594V9.46713C56.3594 8.7588 56.0937 8.40463 55.5625 8.40463C55.2969 8.40463 55.1198 8.49317 54.9427 8.67025C54.7656 8.84734 54.6771 9.11296 54.6771 9.37859V11.7692H53.7916V8.84734C53.7916 8.49317 53.7916 8.139 53.7916 7.69629H54.5885V8.31609C54.6771 8.139 54.8541 7.96192 55.0312 7.78484C55.2969 7.60775 55.5625 7.51921 55.8281 7.51921C56.1823 7.51921 56.5364 7.60775 56.8021 7.87338C57.1562 8.139 57.2448 8.58171 57.2448 9.2015V11.7692Z"
      fill="white" />
    <path d="M59.7239 11.7692H58.8385V5.83691H59.7239V11.7692Z" fill="white" />
    <path
      d="M65.0364 9.73274C65.0364 10.3525 64.8593 10.8838 64.5052 11.238C64.151 11.6807 63.6198 11.8577 63 11.8577C62.3802 11.8577 61.9375 11.6807 61.5833 11.238C61.2291 10.8838 61.0521 10.3525 61.0521 9.73274C61.0521 9.11295 61.2291 8.5817 61.5833 8.22753C61.9375 7.87337 62.4687 7.60774 63.0885 7.60774C63.7083 7.60774 64.151 7.78483 64.5052 8.22753C64.8593 8.5817 65.0364 9.11295 65.0364 9.73274ZM64.151 9.73274C64.151 9.37857 64.0625 9.02441 63.8854 8.75878C63.7083 8.40462 63.4427 8.31608 63.0885 8.31608C62.7343 8.31608 62.4687 8.49316 62.2916 8.75878C62.1146 9.02441 62.026 9.37857 62.026 9.73274C62.026 10.0869 62.1146 10.4411 62.2916 10.7067C62.4687 11.0609 62.7343 11.1494 63.0885 11.1494C63.4427 11.1494 63.7083 10.9723 63.8854 10.6182C64.0625 10.4411 64.151 10.0869 64.151 9.73274Z"
      fill="white" />
    <path
      d="M69.375 11.7692H68.5781L68.4896 11.3265C68.2239 11.6807 67.7812 11.8577 67.3385 11.8577C66.9843 11.8577 66.6302 11.7692 66.4531 11.5036C66.276 11.2379 66.0989 10.9723 66.0989 10.7067C66.0989 10.1755 66.276 9.82128 66.7187 9.55566C67.1614 9.29003 67.6927 9.20149 68.4896 9.20149V9.11295C68.4896 8.5817 68.2239 8.31608 67.6927 8.31608C67.25 8.31608 66.9843 8.40462 66.6302 8.5817L66.4531 7.96191C66.8073 7.69628 67.25 7.60774 67.8698 7.60774C68.9323 7.60774 69.4635 8.13899 69.4635 9.29003V10.7952C69.375 11.238 69.375 11.5036 69.375 11.7692ZM68.4896 10.3525V9.73274C67.5156 9.73274 66.9843 9.99837 66.9843 10.5296C66.9843 10.7067 67.0729 10.8838 67.1614 10.9723C67.25 11.0609 67.4271 11.1494 67.6041 11.1494C67.7812 11.1494 67.9583 11.0609 68.1354 10.9723C68.3125 10.8838 68.401 10.7067 68.4896 10.5296C68.4896 10.5296 68.4896 10.4411 68.4896 10.3525Z"
      fill="white" />
    <path
      d="M74.5104 11.7692H73.7135V11.1494C73.4479 11.6807 73.0052 11.8578 72.3854 11.8578C71.8541 11.8578 71.5 11.6807 71.1458 11.3265C70.7917 10.9723 70.7031 10.4411 70.7031 9.82129C70.7031 9.2015 70.8802 8.67025 71.2344 8.22754C71.5885 7.87338 72.0312 7.69629 72.4739 7.69629C73.0052 7.69629 73.3594 7.87338 73.625 8.22754V5.92546H74.5104V10.7067C74.5104 11.0609 74.5104 11.415 74.5104 11.7692ZM73.625 10.0869V9.37859C73.625 9.29004 73.625 9.2015 73.625 9.11296C73.5364 8.93588 73.4479 8.75879 73.2708 8.58171C73.0937 8.40463 72.9166 8.40463 72.651 8.40463C72.2969 8.40463 72.0312 8.58171 71.8541 8.84733C71.6771 9.11296 71.5885 9.46713 71.5885 9.90984C71.5885 10.3525 71.6771 10.6182 71.8541 10.8838C72.0312 11.1494 72.2969 11.3265 72.651 11.3265C72.9166 11.3265 73.1823 11.238 73.3594 10.9723C73.5364 10.6182 73.625 10.3525 73.625 10.0869Z"
      fill="white" />
    <path
      d="M82.2135 9.73274C82.2135 10.3525 82.0364 10.8838 81.6823 11.238C81.3281 11.6807 80.7969 11.8577 80.1771 11.8577C79.5573 11.8577 79.1146 11.6807 78.7604 11.238C78.4062 10.8838 78.2292 10.3525 78.2292 9.73274C78.2292 9.11295 78.4062 8.5817 78.7604 8.22753C79.1146 7.78483 79.6458 7.60774 80.2656 7.60774C80.8854 7.60774 81.3281 7.78483 81.6823 8.22753C82.0364 8.5817 82.2135 9.11295 82.2135 9.73274ZM81.2396 9.73274C81.2396 9.37857 81.151 9.02441 80.9739 8.75878C80.7969 8.40462 80.5312 8.31608 80.1771 8.31608C79.8229 8.31608 79.5573 8.49316 79.3802 8.75878C79.2031 9.02441 79.1146 9.37857 79.1146 9.73274C79.1146 10.0869 79.2031 10.4411 79.3802 10.7067C79.5573 11.0609 79.8229 11.1494 80.1771 11.1494C80.5312 11.1494 80.7969 10.9723 80.9739 10.6182C81.151 10.4411 81.2396 10.0869 81.2396 9.73274Z"
      fill="white" />
    <path
      d="M87.0833 11.7692H86.1979V9.46713C86.1979 8.7588 85.9323 8.40463 85.401 8.40463C85.1354 8.40463 84.9583 8.49317 84.7812 8.67025C84.6041 8.84734 84.5156 9.11296 84.5156 9.37859V11.7692H83.6302V8.84734C83.6302 8.49317 83.6302 8.139 83.6302 7.69629H84.4271V8.31609C84.5156 8.139 84.6927 7.96192 84.8698 7.78484C85.1354 7.60775 85.401 7.51921 85.6666 7.51921C86.0208 7.51921 86.375 7.60775 86.6406 7.87338C86.9948 8.139 87.0833 8.58171 87.0833 9.2015V11.7692Z"
      fill="white" />
    <path
      d="M93.1041 8.40461H92.1302V10.3525C92.1302 10.8838 92.3073 11.0609 92.6614 11.0609C92.8385 11.0609 92.9271 11.0609 93.1041 11.0609V11.7692C92.9271 11.8577 92.6614 11.8577 92.3958 11.8577C92.0416 11.8577 91.776 11.7692 91.5989 11.5036C91.4218 11.3265 91.3333 10.8838 91.3333 10.4411V8.40461H90.7135V7.69628H91.3333V6.98795L92.2187 6.72232V7.69628H93.1927V8.40461H93.1041Z"
      fill="white" />
    <path
      d="M97.8854 11.7692H97V9.46712C97 8.75879 96.7344 8.40462 96.2031 8.40462C95.7604 8.40462 95.4948 8.58171 95.3177 9.02442C95.3177 9.11296 95.3177 9.2015 95.3177 9.37858V11.7692H94.4323V5.83691H95.3177V8.31608C95.5833 7.87337 96.026 7.60775 96.5573 7.60775C96.9114 7.60775 97.2656 7.69629 97.4427 7.96191C97.7083 8.22754 97.8854 8.75879 97.8854 9.29004V11.7692Z"
      fill="white" />
    <path
      d="M102.755 9.55566C102.755 9.73275 102.755 9.82129 102.755 9.99837H100.099C100.099 10.4411 100.276 10.7067 100.453 10.8838C100.719 11.0609 100.984 11.1494 101.339 11.1494C101.781 11.1494 102.135 11.0609 102.401 10.9723L102.578 11.5921C102.224 11.7692 101.781 11.8577 101.25 11.8577C100.63 11.8577 100.099 11.6807 99.7448 11.3265C99.3906 10.9723 99.2135 10.4411 99.2135 9.82129C99.2135 9.2015 99.3906 8.67025 99.7448 8.31608C100.099 7.87337 100.542 7.69629 101.161 7.69629C101.781 7.69629 102.224 7.87337 102.49 8.31608C102.667 8.58171 102.755 9.02441 102.755 9.55566ZM101.958 9.29004C101.958 9.02441 101.87 8.75879 101.781 8.58171C101.604 8.31608 101.427 8.22754 101.073 8.22754C100.807 8.22754 100.542 8.31608 100.365 8.58171C100.187 8.75879 100.099 9.02441 100.099 9.29004H101.958Z"
      fill="white" />
  </g>
  <defs>
    <clipPath id="clip0_11502_1284">
      <rect width="113.333" height="35.3077" fill="white" transform="translate(0.666664)" />
    </clipPath>
  </defs>
</svg>