<svg width="17" height="17" viewBox="0 0 17 17" fill="none" xmlns="http://www.w3.org/2000/svg">
<path d="M14.9277 7.08037C14.718 6.82863 14.4556 6.62598 14.159 6.48672C13.8625 6.34746 13.539 6.275 13.2113 6.27444H9.80852L10.2264 5.20733C10.4002 4.7401 10.4581 4.23768 10.3951 3.74316C10.3321 3.24864 10.1501 2.77679 9.86462 2.36809C9.57919 1.95938 9.19887 1.62601 8.75629 1.39658C8.31371 1.16714 7.82207 1.0485 7.32357 1.05081C7.18002 1.05111 7.03961 1.09281 6.91916 1.1709C6.79871 1.24899 6.70335 1.36016 6.64449 1.49109L4.51773 6.27444H2.76409C2.17035 6.27444 1.60093 6.5103 1.18109 6.93014C0.761253 7.34997 0.525391 7.9194 0.525391 8.51314L0.525391 13.7368C0.525391 14.3305 0.761253 14.8999 1.18109 15.3198C1.60093 15.7396 2.17035 15.9755 2.76409 15.9755L12.2636 15.9755C12.7873 15.9753 13.2944 15.7915 13.6966 15.4561C14.0988 15.1207 14.3707 14.6549 14.465 14.1397L15.4127 8.9161C15.4713 8.59327 15.4583 8.26149 15.3745 7.94426C15.2906 7.62704 15.1381 7.33211 14.9277 7.08037ZM4.25655 14.483L2.76409 14.483C2.56617 14.483 2.37637 14.4044 2.23642 14.2644C2.09648 14.1245 2.01785 13.9347 2.01785 13.7368L2.01785 8.51314C2.01785 8.31522 2.09648 8.12542 2.23642 7.98547C2.37637 7.84552 2.56617 7.7669 2.76409 7.7669H4.25655L4.25655 14.483ZM13.9576 8.64746L13.0099 13.8711C12.9781 14.0449 12.8856 14.2018 12.749 14.3139C12.6123 14.426 12.4403 14.4859 12.2636 14.483L5.74902 14.483L5.74902 7.17738L7.77877 2.61044C7.9877 2.67135 8.18174 2.77491 8.34863 2.91459C8.51553 3.05427 8.65165 3.22703 8.74842 3.42196C8.84519 3.6169 8.90049 3.82978 8.91084 4.04716C8.9212 4.26455 8.88637 4.48172 8.80857 4.68496L8.41306 5.75208C8.32879 5.97763 8.30034 6.22022 8.33014 6.45915C8.35994 6.69809 8.44711 6.92626 8.5842 7.1242C8.72129 7.32215 8.90424 7.48398 9.11744 7.5959C9.33063 7.70781 9.56774 7.76648 9.80852 7.7669H13.2113C13.321 7.76673 13.4293 7.7907 13.5286 7.83714C13.6279 7.88357 13.7158 7.95131 13.7859 8.03555C13.8578 8.11862 13.9105 8.21654 13.9401 8.32232C13.9698 8.42809 13.9758 8.53912 13.9576 8.64746Z" fill="black"/>
</svg>
