<svg
  width="19"
  height="19"
  viewBox="0 0 19 19"
  fill="none"
  xmlns="http://www.w3.org/2000/svg"
>
  <path
    d="M7.125 8.70831C6.96843 8.70831 6.81536 8.75474 6.68518 8.84173C6.55499 8.92872 6.45352 9.05236 6.3936 9.19702C6.33368 9.34168 6.318 9.50086 6.34855 9.65443C6.37909 9.80799 6.45449 9.94906 6.56521 10.0598C6.67593 10.1705 6.81699 10.2459 6.97056 10.2764C7.12412 10.307 7.2833 10.2913 7.42796 10.2314C7.57262 10.1715 7.69626 10.07 7.78325 9.93981C7.87024 9.80962 7.91667 9.65656 7.91667 9.49998C7.91667 9.29002 7.83326 9.08865 7.6848 8.94019C7.53633 8.79172 7.33497 8.70831 7.125 8.70831ZM7.125 11.875C6.96843 11.875 6.81536 11.9214 6.68518 12.0084C6.55499 12.0954 6.45352 12.219 6.3936 12.3637C6.33368 12.5083 6.318 12.6675 6.34855 12.8211C6.37909 12.9747 6.45449 13.1157 6.56521 13.2264C6.67593 13.3372 6.81699 13.4126 6.97056 13.4431C7.12412 13.4736 7.2833 13.458 7.42796 13.3981C7.57262 13.3381 7.69626 13.2367 7.78325 13.1065C7.87024 12.9763 7.91667 12.8232 7.91667 12.6666C7.91667 12.4567 7.83326 12.2553 7.6848 12.1069C7.53633 11.9584 7.33497 11.875 7.125 11.875ZM7.125 5.54165C6.96843 5.54165 6.81536 5.58808 6.68518 5.67507C6.55499 5.76206 6.45352 5.8857 6.3936 6.03036C6.33368 6.17501 6.318 6.33419 6.34855 6.48776C6.37909 6.64133 6.45449 6.78239 6.56521 6.89311C6.67593 7.00382 6.81699 7.07922 6.97056 7.10977C7.12412 7.14032 7.2833 7.12464 7.42796 7.06472C7.57262 7.0048 7.69626 6.90333 7.78325 6.77314C7.87024 6.64295 7.91667 6.48989 7.91667 6.33331C7.91667 6.12335 7.83326 5.92199 7.6848 5.77352C7.53633 5.62505 7.33497 5.54165 7.125 5.54165ZM11.875 5.54165C11.7184 5.54165 11.5654 5.58808 11.4352 5.67507C11.305 5.76206 11.2035 5.8857 11.1436 6.03036C11.0837 6.17501 11.068 6.33419 11.0985 6.48776C11.1291 6.64133 11.2045 6.78239 11.3152 6.89311C11.4259 7.00382 11.567 7.07922 11.7206 7.10977C11.8741 7.14032 12.0333 7.12464 12.178 7.06472C12.3226 7.0048 12.4463 6.90333 12.5332 6.77314C12.6202 6.64295 12.6667 6.48989 12.6667 6.33331C12.6667 6.12335 12.5833 5.92199 12.4348 5.77352C12.2863 5.62505 12.085 5.54165 11.875 5.54165ZM13.4583 1.58331H5.54167C4.49185 1.58331 3.48504 2.00035 2.7427 2.74268C2.00037 3.48501 1.58334 4.49183 1.58334 5.54165V13.4583C1.58334 14.5081 2.00037 15.5149 2.7427 16.2573C3.48504 16.9996 4.49185 17.4166 5.54167 17.4166H13.4583C14.5082 17.4166 15.515 16.9996 16.2573 16.2573C16.9996 15.5149 17.4167 14.5081 17.4167 13.4583V5.54165C17.4167 4.49183 16.9996 3.48501 16.2573 2.74268C15.515 2.00035 14.5082 1.58331 13.4583 1.58331ZM15.8333 13.4583C15.8333 14.0882 15.5831 14.6923 15.1377 15.1377C14.6923 15.5831 14.0882 15.8333 13.4583 15.8333H5.54167C4.91178 15.8333 4.30769 15.5831 3.86229 15.1377C3.41689 14.6923 3.16667 14.0882 3.16667 13.4583V5.54165C3.16667 4.91176 3.41689 4.30767 3.86229 3.86227C4.30769 3.41687 4.91178 3.16665 5.54167 3.16665H13.4583C14.0882 3.16665 14.6923 3.41687 15.1377 3.86227C15.5831 4.30767 15.8333 4.91176 15.8333 5.54165V13.4583ZM11.875 8.70831C11.7184 8.70831 11.5654 8.75474 11.4352 8.84173C11.305 8.92872 11.2035 9.05236 11.1436 9.19702C11.0837 9.34168 11.068 9.50086 11.0985 9.65443C11.1291 9.80799 11.2045 9.94906 11.3152 10.0598C11.4259 10.1705 11.567 10.2459 11.7206 10.2764C11.8741 10.307 12.0333 10.2913 12.178 10.2314C12.3226 10.1715 12.4463 10.07 12.5332 9.93981C12.6202 9.80962 12.6667 9.65656 12.6667 9.49998C12.6667 9.29002 12.5833 9.08865 12.4348 8.94019C12.2863 8.79172 12.085 8.70831 11.875 8.70831ZM11.875 11.875C11.7184 11.875 11.5654 11.9214 11.4352 12.0084C11.305 12.0954 11.2035 12.219 11.1436 12.3637C11.0837 12.5083 11.068 12.6675 11.0985 12.8211C11.1291 12.9747 11.2045 13.1157 11.3152 13.2264C11.4259 13.3372 11.567 13.4126 11.7206 13.4431C11.8741 13.4736 12.0333 13.458 12.178 13.3981C12.3226 13.3381 12.4463 13.2367 12.5332 13.1065C12.6202 12.9763 12.6667 12.8232 12.6667 12.6666C12.6667 12.4567 12.5833 12.2553 12.4348 12.1069C12.2863 11.9584 12.085 11.875 11.875 11.875Z"
    fill="#2F80ED"
  />
</svg>