<svg width="15" height="19" viewBox="0 0 15 19" fill="none" xmlns="http://www.w3.org/2000/svg">
<path d="M1.07986 0.376953H13.4968C13.7321 0.376953 13.9577 0.470397 14.124 0.636728C14.2903 0.803059 14.3838 1.02865 14.3838 1.26388V18.2423C14.3839 18.3216 14.3627 18.3995 14.3225 18.4678C14.2823 18.5362 14.2244 18.5925 14.1551 18.6309C14.0857 18.6693 14.0073 18.6884 13.928 18.6862C13.8488 18.684 13.7715 18.6606 13.7044 18.6184L7.28835 14.5944L0.872318 18.6175C0.805238 18.6596 0.728093 18.6831 0.648903 18.6853C0.569713 18.6875 0.491371 18.6685 0.422021 18.6302C0.352671 18.5919 0.294846 18.5357 0.254558 18.4675C0.214271 18.3993 0.192991 18.3215 0.192932 18.2423V1.26388C0.192932 1.02865 0.286376 0.803059 0.452707 0.636728C0.619038 0.470397 0.844632 0.376953 1.07986 0.376953ZM12.6099 2.15081H1.96679V15.8379L7.28835 12.5021L12.6099 15.8379V2.15081Z" fill="#A7ADB6"/>
</svg>
