<svg width="23" height="23" viewBox="0 0 23 23" fill="none" xmlns="http://www.w3.org/2000/svg">
<g clip-path="url(#clip0_6273_15791)">
<path d="M22.4625 11.7141C22.4625 10.7718 22.3861 10.0842 22.2206 9.37109H11.4604V13.6242H17.7764C17.6491 14.6811 16.9615 16.2728 15.4334 17.3424L15.412 17.4848L18.8141 20.1204L19.0498 20.144C21.2146 18.1447 22.4625 15.2032 22.4625 11.7141Z" fill="#4285F4"/>
<path d="M11.4602 22.9204C14.5545 22.9204 17.1522 21.9017 19.0496 20.1444L15.4332 17.3429C14.4654 18.0178 13.1665 18.489 11.4602 18.489C8.4296 18.489 5.85737 16.4898 4.94044 13.7266L4.80604 13.738L1.26843 16.4758L1.22217 16.6044C3.10676 20.3481 6.97787 22.9204 11.4602 22.9204Z" fill="#34A853"/>
<path d="M4.9407 13.7286C4.69876 13.0156 4.55874 12.2515 4.55874 11.462C4.55874 10.6725 4.69876 9.90845 4.92797 9.19536L4.92156 9.04349L1.33962 6.26172L1.22242 6.31746C0.445691 7.87102 0 9.61559 0 11.462C0 13.3084 0.445691 15.0529 1.22242 16.6065L4.9407 13.7286Z" fill="#FBBC05"/>
<path d="M11.4602 4.43136C13.6122 4.43136 15.0639 5.36093 15.8916 6.13775L19.126 2.97973C17.1396 1.13332 14.5545 0 11.4602 0C6.97788 0 3.10676 2.57223 1.22217 6.31596L4.92771 9.19386C5.85737 6.43061 8.4296 4.43136 11.4602 4.43136Z" fill="#EB4335"/>
</g>
<defs>
<clipPath id="clip0_6273_15791">
<rect width="22.4733" height="23" fill="white"/>
</clipPath>
</defs>
</svg>
