<svg width="44" height="43" viewBox="0 0 44 43" fill="none" xmlns="http://www.w3.org/2000/svg">
<g clip-path="url(#clip0_5947_6486)">
<rect opacity="0.1" x="0.280029" y="0.519531" width="43.68" height="41.6" rx="20.8" fill="#5A7184"/>
<path d="M30.0767 22.2616C30.0767 21.7416 30.0117 21.3516 29.9467 20.9291H22.2767V23.6916H26.8267C26.6642 24.8941 25.4617 27.1691 22.2767 27.1691C19.5142 27.1691 17.2717 24.8941 17.2717 22.0666C17.2717 17.5491 22.6017 15.4691 25.4617 18.2316L27.6717 16.1191C26.2742 14.8191 24.4217 14.0066 22.2767 14.0066C17.7917 14.0066 14.2167 17.6141 14.2167 22.0666C14.2167 26.5516 17.7917 30.1266 22.2767 30.1266C26.9242 30.1266 30.0767 26.8766 30.0767 22.2616Z" fill="#5A7184"/>
</g>
<defs>
<clipPath id="clip0_5947_6486">
<rect width="43.68" height="41.6" fill="white" transform="translate(0.280029 0.519531)"/>
</clipPath>
</defs>
</svg>
