<svg width="17" height="17" viewBox="0 0 17 17" fill="none" xmlns="http://www.w3.org/2000/svg">
<path d="M8.1555 0.141388C6.5453 0.141388 4.97125 0.618869 3.63242 1.51345C2.29358 2.40803 1.25009 3.67954 0.633886 5.16717C0.0176877 6.65481 -0.143538 8.29176 0.170597 9.87102C0.484733 11.4503 1.26012 12.9009 2.39871 14.0395C3.53729 15.1781 4.98794 15.9535 6.56721 16.2676C8.14647 16.5818 9.78343 16.4205 11.2711 15.8043C12.7587 15.1881 14.0302 14.1447 14.9248 12.8058C15.8194 11.467 16.2968 9.89293 16.2968 8.28273C16.2968 7.21359 16.0863 6.15492 15.6771 5.16717C15.268 4.17942 14.6683 3.28192 13.9123 2.52593C13.1563 1.76994 12.2588 1.17025 11.2711 0.761111C10.2833 0.35197 9.22464 0.141388 8.1555 0.141388ZM8.1555 14.7958C6.86734 14.7958 5.6081 14.4138 4.53703 13.6981C3.46597 12.9825 2.63117 11.9653 2.13821 10.7752C1.64525 9.58506 1.51627 8.2755 1.76758 7.01209C2.01889 5.74868 2.6392 4.58816 3.55007 3.67729C4.46094 2.76642 5.62146 2.14611 6.88487 1.8948C8.14828 1.64349 9.45784 1.77248 10.6479 2.26543C11.8381 2.75839 12.8553 3.59319 13.5709 4.66426C14.2866 5.73533 14.6686 6.99456 14.6686 8.28273C14.6686 10.0101 13.9824 11.6667 12.7609 12.8882C11.5395 14.1096 9.88288 14.7958 8.1555 14.7958ZM8.1555 3.39792C7.93958 3.39792 7.7325 3.4837 7.57982 3.63638C7.42715 3.78906 7.34137 3.99614 7.34137 4.21206V7.81053L5.63169 8.79563C5.47485 8.88451 5.35195 9.02292 5.28225 9.18917C5.21255 9.35542 5.19999 9.54009 5.24656 9.71424C5.29312 9.88839 5.39617 10.0422 5.53954 10.1514C5.68291 10.2607 5.85849 10.3193 6.03876 10.3181C6.18137 10.319 6.32175 10.2826 6.44582 10.2122L8.56257 8.99102L8.63584 8.91775L8.76611 8.81191C8.79794 8.77161 8.82524 8.72793 8.84752 8.68165C8.87405 8.63795 8.89588 8.59155 8.91265 8.54325C8.93479 8.49149 8.94853 8.43652 8.95336 8.38042L8.96964 8.28273V4.21206C8.96964 3.99614 8.88386 3.78906 8.73118 3.63638C8.5785 3.4837 8.37143 3.39792 8.1555 3.39792Z" fill="#2F80ED"/>
</svg>
