<svg width="33" height="32" viewBox="0 0 33 32" fill="none" xmlns="http://www.w3.org/2000/svg">
<g clip-path="url(#clip0_6074_2717)">
<rect opacity="0.1" x="0.280029" width="31.6" height="31.6" rx="15.8" fill="#5A7184"/>
<path d="M16.6468 12.8095C14.5668 12.8095 12.9093 14.4995 12.9093 16.547C12.9093 18.627 14.5668 20.2845 16.6468 20.2845C18.6943 20.2845 20.3843 18.627 20.3843 16.547C20.3843 14.4995 18.6943 12.8095 16.6468 12.8095ZM16.6468 18.9845C15.3143 18.9845 14.2093 17.912 14.2093 16.547C14.2093 15.2145 15.2818 14.142 16.6468 14.142C17.9793 14.142 19.0518 15.2145 19.0518 16.547C19.0518 17.912 17.9793 18.9845 16.6468 18.9845ZM21.3918 12.6795C21.3918 12.192 21.0018 11.802 20.5143 11.802C20.0268 11.802 19.6368 12.192 19.6368 12.6795C19.6368 13.167 20.0268 13.557 20.5143 13.557C21.0018 13.557 21.3918 13.167 21.3918 12.6795ZM23.8618 13.557C23.7968 12.387 23.5368 11.347 22.6918 10.502C21.8468 9.65695 20.8068 9.39695 19.6368 9.33195C18.4343 9.26695 14.8268 9.26695 13.6243 9.33195C12.4543 9.39695 11.4468 9.65695 10.5693 10.502C9.72434 11.347 9.46434 12.387 9.39934 13.557C9.33434 14.7595 9.33434 18.367 9.39934 19.5695C9.46434 20.7395 9.72434 21.747 10.5693 22.6245C11.4468 23.4695 12.4543 23.7295 13.6243 23.7945C14.8268 23.8595 18.4343 23.8595 19.6368 23.7945C20.8068 23.7295 21.8468 23.4695 22.6918 22.6245C23.5368 21.747 23.7968 20.7395 23.8618 19.5695C23.9268 18.367 23.9268 14.7595 23.8618 13.557ZM22.3018 20.837C22.0743 21.487 21.5543 21.9745 20.9368 22.2345C19.9618 22.6245 17.6868 22.527 16.6468 22.527C15.5743 22.527 13.2993 22.6245 12.3568 22.2345C11.7068 21.9745 11.2193 21.487 10.9593 20.837C10.5693 19.8945 10.6668 17.6195 10.6668 16.547C10.6668 15.507 10.5693 13.232 10.9593 12.257C11.2193 11.6395 11.7068 11.152 12.3568 10.892C13.2993 10.502 15.5743 10.5995 16.6468 10.5995C17.6868 10.5995 19.9618 10.502 20.9368 10.892C21.5543 11.1195 22.0418 11.6395 22.3018 12.257C22.6918 13.232 22.5943 15.507 22.5943 16.547C22.5943 17.6195 22.6918 19.8945 22.3018 20.837Z" fill="#5A7184"/>
</g>
<defs>
<clipPath id="clip0_6074_2717">
<rect width="32" height="32" fill="white" transform="translate(0.280029)"/>
</clipPath>
</defs>
</svg>
