<svg width="43" height="43" viewBox="0 0 43 43" fill="none" xmlns="http://www.w3.org/2000/svg">
<g clip-path="url(#clip0_5947_6496)">
<rect opacity="0.1" x="0.439941" y="0.519531" width="41.6" height="41.6" rx="20.8" fill="#5A7184"/>
<path d="M21.8068 18.3291C19.7268 18.3291 18.0693 20.0191 18.0693 22.0666C18.0693 24.1466 19.7268 25.8041 21.8068 25.8041C23.8543 25.8041 25.5443 24.1466 25.5443 22.0666C25.5443 20.0191 23.8543 18.3291 21.8068 18.3291ZM21.8068 24.5041C20.4743 24.5041 19.3693 23.4316 19.3693 22.0666C19.3693 20.7341 20.4418 19.6616 21.8068 19.6616C23.1393 19.6616 24.2118 20.7341 24.2118 22.0666C24.2118 23.4316 23.1393 24.5041 21.8068 24.5041ZM26.5518 18.1991C26.5518 17.7116 26.1618 17.3216 25.6743 17.3216C25.1868 17.3216 24.7968 17.7116 24.7968 18.1991C24.7968 18.6866 25.1868 19.0766 25.6743 19.0766C26.1618 19.0766 26.5518 18.6866 26.5518 18.1991ZM29.0218 19.0766C28.9568 17.9066 28.6968 16.8666 27.8518 16.0216C27.0068 15.1766 25.9668 14.9166 24.7968 14.8516C23.5943 14.7866 19.9868 14.7866 18.7843 14.8516C17.6143 14.9166 16.6068 15.1766 15.7293 16.0216C14.8843 16.8666 14.6243 17.9066 14.5593 19.0766C14.4943 20.2791 14.4943 23.8866 14.5593 25.0891C14.6243 26.2591 14.8843 27.2666 15.7293 28.1441C16.6068 28.9891 17.6143 29.2491 18.7843 29.3141C19.9868 29.3791 23.5943 29.3791 24.7968 29.3141C25.9668 29.2491 27.0068 28.9891 27.8518 28.1441C28.6968 27.2666 28.9568 26.2591 29.0218 25.0891C29.0868 23.8866 29.0868 20.2791 29.0218 19.0766ZM27.4618 26.3566C27.2343 27.0066 26.7143 27.4941 26.0968 27.7541C25.1218 28.1441 22.8468 28.0466 21.8068 28.0466C20.7343 28.0466 18.4593 28.1441 17.5168 27.7541C16.8668 27.4941 16.3793 27.0066 16.1193 26.3566C15.7293 25.4141 15.8268 23.1391 15.8268 22.0666C15.8268 21.0266 15.7293 18.7516 16.1193 17.7766C16.3793 17.1591 16.8668 16.6716 17.5168 16.4116C18.4593 16.0216 20.7343 16.1191 21.8068 16.1191C22.8468 16.1191 25.1218 16.0216 26.0968 16.4116C26.7143 16.6391 27.2018 17.1591 27.4618 17.7766C27.8518 18.7516 27.7543 21.0266 27.7543 22.0666C27.7543 23.1391 27.8518 25.4141 27.4618 26.3566Z" fill="#5A7184"/>
</g>
<defs>
<clipPath id="clip0_5947_6496">
<rect width="41.6" height="41.6" fill="white" transform="translate(0.439941 0.519531)"/>
</clipPath>
</defs>
</svg>
