<svg width="43" height="43" viewBox="0 0 43 43" fill="none" xmlns="http://www.w3.org/2000/svg">
<g clip-path="url(#clip0_5947_6501)">
<rect opacity="0.1" x="0.439941" y="0.519531" width="41.6" height="41.6" rx="20.8" fill="#5A7184"/>
<path d="M28.0468 14.7866H15.5343C14.9818 14.7866 14.5268 15.2741 14.5268 15.8591V28.3066C14.5268 28.8916 14.9818 29.3466 15.5343 29.3466H28.0468C28.5993 29.3466 29.0868 28.8916 29.0868 28.3066V15.8591C29.0868 15.2741 28.5993 14.7866 28.0468 14.7866ZM18.9143 27.2666H16.7693V20.3441H18.9143V27.2666ZM17.8418 19.3691C17.1268 19.3691 16.5743 18.8166 16.5743 18.1341C16.5743 17.4516 17.1268 16.8666 17.8418 16.8666C18.5243 16.8666 19.0768 17.4516 19.0768 18.1341C19.0768 18.8166 18.5243 19.3691 17.8418 19.3691ZM27.0068 27.2666H24.8293V23.8866C24.8293 23.1066 24.8293 22.0666 23.7243 22.0666C22.5868 22.0666 22.4243 22.9441 22.4243 23.8541V27.2666H20.2793V20.3441H22.3268V21.2866H22.3593C22.6518 20.7341 23.3668 20.1491 24.4068 20.1491C26.5843 20.1491 27.0068 21.6116 27.0068 23.4641V27.2666Z" fill="#5A7184"/>
</g>
<defs>
<clipPath id="clip0_5947_6501">
<rect width="41.6" height="41.6" fill="white" transform="translate(0.439941 0.519531)"/>
</clipPath>
</defs>
</svg>
