<svg width="33" height="32" viewBox="0 0 33 32" fill="none" xmlns="http://www.w3.org/2000/svg">
<g clip-path="url(#clip0_6074_2722)">
<rect opacity="0.1" x="0.280029" width="31.6" height="31.6" rx="15.8" fill="#5A7184"/>
<path d="M22.8868 9.26758H10.3743C9.82182 9.26758 9.36682 9.75508 9.36682 10.3401V22.7876C9.36682 23.3726 9.82182 23.8276 10.3743 23.8276H22.8868C23.4393 23.8276 23.9268 23.3726 23.9268 22.7876V10.3401C23.9268 9.75508 23.4393 9.26758 22.8868 9.26758ZM13.7543 21.7476H11.6093V14.8251H13.7543V21.7476ZM12.6818 13.8501C11.9668 13.8501 11.4143 13.2976 11.4143 12.6151C11.4143 11.9326 11.9668 11.3476 12.6818 11.3476C13.3643 11.3476 13.9168 11.9326 13.9168 12.6151C13.9168 13.2976 13.3643 13.8501 12.6818 13.8501ZM21.8468 21.7476H19.6693V18.3676C19.6693 17.5876 19.6693 16.5476 18.5643 16.5476C17.4268 16.5476 17.2643 17.4251 17.2643 18.3351V21.7476H15.1193V14.8251H17.1668V15.7676H17.1993C17.4918 15.2151 18.2068 14.6301 19.2468 14.6301C21.4243 14.6301 21.8468 16.0926 21.8468 17.9451V21.7476Z" fill="#5A7184"/>
</g>
<defs>
<clipPath id="clip0_6074_2722">
<rect width="32" height="32" fill="white" transform="translate(0.280029)"/>
</clipPath>
</defs>
</svg>
