<svg width="22" height="22" viewBox="0 0 22 22" fill="none" xmlns="http://www.w3.org/2000/svg">
<path d="M1.83179 8.00787C1.83132 7.3063 1.96925 6.61153 2.23767 5.96334C2.50609 5.31515 2.89974 4.72628 3.39608 4.23044C3.89241 3.7346 4.48168 3.34154 5.13014 3.07377C5.77859 2.80599 6.4735 2.66876 7.17507 2.66993H14.2994C17.2498 2.66993 19.6427 5.06995 19.6427 8.00787V18.6998H7.17507C4.22469 18.6998 1.83179 16.2998 1.83179 13.3618V8.00787ZM17.8616 16.9187V8.00787C17.8593 7.06433 17.4831 6.1602 16.8154 5.49351C16.1477 4.82683 15.243 4.45196 14.2994 4.45102H7.17507C6.7074 4.44985 6.2441 4.54101 5.81173 4.71928C5.37936 4.89755 4.98644 5.15941 4.6555 5.48986C4.32456 5.82031 4.0621 6.21284 3.88319 6.64493C3.70427 7.07703 3.61241 7.5402 3.61288 8.00787V13.3618C3.61524 14.3054 3.99147 15.2095 4.65915 15.8762C5.32683 16.5429 6.23153 16.9177 7.17507 16.9187H17.8616ZM12.5184 9.79431H14.2994V11.5754H12.5184V9.79431ZM7.17507 9.79431H8.95617V11.5754H7.17507V9.79431Z" fill="#A7ADB6"/>
</svg>
