<svg width="17" height="17" viewBox="0 0 17 17" fill="none" xmlns="http://www.w3.org/2000/svg">
<g clip-path="url(#clip0_10829_1455)">
<path d="M1.35267 9.20086C1.56239 9.45265 1.82481 9.65533 2.12142 9.79461C2.41804 9.93389 2.7416 10.0064 3.06929 10.0069L6.47267 10.0069L6.05471 11.0742C5.88086 11.5415 5.82296 12.044 5.88598 12.5386C5.94901 13.0332 6.13107 13.5051 6.41655 13.9139C6.70203 14.3227 7.08242 14.6561 7.52507 14.8856C7.96772 15.1151 8.45944 15.2337 8.95803 15.2314C9.1016 15.2311 9.24203 15.1894 9.3625 15.1113C9.48297 15.0332 9.57835 14.922 9.63721 14.7911L11.7643 10.0069H13.5183C14.1121 10.0069 14.6816 9.77103 15.1015 9.35112C15.5214 8.93121 15.7573 8.3617 15.7573 7.76786V2.54337C15.7573 1.94954 15.5214 1.38002 15.1015 0.960115C14.6816 0.54021 14.1121 0.30431 13.5183 0.30431L4.01716 0.30431C3.49336 0.304484 2.9862 0.488293 2.58391 0.823755C2.18163 1.15922 1.90969 1.6251 1.81541 2.14034L0.867537 7.36483C0.808911 7.68772 0.821978 8.01955 0.905811 8.33682C0.989646 8.6541 1.1422 8.94908 1.35267 9.20086ZM12.0255 1.79702H13.5183C13.7162 1.79702 13.906 1.87565 14.046 2.01562C14.186 2.15559 14.2646 2.34543 14.2646 2.54337L14.2646 7.76786C14.2646 7.96581 14.186 8.15564 14.046 8.29561C13.906 8.43558 13.7162 8.51422 13.5183 8.51422H12.0255L12.0255 1.79702ZM2.32293 7.63352L3.2708 2.40903C3.3026 2.23516 3.39506 2.07822 3.53174 1.96614C3.66841 1.85407 3.84043 1.79414 4.01716 1.79702L10.5328 1.79702L10.5328 9.10384L8.50275 13.6715C8.29378 13.6106 8.09971 13.507 7.93279 13.3673C7.76587 13.2276 7.62972 13.0548 7.53294 12.8599C7.43616 12.6649 7.38084 12.452 7.37049 12.2346C7.36014 12.0172 7.39497 11.7999 7.47278 11.5967L7.86835 10.5294C7.95264 10.3038 7.98109 10.0612 7.95129 9.82218C7.92148 9.58321 7.8343 9.355 7.69719 9.15702C7.56007 8.95905 7.37709 8.79718 7.16386 8.68525C6.95063 8.57332 6.71349 8.51464 6.47267 8.51422L3.06929 8.51422C2.95964 8.51439 2.8513 8.49041 2.75197 8.44397C2.65264 8.39753 2.56477 8.32978 2.49459 8.24553C2.42269 8.16244 2.37003 8.0645 2.34035 7.95871C2.31068 7.85292 2.30473 7.74187 2.32293 7.63352Z" fill="#FC4949"/>
</g>
<defs>
<clipPath id="clip0_10829_1455">
<rect width="16.2827" height="16.2827" fill="white" transform="matrix(-1 0 0 -1 16.2827 16.2822)"/>
</clipPath>
</defs>
</svg>
