<svg width="19" height="19" viewBox="0 0 19 19" fill="none" xmlns="http://www.w3.org/2000/svg">
  <path
    d="M15.0417 5.54168H12.6667V4.75001C12.6667 3.91016 12.333 3.1047 11.7392 2.51084C11.1453 1.91697 10.3399 1.58334 9.5 1.58334C8.66015 1.58334 7.85469 1.91697 7.26083 2.51084C6.66696 3.1047 6.33333 3.91016 6.33333 4.75001V5.54168H3.95833C3.74837 5.54168 3.547 5.62508 3.39854 5.77355C3.25007 5.92202 3.16666 6.12338 3.16666 6.33334V15.0417C3.16666 15.6716 3.41689 16.2757 3.86229 16.7211C4.30768 17.1665 4.91178 17.4167 5.54166 17.4167H13.4583C14.0882 17.4167 14.6923 17.1665 15.1377 16.7211C15.5831 16.2757 15.8333 15.6716 15.8333 15.0417V6.33334C15.8333 6.12338 15.7499 5.92202 15.6015 5.77355C15.453 5.62508 15.2516 5.54168 15.0417 5.54168ZM7.91666 4.75001C7.91666 4.33008 8.08348 3.92736 8.38041 3.63042C8.67735 3.33349 9.08007 3.16668 9.5 3.16668C9.91992 3.16668 10.3227 3.33349 10.6196 3.63042C10.9165 3.92736 11.0833 4.33008 11.0833 4.75001V5.54168H7.91666V4.75001ZM14.25 15.0417C14.25 15.2516 14.1666 15.453 14.0181 15.6015C13.8697 15.7499 13.6683 15.8333 13.4583 15.8333H5.54166C5.3317 15.8333 5.13034 15.7499 4.98187 15.6015C4.83341 15.453 4.75 15.2516 4.75 15.0417V7.12501H6.33333V7.91668C6.33333 8.12664 6.41674 8.328 6.56521 8.47647C6.71367 8.62494 6.91503 8.70834 7.125 8.70834C7.33496 8.70834 7.53632 8.62494 7.68479 8.47647C7.83326 8.328 7.91666 8.12664 7.91666 7.91668V7.12501H11.0833V7.91668C11.0833 8.12664 11.1667 8.328 11.3152 8.47647C11.4637 8.62494 11.665 8.70834 11.875 8.70834C12.085 8.70834 12.2863 8.62494 12.4348 8.47647C12.5833 8.328 12.6667 8.12664 12.6667 7.91668V7.12501H14.25V15.0417Z"
    fill="#2F80ED" />
</svg>