<svg width="17" height="17" viewBox="0 0 17 17" fill="none" xmlns="http://www.w3.org/2000/svg">
<path d="M8.8513 0.141388C6.76418 0.147341 4.75905 0.954638 3.25006 2.39654V0.955522C3.25006 0.7396 3.16428 0.532522 3.0116 0.379842C2.85893 0.227162 2.65185 0.141388 2.43592 0.141388C2.22 0.141388 2.01293 0.227162 1.86025 0.379842C1.70757 0.532522 1.62179 0.7396 1.62179 0.955522V4.61912C1.62179 4.83505 1.70757 5.04212 1.86025 5.1948C2.01293 5.34748 2.22 5.43326 2.43592 5.43326H6.09953C6.31545 5.43326 6.52253 5.34748 6.67521 5.1948C6.82789 5.04212 6.91366 4.83505 6.91366 4.61912C6.91366 4.4032 6.82789 4.19613 6.67521 4.04345C6.52253 3.89077 6.31545 3.80499 6.09953 3.80499H4.14561C5.1924 2.71109 6.58761 2.01606 8.09133 1.8394C9.59506 1.66275 11.1134 2.0155 12.3852 2.83702C13.657 3.65854 14.6029 4.89749 15.0602 6.34085C15.5174 7.78421 15.4576 9.34179 14.8909 10.7458C14.3242 12.1498 13.286 13.3125 11.9549 14.034C10.6238 14.7555 9.08291 14.9907 7.59717 14.6992C6.11144 14.4077 4.77368 13.6076 3.81392 12.4366C2.85416 11.2656 2.33236 9.79679 2.33823 8.28273C2.33823 8.06681 2.25245 7.85973 2.09977 7.70705C1.94709 7.55437 1.74002 7.46859 1.52409 7.46859C1.30817 7.46859 1.10109 7.55437 0.948415 7.70705C0.795735 7.85973 0.709961 8.06681 0.709961 8.28273C0.709961 9.89293 1.18744 11.467 2.08202 12.8058C2.97661 14.1447 4.24811 15.1881 5.73574 15.8043C7.22338 16.4205 8.86033 16.5818 10.4396 16.2676C12.0189 15.9535 13.4695 15.1781 14.6081 14.0395C15.7467 12.9009 16.5221 11.4503 16.8362 9.87102C17.1503 8.29176 16.9891 6.65481 16.3729 5.16717C15.7567 3.67954 14.7132 2.40803 13.3744 1.51345C12.0356 0.618869 10.4615 0.141388 8.8513 0.141388ZM8.8513 5.02619C8.63538 5.02619 8.4283 5.11197 8.27562 5.26465C8.12294 5.41733 8.03717 5.6244 8.03717 5.84033V8.28273C8.03717 8.49865 8.12294 8.70573 8.27562 8.85841C8.4283 9.01109 8.63538 9.09686 8.8513 9.09686H10.4796C10.6955 9.09686 10.9026 9.01109 11.0552 8.85841C11.2079 8.70573 11.2937 8.49865 11.2937 8.28273C11.2937 8.06681 11.2079 7.85973 11.0552 7.70705C10.9026 7.55437 10.6955 7.46859 10.4796 7.46859H9.66543V5.84033C9.66543 5.6244 9.57966 5.41733 9.42698 5.26465C9.2743 5.11197 9.06722 5.02619 8.8513 5.02619Z" fill="#2F80ED"/>
</svg>
