<svg width="32" height="32" viewBox="0 0 32 32" fill="none" xmlns="http://www.w3.org/2000/svg">
<circle cx="16" cy="16" r="16" fill="#EFFAFF"/>
<path d="M21.5869 18.6834C21.1851 18.5115 20.8428 18.225 20.6028 17.8598C20.3628 17.4945 20.2357 17.0667 20.2374 16.6296C20.2426 16.2395 20.3471 15.8571 20.541 15.5186C20.7349 15.18 21.0119 14.8964 21.3458 14.6945C21.4213 14.6479 21.4866 14.5863 21.5377 14.5137C21.5888 14.4411 21.6246 14.3589 21.643 14.272C21.6614 14.1851 21.662 14.0954 21.6448 14.0083C21.6275 13.9212 21.5928 13.8385 21.5427 13.7652C21.2425 13.3287 20.8513 12.9626 20.3959 12.6921C19.9405 12.4216 19.4318 12.2531 18.905 12.1983C19.3953 11.4201 19.6178 10.5029 19.5386 9.58654C19.5232 9.42014 19.4439 9.26619 19.3173 9.15701C19.1908 9.04783 19.0269 8.9919 18.8601 9.00095C17.7323 9.10146 16.6869 9.63336 15.9417 10.4858C15.4694 11.0331 15.136 11.6864 14.97 12.39C14.6271 12.274 14.268 12.2125 13.906 12.2079C13.2357 12.2269 12.5817 12.4187 12.0074 12.7649C11.4332 13.111 10.958 13.5996 10.6282 14.1834C9.38834 16.3359 10.1468 19.5614 11.4898 21.5029C12.0286 22.2809 12.8371 23.4489 14.0567 23.4489C14.0807 23.4489 14.1051 23.4489 14.1295 23.4475C14.5381 23.4244 14.9382 23.3208 15.3068 23.1429C15.6012 22.9937 15.926 22.9142 16.256 22.9107C16.5664 22.9145 16.8716 22.9905 17.1475 23.1326C17.5507 23.3234 17.9901 23.4255 18.4361 23.4321C19.6926 23.4084 20.4347 22.3245 20.9766 21.5324C21.4043 20.9032 21.7389 20.2156 21.9701 19.4908C22.0194 19.3327 22.0074 19.1618 21.9364 19.0122C21.8653 18.8626 21.7406 18.7452 21.5869 18.6834ZM16.9362 11.3433C17.2812 10.9574 17.7134 10.6597 18.1969 10.4749C18.0911 10.9952 17.8571 11.4809 17.516 11.8878C17.2845 12.1656 17.0029 12.3973 16.6858 12.571L16.6838 12.5716C16.6652 12.5793 16.6466 12.5864 16.628 12.5941C16.5055 12.6422 16.3541 12.7018 16.2374 12.7403C16.3501 12.2236 16.5904 11.7434 16.9362 11.3433ZM19.8927 20.791C19.3648 21.5619 18.9495 22.109 18.412 22.1186C18.1522 22.1178 17.8968 22.0519 17.669 21.9269C17.2287 21.7123 16.7458 21.5997 16.256 21.5972C15.7492 21.5997 15.2493 21.7147 14.7924 21.9339C14.5702 22.0473 14.3278 22.1157 14.0791 22.1353H14.0596C13.5256 22.1353 12.9513 21.306 12.57 20.755C11.6159 19.376 10.7359 16.6283 11.7666 14.8388C11.9828 14.4516 12.2953 14.1268 12.674 13.896C13.0526 13.6652 13.4845 13.5362 13.9278 13.5215L13.9499 13.5208C14.3238 13.5526 14.6889 13.6514 15.0278 13.8126C15.114 13.8466 15.199 13.8806 15.2833 13.9121C15.3048 13.921 15.327 13.9294 15.3494 13.9364C15.5831 14.0304 15.8314 14.0832 16.0832 14.0923C16.4396 14.064 16.7878 13.9703 17.1104 13.8159C17.565 13.5952 18.0648 13.4834 18.5702 13.4894C19.1107 13.5105 19.6296 13.7073 20.0482 14.05C19.6905 14.3796 19.4056 14.7804 19.212 15.2266C19.0184 15.6729 18.9202 16.1547 18.9239 16.6412V16.6418C18.9202 17.2307 19.0659 17.8109 19.3475 18.3281C19.629 18.8454 20.0372 19.2827 20.5338 19.5993C20.3609 20.0171 20.1461 20.4164 19.8927 20.791Z" fill="#000624"/>
</svg>
