<svg width="16" height="16" viewBox="0 0 16 16" fill="none" xmlns="http://www.w3.org/2000/svg">
<path d="M8.07339 10.2601L5.48672 12.8468C5.17355 13.1491 4.75529 13.318 4.32005 13.318C3.88481 13.318 3.46656 13.1491 3.15339 12.8468C2.99979 12.6938 2.87792 12.512 2.79476 12.3118C2.7116 12.1116 2.66879 11.8969 2.66879 11.6801C2.66879 11.4634 2.7116 11.2487 2.79476 11.0485C2.87792 10.8483 2.99979 10.6665 3.15339 10.5135L5.74005 7.92681C5.86559 7.80128 5.93612 7.63101 5.93612 7.45348C5.93612 7.27594 5.86559 7.10568 5.74005 6.98014C5.61452 6.85461 5.44425 6.78408 5.26672 6.78408C5.08919 6.78408 4.91892 6.85461 4.79339 6.98014L2.20672 9.57348C1.68562 10.1407 1.4038 10.8873 1.4201 11.6573C1.43641 12.4274 1.74957 13.1614 2.29421 13.706C2.83884 14.2506 3.57283 14.5638 4.34289 14.5801C5.11294 14.5964 5.85952 14.3146 6.42672 13.7935L9.02005 11.2068C9.14559 11.0813 9.21612 10.911 9.21612 10.7335C9.21612 10.5559 9.14559 10.3857 9.02005 10.2601C8.89452 10.1346 8.72426 10.0641 8.54672 10.0641C8.36919 10.0641 8.19892 10.1346 8.07339 10.2601ZM13.7934 2.20681C13.2326 1.64948 12.474 1.33667 11.6834 1.33667C10.8927 1.33667 10.1342 1.64948 9.57339 2.20681L6.98005 4.79348C6.9179 4.85564 6.86859 4.92943 6.83495 5.01064C6.80131 5.09186 6.78399 5.17891 6.78399 5.26681C6.78399 5.35472 6.80131 5.44176 6.83495 5.52298C6.86859 5.60419 6.9179 5.67798 6.98005 5.74014C7.04221 5.8023 7.11601 5.85161 7.19722 5.88525C7.27844 5.91889 7.36548 5.93621 7.45339 5.93621C7.54129 5.93621 7.62834 5.91889 7.70955 5.88525C7.79077 5.85161 7.86456 5.8023 7.92672 5.74014L10.5134 3.15348C10.8266 2.85123 11.2448 2.68232 11.6801 2.68232C12.1153 2.68232 12.5335 2.85123 12.8467 3.15348C13.0003 3.30647 13.1222 3.48828 13.2054 3.68849C13.2885 3.8887 13.3313 4.10335 13.3313 4.32014C13.3313 4.53694 13.2885 4.75159 13.2054 4.9518C13.1222 5.152 13.0003 5.33382 12.8467 5.48681L10.2601 8.07348C10.1976 8.13545 10.148 8.20919 10.1141 8.29043C10.0803 8.37167 10.0629 8.4588 10.0629 8.54681C10.0629 8.63482 10.0803 8.72196 10.1141 8.80319C10.148 8.88443 10.1976 8.95817 10.2601 9.02014C10.322 9.08263 10.3958 9.13223 10.477 9.16607C10.5582 9.19992 10.6454 9.21734 10.7334 9.21734C10.8214 9.21734 10.9085 9.19992 10.9898 9.16607C11.071 9.13223 11.1447 9.08263 11.2067 9.02014L13.7934 6.42681C14.3507 5.866 14.6635 5.10746 14.6635 4.31681C14.6635 3.52616 14.3507 2.76762 13.7934 2.20681ZM5.88672 10.1135C5.94901 10.1753 6.02289 10.2241 6.10412 10.2573C6.18534 10.2905 6.27232 10.3073 6.36005 10.3068C6.44779 10.3073 6.53477 10.2905 6.61599 10.2573C6.69722 10.2241 6.77109 10.1753 6.83339 10.1135L10.1134 6.83348C10.2389 6.70794 10.3094 6.53768 10.3094 6.36014C10.3094 6.18261 10.2389 6.01235 10.1134 5.88681C9.98785 5.76127 9.81759 5.69075 9.64005 5.69075C9.46252 5.69075 9.29226 5.76127 9.16672 5.88681L5.88672 9.16681C5.82423 9.22879 5.77464 9.30252 5.74079 9.38376C5.70695 9.465 5.68952 9.55214 5.68952 9.64014C5.68952 9.72815 5.70695 9.81529 5.74079 9.89653C5.77464 9.97777 5.82423 10.0515 5.88672 10.1135Z" fill="black"/>
</svg>
