<svg width="32" height="32" viewBox="0 0 32 32" fill="none" xmlns="http://www.w3.org/2000/svg">
<circle cx="16" cy="16" r="16" fill="#EFFAFF"/>
<path d="M21.0418 15.7032C20.8559 15.6027 19.2618 14.6778 18.6636 14.3296L18.6619 14.3284L11.4164 10.1454C11.293 10.07 11.1546 10.0226 11.0109 10.0063C10.8672 9.99003 10.7217 10.0054 10.5845 10.0512C10.569 10.0568 10.5545 10.0624 10.5394 10.0692C10.5045 10.0806 10.4704 10.0943 10.4372 10.1102C10.2987 10.193 10.185 10.3116 10.1082 10.4535C10.0314 10.5955 9.99426 10.7555 10.0007 10.9168V22.1414C9.99632 22.2917 10.0319 22.4404 10.1038 22.5724C10.1758 22.7044 10.2814 22.8149 10.4101 22.8926C10.4397 22.9071 10.4703 22.9197 10.5016 22.9303C10.5187 22.9382 10.535 22.9451 10.5526 22.9513C10.6373 22.982 10.7265 22.9984 10.8165 23C10.9895 22.9981 11.1589 22.951 11.3079 22.8632C11.5377 22.7298 18.6619 18.6166 18.6619 18.6166L21.0389 17.2442C21.1859 17.1706 21.3099 17.0582 21.3976 16.9192C21.4854 16.7802 21.5334 16.6198 21.5366 16.4555C21.5294 16.2972 21.4796 16.1438 21.3925 16.0114C21.3054 15.879 21.1843 15.7725 21.0418 15.7032ZM11.1832 21.1342V11.8299L15.8776 16.4765L11.1832 21.1342ZM14.15 19.8561L16.718 17.3082L17.3976 17.9809C16.6499 18.4127 15.3867 19.1421 14.15 19.8562V19.8561ZM16.717 15.6436L14.1168 13.07L17.4003 14.9657L16.717 15.6436ZM18.4592 17.3681L17.5573 16.4754L18.4606 15.5793C18.8864 15.8265 19.5501 16.2115 20.0072 16.4745L18.4592 17.3681Z" fill="#000624"/>
</svg>
