<svg width="32" height="32" viewBox="0 0 32 32" fill="none" xmlns="http://www.w3.org/2000/svg">
<circle cx="16" cy="16" r="16" fill="#EFFAFF"/>
<path d="M9.9943 14.0003C9.90675 14.0002 9.82005 14.0175 9.73915 14.051C9.65826 14.0844 9.58476 14.1336 9.52285 14.1955C9.46094 14.2574 9.41183 14.3309 9.37834 14.4118C9.34484 14.4927 9.32761 14.5794 9.32764 14.6669V17.3336C9.32764 17.5104 9.39787 17.68 9.5229 17.805C9.64792 17.93 9.81749 18.0003 9.9943 18.0003C10.1711 18.0003 10.3407 17.93 10.4657 17.805C10.5907 17.68 10.661 17.5104 10.661 17.3336V14.6669C10.661 14.5794 10.6438 14.4927 10.6103 14.4118C10.5768 14.3309 10.5277 14.2574 10.4658 14.1955C10.4039 14.1336 10.3303 14.0844 10.2495 14.051C10.1686 14.0175 10.0819 14.0002 9.9943 14.0003ZM21.9943 14.0003C21.9067 14.0002 21.82 14.0175 21.7392 14.051C21.6583 14.0844 21.5848 14.1336 21.5228 14.1955C21.4609 14.2574 21.4118 14.3309 21.3783 14.4118C21.3448 14.4927 21.3276 14.5794 21.3276 14.6669V17.3336C21.3276 17.5104 21.3979 17.68 21.5229 17.805C21.6479 17.93 21.8175 18.0003 21.9943 18.0003C22.1711 18.0003 22.3407 17.93 22.4657 17.805C22.5907 17.68 22.661 17.5104 22.661 17.3336V14.6669C22.661 14.5794 22.6438 14.4927 22.6103 14.4118C22.5768 14.3309 22.5277 14.2574 22.4658 14.1955C22.4038 14.1336 22.3303 14.0844 22.2495 14.051C22.1686 14.0175 22.0819 14.0002 21.9943 14.0003ZM19.2381 10.3336C19.2822 10.2578 19.3109 10.174 19.3225 10.0871C19.3342 10.0002 19.3286 9.91183 19.306 9.82709C19.2835 9.74234 19.2444 9.66289 19.1911 9.59327C19.1378 9.52365 19.0712 9.46523 18.9953 9.42138C18.9194 9.37752 18.8355 9.34908 18.7486 9.33768C18.6616 9.32629 18.5733 9.33216 18.4886 9.35497C18.4039 9.37778 18.3246 9.41708 18.2551 9.47061C18.1857 9.52414 18.1275 9.59085 18.0838 9.66692L17.6744 10.3752C17.1487 10.1283 16.5751 10.0003 15.9943 10.0003C15.4135 10.0003 14.8399 10.1283 14.3142 10.3752L13.9048 9.66692C13.8612 9.59085 13.8029 9.52414 13.7335 9.47061C13.664 9.41708 13.5847 9.37778 13.5 9.35497C13.4153 9.33216 13.327 9.32629 13.24 9.33768C13.1531 9.34908 13.0692 9.37752 12.9933 9.42138C12.9174 9.46523 12.8508 9.52365 12.7975 9.59327C12.7442 9.66289 12.7051 9.74234 12.6826 9.82709C12.66 9.91183 12.6544 10.0002 12.6661 10.0871C12.6777 10.174 12.7064 10.2578 12.7505 10.3336L13.2122 11.1322C12.827 11.504 12.5206 11.9495 12.3114 12.4423C12.1021 12.9351 11.9943 13.4649 11.9943 14.0003V19.3336C11.9943 19.4211 12.0115 19.5078 12.045 19.5887C12.0785 19.6696 12.1276 19.7431 12.1895 19.805C12.2514 19.867 12.3249 19.9161 12.4058 19.9496C12.4867 19.983 12.5734 20.0003 12.661 20.0003H13.9943V22.0003C13.9943 22.1771 14.0645 22.3466 14.1896 22.4717C14.3146 22.5967 14.4842 22.6669 14.661 22.6669C14.8378 22.6669 15.0073 22.5967 15.1324 22.4717C15.2574 22.3466 15.3276 22.1771 15.3276 22.0003V20.0003H16.661V22.0003C16.661 22.1771 16.7312 22.3466 16.8562 22.4717C16.9813 22.5967 17.1508 22.6669 17.3276 22.6669C17.5044 22.6669 17.674 22.5967 17.799 22.4717C17.9241 22.3466 17.9943 22.1771 17.9943 22.0003V20.0003H19.3276C19.4152 20.0003 19.5019 19.983 19.5828 19.9496C19.6637 19.9161 19.7372 19.867 19.7991 19.805C19.861 19.7431 19.9101 19.6696 19.9436 19.5887C19.9771 19.5078 19.9943 19.4211 19.9943 19.3336V14.0003C19.9943 13.4649 19.8865 12.9351 19.6772 12.4423C19.468 11.9495 19.1616 11.504 18.7765 11.1322L19.2381 10.3336ZM18.661 18.6669H13.3276V15.3336H18.661V18.6669ZM13.3276 14.0003C13.3276 13.293 13.6086 12.6147 14.1087 12.1146C14.6088 11.6145 15.2871 11.3336 15.9943 11.3336C16.7015 11.3336 17.3798 11.6145 17.8799 12.1146C18.38 12.6147 18.661 13.293 18.661 14.0003H13.3276Z" fill="#000624"/>
</svg>
