<svg width="33" height="32" viewBox="0 0 33 32" fill="none" xmlns="http://www.w3.org/2000/svg">
<g clip-path="url(#clip0_6074_2733)">
<rect opacity="0.1" x="0.280029" width="31.6" height="31.6" rx="15.8" fill="#5A7184"/>
<mask id="mask0_6074_2733" style="mask-type:alpha" maskUnits="userSpaceOnUse" x="8" y="7" width="16" height="19">
<path d="M15.1295 7.97858C14.8944 7.99314 14.6606 8.02896 14.4322 8.08731C14.2235 8.14056 14.0169 8.20263 13.8089 8.25885C11.8717 8.76412 10.3922 9.88935 9.34171 11.6045C8.39279 13.1532 8.07049 14.8318 8.26423 16.6221C8.43251 18.1769 9.12758 19.4958 10.1164 20.6707C10.9958 21.7155 12.0322 22.5805 13.1686 23.3316C14.3472 24.1106 15.6024 24.7202 16.9484 25.1423C17.2807 25.2465 17.6221 25.3096 17.9631 25.375C18.036 25.3889 18.1153 25.4023 18.1656 25.3274C18.2069 25.2659 18.1907 25.2025 18.1632 25.144C18.1337 25.0814 18.0923 25.0252 18.0483 24.9718C17.8222 24.6976 17.6571 24.3885 17.5181 24.063C17.3543 23.6795 17.4131 23.2564 17.9532 23.1153C19.3618 22.747 20.529 21.9654 21.4837 20.8725C22.8576 19.2996 23.4997 17.4492 23.3909 15.3636C23.2755 13.1536 22.3837 11.2918 20.7194 9.836C19.2662 8.56516 17.5775 7.96094 15.694 7.96094C15.5076 7.96094 15.3196 7.96689 15.1295 7.97858Z" fill="white"/>
</mask>
<g mask="url(#mask0_6074_2733)">
<path d="M23.9307 7.42969V15.2378L21.7544 15.2213C21.7507 15.2213 21.747 15.2213 21.7433 15.2213L21.7322 15.2212C21.2177 15.2212 20.7125 15.3613 20.2701 15.627L19.7391 15.9462L19.1857 15.3189C19.1411 15.2686 19.0912 15.2229 19.037 15.1829C18.8322 15.0317 18.5812 14.9699 18.3303 15.0088C18.0794 15.0477 17.8584 15.1826 17.7081 15.3887L17.361 15.8649L16.8926 14.1441C16.8105 13.8417 16.5709 13.61 16.2669 13.5396C16.0469 13.489 15.8204 13.527 15.629 13.6477C15.4376 13.7682 15.3045 13.9565 15.2539 14.1778L14.8315 16.0263L14.5714 14.8523C14.4965 14.515 14.2457 14.2438 13.9171 14.1447C13.6736 14.071 13.4166 14.0971 13.1931 14.2183C12.9695 14.3394 12.806 14.5407 12.7329 14.7854L12.423 15.8235L12.2173 15.1976C12.0881 14.8051 11.7255 14.5415 11.3147 14.5415H10.7455C10.4539 14.5415 10.2174 14.7794 10.2174 15.0729C10.2174 15.3665 10.4539 15.6044 10.7455 15.6044H11.2383L11.8406 17.4369C11.9505 17.7703 12.3098 17.9523 12.6417 17.8417C12.8376 17.7765 12.9901 17.6185 13.0493 17.4198L13.6283 15.4807L14.2064 18.09C14.2433 18.2562 14.3422 18.3981 14.4852 18.4895C14.588 18.5553 14.7048 18.5891 14.8239 18.5891C14.8702 18.5891 14.917 18.584 14.9632 18.5736C15.1996 18.5205 15.3879 18.3327 15.4428 18.0942L16.0954 15.2388L16.4579 16.5699C16.5173 16.789 16.6582 16.9716 16.8543 17.0841C17.0504 17.1965 17.2782 17.2253 17.4959 17.1656C17.6791 17.1152 17.8419 17.0024 17.9543 16.8483L18.4827 16.1233L18.9492 16.6519C19.2858 17.0329 19.8455 17.1199 20.2806 16.8586L20.8116 16.5395C21.0941 16.3698 21.4119 16.2818 21.7463 16.2841L23.9307 16.3007V25.9174H7.68213V7.42969H23.9307Z" fill="#5A7184"/>
</g>
</g>
<defs>
<clipPath id="clip0_6074_2733">
<rect width="32" height="32" fill="white" transform="translate(0.280029)"/>
</clipPath>
</defs>
</svg>
