<svg width="33" height="32" viewBox="0 0 33 32" fill="none" xmlns="http://www.w3.org/2000/svg">
<g clip-path="url(#clip0_6074_2742)">
<rect opacity="0.1" x="0.280029" width="31.6" height="31.6" rx="15.8" fill="#5A7184"/>
<path d="M15.8622 24.7244C10.9676 24.7244 7 20.7568 7 15.8622C7 10.9676 10.9676 7 15.8622 7C20.7568 7 24.7244 10.9676 24.7244 15.8622C24.7244 20.7568 20.7568 24.7244 15.8622 24.7244ZM13.106 16.8991L13.1176 16.8929L13.8886 19.4363C13.9878 19.7119 14.1243 19.7615 14.29 19.7385C14.4566 19.7163 14.5444 19.6268 14.6534 19.5223L15.7062 18.5049L17.9661 20.1781C18.379 20.4058 18.6759 20.288 18.7787 19.7952L20.2472 12.8632C20.4094 12.2181 20.1258 11.9593 19.6251 12.1649L10.9995 15.4971C10.4111 15.7328 10.4146 16.0625 10.8932 16.2087L13.106 16.8999V16.8991Z" fill="#5A7184"/>
</g>
<defs>
<clipPath id="clip0_6074_2742">
<rect width="32" height="32" fill="white" transform="translate(0.280029)"/>
</clipPath>
</defs>
</svg>
