<svg width="17" height="17" viewBox="0 0 17 17" fill="none" xmlns="http://www.w3.org/2000/svg">
<g clip-path="url(#clip0_10029_5501)">
<path d="M15.1595 7.2052C14.9498 6.95342 14.6874 6.75074 14.3908 6.61146C14.0942 6.47218 13.7706 6.3997 13.4429 6.39914H10.0395L10.4575 5.33185C10.6314 4.86455 10.6892 4.36204 10.6262 3.86744C10.5632 3.37285 10.3811 2.90092 10.0957 2.49214C9.81017 2.08337 9.42979 1.74994 8.98714 1.52047C8.54448 1.291 8.05277 1.17234 7.55418 1.17465C7.41061 1.17495 7.27017 1.21666 7.14971 1.29476C7.02924 1.37286 6.93386 1.48406 6.87499 1.615L4.74788 6.39914H2.99395C2.40011 6.39914 1.8306 6.63504 1.41069 7.05495C0.990784 7.47485 0.754883 8.04437 0.754883 8.63821V13.8627C0.754883 14.4565 0.990784 15.026 1.41069 15.446C1.8306 15.8659 2.40011 16.1018 2.99395 16.1018H12.495C13.0188 16.1016 13.526 15.9178 13.9283 15.5823C14.3306 15.2469 14.6025 14.781 14.6968 14.2657L15.6447 9.04124C15.7033 8.71835 15.6902 8.38652 15.6064 8.06924C15.5226 7.75196 15.37 7.45699 15.1595 7.2052ZM4.48666 14.609H2.99395C2.796 14.609 2.60616 14.5304 2.4662 14.3904C2.32623 14.2505 2.24759 14.0606 2.24759 13.8627V8.63821C2.24759 8.44026 2.32623 8.25042 2.4662 8.11045C2.60616 7.97049 2.796 7.89185 2.99395 7.89185H4.48666V14.609ZM14.1893 8.77255L13.2414 13.997C13.2096 14.1709 13.1171 14.3279 12.9805 14.4399C12.8438 14.552 12.6718 14.6119 12.495 14.609H5.97937V7.30223L8.00946 2.73454C8.21842 2.79546 8.41249 2.89904 8.57941 3.03874C8.74634 3.17844 8.88248 3.35123 8.97927 3.54619C9.07605 3.74116 9.13136 3.95407 9.14172 4.1715C9.15207 4.38892 9.11724 4.60612 9.03942 4.8094L8.64386 5.87669C8.55957 6.10228 8.53111 6.34492 8.56092 6.58389C8.59072 6.82286 8.67791 7.05107 8.81502 7.24905C8.95214 7.44702 9.13512 7.60888 9.34835 7.72082C9.56157 7.83275 9.79872 7.89143 10.0395 7.89185H13.4429C13.5526 7.89167 13.6609 7.91566 13.7602 7.9621C13.8596 8.00853 13.9474 8.07629 14.0176 8.16054C14.0895 8.24363 14.1422 8.34156 14.1719 8.44736C14.2015 8.55315 14.2075 8.66419 14.1893 8.77255Z" fill="#2F80ED"/>
</g>
<defs>
<clipPath id="clip0_10029_5501">
<rect width="16.2827" height="16.2827" fill="white" transform="translate(0.229492 0.123871)"/>
</clipPath>
</defs>
</svg>
