<svg width="33" height="32" viewBox="0 0 33 32" fill="none" xmlns="http://www.w3.org/2000/svg">
<g clip-path="url(#clip0_6074_2727)">
<rect opacity="0.1" x="0.280029" width="31.6" height="31.6" rx="15.8" fill="#5A7184"/>
<path d="M23.2 14.8402V12.0002C21.87 12.0002 20.855 11.6452 20.2 10.9552C19.5277 10.1678 19.1511 9.17051 19.135 8.13523V7.93023L16.45 7.86523C16.45 7.86523 16.45 7.98023 16.45 8.13523V19.4002C16.3579 19.9035 16.1136 20.3664 15.7501 20.7265C15.3865 21.0865 14.9213 21.3263 14.4172 21.4136C13.913 21.5008 13.3942 21.4313 12.9309 21.2144C12.4675 20.9974 12.0818 20.6436 11.8259 20.2005C11.5701 19.7574 11.4563 19.2465 11.5 18.7368C11.5436 18.227 11.7427 17.7429 12.0702 17.3498C12.3977 16.9568 12.8379 16.6737 13.3315 16.5387C13.825 16.4038 14.348 16.4235 14.83 16.5952V13.8452C14.549 13.7992 14.2647 13.7758 13.98 13.7752C12.9555 13.7752 11.954 14.079 11.1021 14.6482C10.2503 15.2174 9.58636 16.0264 9.19429 16.9729C8.80223 17.9195 8.69965 18.961 8.89952 19.9658C9.09939 20.9706 9.59274 21.8936 10.3172 22.618C11.0416 23.3425 11.9646 23.8358 12.9694 24.0357C13.9742 24.2356 15.0158 24.133 15.9623 23.7409C16.9088 23.3489 17.7178 22.6849 18.287 21.8331C18.8562 20.9812 19.16 19.9797 19.16 18.9552C19.1594 18.743 19.1461 18.5309 19.12 18.3202V13.7452C20.3409 14.5077 21.7614 14.8889 23.2 14.8402Z" fill="#5A7184"/>
</g>
<defs>
<clipPath id="clip0_6074_2727">
<rect width="32" height="32" fill="white" transform="translate(0.280029)"/>
</clipPath>
</defs>
</svg>
