<svg width="75" height="75" viewBox="0 0 75 75" fill="none" xmlns="http://www.w3.org/2000/svg">
<circle cx="37.5" cy="37.5" r="37.5" fill="#F1F7FF"/>
<path d="M37 19C33.2422 19 29.5687 20.1143 26.4442 22.2021C23.3196 24.2898 20.8844 27.2572 19.4463 30.729C18.0082 34.2008 17.632 38.0211 18.3651 41.7067C19.0982 45.3923 20.9078 48.7778 23.565 51.435C26.2222 54.0922 29.6077 55.9018 33.2933 56.6349C36.9789 57.368 40.7992 56.9918 44.271 55.5537C47.7428 54.1156 50.7102 51.6804 52.7979 48.5558C54.8857 45.4313 56 41.7578 56 38C56 35.5049 55.5086 33.0342 54.5537 30.729C53.5989 28.4238 52.1993 26.3293 50.435 24.565C48.6707 22.8007 46.5762 21.4011 44.271 20.4463C41.9658 19.4914 39.4951 19 37 19ZM37 53.2C33.9937 53.2 31.055 52.3085 28.5553 50.6383C26.0557 48.9681 24.1075 46.5942 22.957 43.8168C21.8066 41.0393 21.5056 37.9831 22.0921 35.0346C22.6786 32.0861 24.1262 29.3777 26.252 27.252C28.3777 25.1262 31.0861 23.6786 34.0346 23.0921C36.9831 22.5056 40.0394 22.8066 42.8168 23.957C45.5942 25.1075 47.9681 27.0557 49.6383 29.5553C51.3085 32.055 52.2 34.9937 52.2 38C52.2 42.0313 50.5986 45.8975 47.748 48.748C44.8975 51.5986 41.0313 53.2 37 53.2ZM37 26.6C36.4961 26.6 36.0128 26.8002 35.6565 27.1565C35.3002 27.5128 35.1 27.9961 35.1 28.5V36.898L31.11 39.197C30.744 39.4044 30.4572 39.7274 30.2945 40.1154C30.1318 40.5034 30.1025 40.9344 30.2112 41.3408C30.3199 41.7472 30.5604 42.1061 30.8949 42.3611C31.2295 42.6162 31.6393 42.7529 32.06 42.75C32.3928 42.7523 32.7204 42.6671 33.01 42.503L37.95 39.653L38.121 39.482L38.425 39.235C38.4993 39.1409 38.563 39.039 38.615 38.931C38.6769 38.829 38.7279 38.7207 38.767 38.608C38.8187 38.4872 38.8508 38.3589 38.862 38.228L38.9 38V28.5C38.9 27.9961 38.6998 27.5128 38.3435 27.1565C37.9872 26.8002 37.5039 26.6 37 26.6Z" fill="black"/>
</svg>
