<svg width="45" height="43" viewBox="0 0 45 43" fill="none" xmlns="http://www.w3.org/2000/svg">
<g clip-path="url(#clip0_5947_6491)">
<rect opacity="0.1" x="0.359985" y="0.519531" width="43.68" height="41.6" rx="20.8" fill="#5A7184"/>
<path d="M29.3242 18.6866C29.9742 18.1991 30.5592 17.6141 31.0142 16.9316C30.4292 17.1916 29.7467 17.3866 29.0642 17.4516C29.7792 17.0291 30.2992 16.3791 30.5592 15.5666C29.9092 15.9566 29.1617 16.2491 28.4142 16.4116C27.7642 15.7291 26.8867 15.3391 25.9117 15.3391C24.0267 15.3391 22.4992 16.8666 22.4992 18.7516C22.4992 19.0116 22.5317 19.2716 22.5967 19.5316C19.7692 19.3691 17.2342 18.0041 15.5442 15.9566C15.2517 16.4441 15.0892 17.0291 15.0892 17.6791C15.0892 18.8491 15.6742 19.8891 16.6167 20.5066C16.0642 20.4741 15.5117 20.3441 15.0567 20.0841V20.1166C15.0567 21.7741 16.2267 23.1391 17.7867 23.4641C17.5267 23.5291 17.2017 23.5941 16.9092 23.5941C16.6817 23.5941 16.4867 23.5616 16.2592 23.5291C16.6817 24.8941 17.9492 25.8691 19.4442 25.9016C18.2742 26.8116 16.8117 27.3641 15.2192 27.3641C14.9267 27.3641 14.6667 27.3316 14.4067 27.2991C15.9017 28.2741 17.6892 28.8266 19.6392 28.8266C25.9117 28.8266 29.3242 23.6591 29.3242 19.1416C29.3242 18.9791 29.3242 18.8491 29.3242 18.6866Z" fill="#5A7184"/>
</g>
<defs>
<clipPath id="clip0_5947_6491">
<rect width="43.68" height="41.6" fill="white" transform="translate(0.359985 0.519531)"/>
</clipPath>
</defs>
</svg>
