<svg width="33" height="32" viewBox="0 0 33 32" fill="none" xmlns="http://www.w3.org/2000/svg">
<g clip-path="url(#clip0_6074_2712)">
<rect opacity="0.1" x="0.280029" width="31.68" height="31.6" rx="15.8" fill="#5A7184"/>
<path d="M23.2442 13.1678C23.8942 12.6803 24.4792 12.0953 24.9342 11.4128C24.3492 11.6728 23.6667 11.8678 22.9842 11.9328C23.6992 11.5103 24.2192 10.8603 24.4792 10.0478C23.8292 10.4378 23.0817 10.7303 22.3342 10.8928C21.6842 10.2103 20.8067 9.82031 19.8317 9.82031C17.9467 9.82031 16.4192 11.3478 16.4192 13.2328C16.4192 13.4928 16.4517 13.7528 16.5167 14.0128C13.6892 13.8503 11.1542 12.4853 9.46422 10.4378C9.17172 10.9253 9.00922 11.5103 9.00922 12.1603C9.00922 13.3303 9.59422 14.3703 10.5367 14.9878C9.98422 14.9553 9.43172 14.8253 8.97672 14.5653V14.5978C8.97672 16.2553 10.1467 17.6203 11.7067 17.9453C11.4467 18.0103 11.1217 18.0753 10.8292 18.0753C10.6017 18.0753 10.4067 18.0428 10.1792 18.0103C10.6017 19.3753 11.8692 20.3503 13.3642 20.3828C12.1942 21.2928 10.7317 21.8453 9.13922 21.8453C8.84672 21.8453 8.58672 21.8128 8.32672 21.7803C9.82172 22.7553 11.6092 23.3078 13.5592 23.3078C19.8317 23.3078 23.2442 18.1403 23.2442 13.6228C23.2442 13.4603 23.2442 13.3303 23.2442 13.1678Z" fill="#5A7184"/>
</g>
<defs>
<clipPath id="clip0_6074_2712">
<rect width="32" height="32" fill="white" transform="translate(0.280029)"/>
</clipPath>
</defs>
</svg>
