<svg width="75" height="75" viewBox="0 0 75 75" fill="none" xmlns="http://www.w3.org/2000/svg">
<circle cx="37.5" cy="37.5" r="37.5" fill="#F1F7FF"/>
<path d="M21.1568 40.4729C21.6462 41.0605 22.2587 41.5335 22.9509 41.8586C23.6431 42.1836 24.3983 42.3528 25.163 42.3541H33.1057L32.1303 44.8449C31.7245 45.9354 31.5894 47.1082 31.7365 48.2625C31.8836 49.4167 32.3085 50.5181 32.9747 51.4721C33.641 52.4261 34.5287 53.2042 35.5618 53.7397C36.5948 54.2753 37.7424 54.5522 38.906 54.5468C39.241 54.5461 39.5688 54.4488 39.8499 54.2665C40.131 54.0842 40.3536 53.8247 40.491 53.5191L45.4552 42.3541H49.5485C50.9343 42.3541 52.2635 41.8035 53.2434 40.8236C54.2234 39.8436 54.7739 38.5145 54.7739 37.1286L54.7739 24.9359C54.7739 23.55 54.2234 22.2209 53.2434 21.2409C52.2635 20.2609 50.9343 19.7104 49.5485 19.7104H27.3751C26.1527 19.7108 24.9691 20.1398 24.0303 20.9227C23.0914 21.7056 22.4568 22.7928 22.2367 23.9953L20.0246 36.188C19.8878 36.9416 19.9183 37.716 20.1139 38.4564C20.3096 39.1969 20.6656 39.8853 21.1568 40.4729ZM46.0648 23.194H49.5485C50.0104 23.194 50.4535 23.3776 50.7801 23.7042C51.1068 24.0309 51.2903 24.4739 51.2903 24.9359V37.1286C51.2903 37.5906 51.1068 38.0336 50.7801 38.3603C50.4535 38.6869 50.0104 38.8704 49.5485 38.8704H46.0648V23.194ZM23.4212 36.8151L25.6333 24.6223C25.7075 24.2166 25.9233 23.8503 26.2422 23.5887C26.5612 23.3272 26.9627 23.1873 27.3751 23.194L42.5812 23.194V40.2465L37.8434 50.9064C37.3558 50.7642 36.9028 50.5225 36.5133 50.1965C36.1237 49.8704 35.806 49.4672 35.5801 49.0122C35.3543 48.5572 35.2252 48.0603 35.201 47.5529C35.1768 47.0455 35.2581 46.5386 35.4397 46.0641L36.3629 43.5733C36.5596 43.0469 36.626 42.4806 36.5565 41.9229C36.4869 41.3652 36.2834 40.8326 35.9634 40.3706C35.6434 39.9086 35.2164 39.5308 34.7188 39.2696C34.2212 39.0084 33.6677 38.8714 33.1057 38.8704H25.163C24.9071 38.8708 24.6543 38.8149 24.4225 38.7065C24.1906 38.5981 23.9856 38.44 23.8218 38.2434C23.654 38.0495 23.5311 37.8209 23.4618 37.574C23.3926 37.3271 23.3787 37.068 23.4212 36.8151Z" fill="#FC4949"/>
</svg>
