<svg width="15" height="15" viewBox="0 0 15 15" fill="none" xmlns="http://www.w3.org/2000/svg">
<path fill-rule="evenodd" clip-rule="evenodd" d="M8.37756 0.412137C7.92155 -0.137379 7.07845 -0.137379 6.62244 0.412137L5.24946 2.06669L3.10865 1.86759C2.39764 1.80147 1.80147 2.39764 1.86759 3.10865L2.06669 5.24946L0.412137 6.62244C-0.137379 7.07845 -0.137379 7.92155 0.412137 8.37756L2.06669 9.75054L1.86759 11.8914C1.80147 12.6024 2.39764 13.1985 3.10865 13.1324L5.24946 12.9333L6.62244 14.5879C7.07845 15.1374 7.92155 15.1374 8.37756 14.5879L9.75054 12.9333L11.8914 13.1324C12.6024 13.1985 13.1985 12.6024 13.1324 11.8914L12.9333 9.75054L14.5879 8.37756C15.1374 7.92155 15.1374 7.07845 14.5879 6.62244L12.9333 5.24946L13.1324 3.10865C13.1985 2.39764 12.6024 1.80147 11.8914 1.86759L9.75054 2.06669L8.37756 0.412137ZM9.89199 5.21929C9.75042 5.21969 9.61468 5.27579 9.51414 5.37546H9.51485C9.50974 5.38041 9.50493 5.3857 9.50047 5.39127L7.00523 8.57049L5.50074 7.06674C5.45142 7.0138 5.39192 6.97132 5.32582 6.94187C5.25972 6.91242 5.18837 6.89659 5.11602 6.89532C5.04367 6.89403 4.97181 6.90735 4.90471 6.93446C4.8617 6.95182 4.82121 6.97465 4.7842 7.00227C4.76348 7.01774 4.74385 7.0347 4.7255 7.05306C4.67431 7.10422 4.63398 7.16518 4.60687 7.23227C4.57977 7.29937 4.56647 7.37124 4.56774 7.44358C4.56901 7.51595 4.58486 7.5873 4.61431 7.6534C4.64376 7.7195 4.68622 7.77898 4.73916 7.82832L6.63952 9.7294C6.69075 9.78063 6.75178 9.821 6.81898 9.8481C6.88615 9.87521 6.95812 9.88849 7.03055 9.88716C7.10299 9.88581 7.1744 9.86988 7.24054 9.84031C7.30669 9.81072 7.36619 9.76812 7.41548 9.71503L10.2836 6.12984C10.3813 6.02735 10.4347 5.89053 10.4323 5.74896C10.4299 5.60741 10.3718 5.47248 10.2707 5.37337C10.1696 5.27426 10.0336 5.21889 9.89199 5.21929Z" fill="#2196F3"/>
</svg>
