<svg width="75" height="75" viewBox="0 0 75 75" fill="none" xmlns="http://www.w3.org/2000/svg">
<circle cx="37.5" cy="37.5" r="37.5" fill="#F1F7FF"/>
<path d="M52.8432 35.5271C52.3538 34.9395 51.7413 34.4665 51.0491 34.1414C50.3569 33.8164 49.6017 33.6472 48.837 33.6459H40.8943L41.8697 31.1551C42.2755 30.0646 42.4106 28.8918 42.2635 27.7375C42.1164 26.5833 41.6915 25.4819 41.0253 24.5279C40.359 23.5739 39.4713 22.7958 38.4382 22.2603C37.4052 21.7247 36.2576 21.4478 35.094 21.4532C34.759 21.4539 34.4312 21.5512 34.1501 21.7335C33.869 21.9158 33.6464 22.1753 33.509 22.4809L28.5448 33.6459H24.4515C23.0657 33.6459 21.7365 34.1965 20.7566 35.1764C19.7766 36.1564 19.2261 37.4855 19.2261 38.8714V51.0641C19.2261 52.45 19.7766 53.7791 20.7566 54.7591C21.7365 55.7391 23.0657 56.2896 24.4515 56.2896H46.6249C47.8473 56.2892 49.0309 55.8602 49.9697 55.0773C50.9086 54.2944 51.5432 53.2072 51.7633 52.0047L53.9754 39.812C54.1122 39.0584 54.0817 38.284 53.8861 37.5436C53.6904 36.8031 53.3344 36.1147 52.8432 35.5271ZM27.9352 52.806H24.4515C23.9896 52.806 23.5465 52.6224 23.2199 52.2958C22.8932 51.9691 22.7097 51.5261 22.7097 51.0641V38.8714C22.7097 38.4094 22.8932 37.9664 23.2199 37.6397C23.5465 37.3131 23.9896 37.1296 24.4515 37.1296H27.9352V52.806ZM50.5788 39.1849L48.3667 51.3777C48.2925 51.7834 48.0767 52.1497 47.7578 52.4113C47.4388 52.6728 47.0373 52.8127 46.6249 52.806H31.4188V35.7535L36.1566 25.0936C36.6442 25.2358 37.0972 25.4775 37.4867 25.8035C37.8763 26.1296 38.194 26.5328 38.4199 26.9878C38.6457 27.4428 38.7748 27.9397 38.799 28.4471C38.8232 28.9545 38.7419 29.4614 38.5603 29.9359L37.6371 32.4267C37.4404 32.9531 37.374 33.5194 37.4435 34.0771C37.5131 34.6348 37.7166 35.1674 38.0366 35.6294C38.3566 36.0914 38.7836 36.4692 39.2812 36.7304C39.7788 36.9916 40.3323 37.1286 40.8943 37.1296H48.837C49.0929 37.1292 49.3457 37.1851 49.5775 37.2935C49.8094 37.4019 50.0144 37.56 50.1782 37.7566C50.346 37.9505 50.4689 38.1791 50.5382 38.426C50.6074 38.6729 50.6213 38.932 50.5788 39.1849Z" fill="black"/>
</svg>
