<svg width="19" height="19" viewBox="0 0 19 19" fill="none" xmlns="http://www.w3.org/2000/svg">
  <path
    d="M5.54167 11.875H7.91667C8.12663 11.875 8.328 11.7916 8.47646 11.6431C8.62493 11.4946 8.70834 11.2933 8.70834 11.0833C8.70834 10.8734 8.62493 10.672 8.47646 10.5235C8.328 10.3751 8.12663 10.2916 7.91667 10.2916H5.54167C5.33171 10.2916 5.13034 10.3751 4.98188 10.5235C4.83341 10.672 4.75 10.8734 4.75 11.0833C4.75 11.2933 4.83341 11.4946 4.98188 11.6431C5.13034 11.7916 5.33171 11.875 5.54167 11.875ZM15.0417 3.95831H3.95834C3.32845 3.95831 2.72436 4.20854 2.27896 4.65393C1.83356 5.09933 1.58334 5.70342 1.58334 6.33331V13.4583C1.58334 14.0882 1.83356 14.6923 2.27896 15.1377C2.72436 15.5831 3.32845 15.8333 3.95834 15.8333H15.0417C15.6716 15.8333 16.2756 15.5831 16.721 15.1377C17.1664 14.6923 17.4167 14.0882 17.4167 13.4583V6.33331C17.4167 5.70342 17.1664 5.09933 16.721 4.65393C16.2756 4.20854 15.6716 3.95831 15.0417 3.95831ZM15.8333 13.4583C15.8333 13.6683 15.7499 13.8696 15.6015 14.0181C15.453 14.1666 15.2516 14.25 15.0417 14.25H3.95834C3.74837 14.25 3.54701 14.1666 3.39854 14.0181C3.25008 13.8696 3.16667 13.6683 3.16667 13.4583V8.70831H15.8333V13.4583ZM15.8333 7.12498H3.16667V6.33331C3.16667 6.12335 3.25008 5.92199 3.39854 5.77352C3.54701 5.62505 3.74837 5.54165 3.95834 5.54165H15.0417C15.2516 5.54165 15.453 5.62505 15.6015 5.77352C15.7499 5.92199 15.8333 6.12335 15.8333 6.33331V7.12498Z"
    fill="#2F80ED" />
</svg>