<svg width="48" height="48" viewBox="0 0 48 48" fill="none" xmlns="http://www.w3.org/2000/svg">
<g clip-path="url(#clip0_149_19051)">
<path d="M14.4709 20.17L23.7925 10.8487L33.1191 20.1749L38.5431 14.7509L23.7925 0L9.04688 14.746L14.4709 20.17Z" fill="#F3BA2F"/>
<path d="M10.6407 23.9991L5.2168 18.5752L-0.207364 23.9994L5.21653 29.4232L10.6407 23.9991Z" fill="#F3BA2F"/>
<path d="M14.471 27.8302L23.7927 37.1515L33.1189 27.8257L38.5459 33.2466L38.5432 33.2497L23.7927 48.0002L9.04664 33.2546L9.03906 33.247L14.471 27.8302Z" fill="#F3BA2F"/>
<path d="M42.3688 29.4256L47.793 24.0015L42.3691 18.5776L36.9449 24.0017L42.3688 29.4256Z" fill="#F3BA2F"/>
<path d="M29.2945 23.9971H29.2967L23.7928 18.4932L19.7252 22.5607H19.7249L19.2578 23.0281L18.2937 23.9922L18.2861 23.9998L18.2937 24.0078L23.7928 29.5068L29.2967 24.0028L29.2994 23.9998L29.2945 23.9971Z" fill="#F3BA2F"/>
</g>
<defs>
<clipPath id="clip0_149_19051">
<rect width="48" height="48" fill="white"/>
</clipPath>
</defs>
</svg>
