<svg width="48" height="48" viewBox="0 0 48 48" fill="none" xmlns="http://www.w3.org/2000/svg">
<path d="M45.557 2.01318L26.9785 15.7701L30.3826 7.686L45.557 2.01318Z" fill="#E17726"/>
<path d="M45.557 2.01311L45.452 1.87061L27.3929 15.2422L30.5157 7.82467L45.6189 2.17904L45.557 2.01311L45.452 1.87061L45.557 2.01311L45.4951 1.84717L30.3198 7.51998L30.2186 7.61654L26.8154 15.7006L26.8689 15.9087L27.0836 15.9125L45.6629 2.15561L45.7126 1.92779L45.4951 1.84717L45.557 2.01311Z" fill="#E17726"/>
<path d="M2.58475 2.01318L21.0216 15.9116L17.7601 7.686L2.58475 2.01318ZM38.7497 33.9229L33.7857 41.4397L44.4226 44.4182L47.401 34.0654C47.5425 34.0654 38.7497 33.9229 38.7497 33.9229ZM0.599121 34.2069L3.57756 44.5597L14.2144 41.5813L9.25037 34.0644C9.25037 33.9229 0.599121 34.2069 0.599121 34.2069Z" fill="#E27625"/>
<path d="M2.58447 2.01311L2.4776 2.15467L20.9145 16.0531L21.1282 16.0522L21.1854 15.8459L17.9248 7.62029L17.8217 7.51998L2.64635 1.84717L2.42885 1.92779L2.4776 2.15467L2.58447 2.01311L2.5226 2.17904L17.6238 7.82467L20.6238 15.3903L2.69135 1.87154L2.58447 2.01311ZM38.7495 33.9228L38.6013 33.8253L33.6373 41.3422L33.6195 41.5015L33.7376 41.6103L44.3745 44.5887L44.5929 44.4669L47.5713 34.114L47.4007 34.0653V34.2425L47.4166 34.2415L47.5751 34.1019L47.487 33.9097L47.4232 33.889L47.3782 33.8872C46.8513 33.8769 38.7513 33.7456 38.7513 33.7456L38.6004 33.8253L38.7495 33.9228L38.7467 34.1C38.7513 34.1 40.9095 34.1347 43.0732 34.1703C44.1551 34.1881 45.236 34.2059 46.0479 34.219C46.4538 34.2256 46.7913 34.2312 47.0276 34.235L47.3023 34.2397L47.3745 34.2406H47.3923H47.3951L47.3988 34.1347L47.3932 34.2406H47.3951L47.3988 34.1347L47.3932 34.2406L47.4016 34.0728L47.3876 34.2406H47.3932L47.4016 34.0728L47.3876 34.2406L47.4016 34.0653L47.3754 34.2397L47.3866 34.2406L47.4007 34.0653L47.3745 34.2397L47.4007 34.0644L47.3529 34.235L47.3745 34.2397L47.4007 34.0644L47.3857 33.8881L47.3988 34.0447V33.8872L47.3857 33.8881L47.3988 34.0447V33.8872L47.2282 34.0156L44.2985 44.1997L34.0657 41.3347L38.8957 34.0212L38.7495 33.9228ZM0.598848 34.2069L0.428223 34.2556L3.40666 44.6084L3.6251 44.7303L14.262 41.7519L14.3801 41.6431L14.3623 41.4837L9.39822 33.9669L9.2501 34.0644H9.42728L9.33916 33.9078L9.17978 33.8665C9.02791 33.8525 8.74291 33.8469 8.35103 33.8469C6.12916 33.8469 0.595098 34.0287 0.59416 34.0287L0.456348 34.1019L0.42916 34.2556L0.598848 34.2069L0.604473 34.384C0.611973 34.384 6.14228 34.2022 8.3501 34.2022C8.62572 34.2022 8.84885 34.205 9.00072 34.2115L9.16572 34.2228L9.18541 34.2256L9.22103 34.1L9.15353 34.2106L9.18541 34.2256L9.22103 34.1L9.15353 34.2106L9.24353 34.0644H9.07385L9.15447 34.2106L9.24447 34.0644H9.07478L9.10385 34.1619L13.9338 41.4753L3.69916 44.3412L0.769473 34.1581L0.598848 34.2069Z" fill="#E27625"/>
<path d="M13.6474 21.1588L10.6689 25.5557L21.1643 25.9813L20.8802 14.6357L13.6474 21.1588ZM34.4955 21.1588L27.1211 14.6348L26.8371 26.1229L37.3324 25.6973C37.3314 25.5557 34.4955 21.1588 34.4955 21.1588ZM14.2146 41.5813L20.5971 38.4613L15.0658 34.207L14.2146 41.5813ZM27.5458 38.4613L33.9283 41.5813L33.0771 34.207C32.9355 34.207 27.5458 38.4613 27.5458 38.4613Z" fill="#E27625"/>
<path d="M13.6471 21.1589L13.4999 21.0595L10.5215 25.4564L10.5103 25.6354L10.6612 25.7329L21.1565 26.1586L21.2878 26.1079L21.3403 25.9776L21.0562 14.632L20.9493 14.4736L20.7609 14.5045L13.5281 21.0276L13.4999 21.0595L13.6471 21.1589L13.7662 21.2901L20.7131 15.0248L20.9821 25.7957L10.9949 25.3907L13.7943 21.2582L13.6471 21.1589ZM34.4953 21.1589L34.6124 21.0257L27.2381 14.5017L27.0496 14.4717L26.9428 14.6301L26.6587 26.1182L26.7112 26.2486L26.8424 26.2992L37.3387 25.8745L37.5084 25.6973L37.4859 25.6017C37.4296 25.4742 37.2374 25.1573 36.9618 24.7101C36.1415 23.3836 34.6443 21.0632 34.6434 21.0623L34.6115 21.0257L34.4953 21.1589L34.3462 21.2545C34.3481 21.2564 35.0549 22.3532 35.7637 23.4698C36.1181 24.0276 36.4724 24.5901 36.7378 25.0214C36.8699 25.237 36.9806 25.4189 37.0565 25.5501L37.1428 25.7039L37.1606 25.7414L37.2993 25.6973H37.1549L37.1615 25.7414L37.3003 25.6973H37.1559H37.3331L37.3256 25.5201L27.0196 25.9382L27.2896 15.0201L34.379 21.292L34.4953 21.1589ZM14.2143 41.5814L14.2921 41.7408L20.6746 38.6208L20.7731 38.4792L20.7046 38.3208L15.1734 34.0664L14.9962 34.0439L14.8893 34.1864L14.0381 41.5608L14.1121 41.7257L14.2921 41.7398L14.2143 41.5814L14.3906 41.602L15.2053 34.5379L20.2612 38.4276L14.1356 41.422L14.2143 41.5814ZM27.5456 38.4614L27.4678 38.6208L33.8503 41.7408L34.0303 41.7267L34.1043 41.5617L33.2531 34.1873L33.0768 34.0307L32.9615 34.0654C32.8218 34.1451 32.4356 34.4348 31.8928 34.8473C30.2803 36.0773 27.4359 38.3236 27.4349 38.3236L27.3684 38.482L27.4668 38.6226L27.5456 38.4614L27.6553 38.6001C27.6581 38.5982 29.0024 37.537 30.3665 36.4739C31.049 35.9423 31.7353 35.4107 32.2593 35.0123C32.5209 34.8136 32.7431 34.6476 32.9015 34.5332L33.0881 34.4029L33.134 34.3739L33.1359 34.3729L33.0759 34.2342V34.3842L33.1359 34.3729L33.0759 34.2342V34.3842V34.207L32.8996 34.2276L33.7134 41.2804L27.6224 38.3029L27.5456 38.4614Z" fill="#E27625"/>
<path d="M33.7856 41.5809L27.4031 38.4609L27.9703 42.5737V44.2753L33.7856 41.5809ZM14.2144 41.5809L20.1712 44.4178V42.7162L20.7384 38.6034L14.2144 41.5809Z" fill="#D5BFB2"/>
<path d="M33.7855 41.5811L33.8634 41.4218L27.4809 38.3018L27.299 38.3177L27.2277 38.4855L27.793 42.5861V44.2755L27.8746 44.4246L28.0443 44.4358L33.8587 41.7414L33.9618 41.5821L33.8624 41.4208L33.7855 41.5811L33.7105 41.4199L28.1474 43.998V42.5739L28.1455 42.5496L27.6234 38.7668L33.7068 41.7405L33.7855 41.5811ZM14.2143 41.5811L14.1384 41.7414L20.0952 44.5783L20.2659 44.568L20.3484 44.418V42.7286L20.9137 38.6271L20.8443 38.4602L20.6652 38.4414L14.1412 41.4199L14.0371 41.5793L14.1384 41.7405L14.2143 41.5811L14.2884 41.7424L20.519 38.898L19.9959 42.6911L19.994 42.7155V44.1368L14.2912 41.4208L14.2143 41.5811Z" fill="#D5BFB2"/>
<path d="M20.171 31.5125L14.9238 29.9525L18.611 28.251L20.171 31.5125ZM27.8295 31.5125L29.3895 28.251L33.0766 29.9525L27.8295 31.5125Z" fill="#233447"/>
<path d="M20.1715 31.5127L20.2221 31.343L15.4249 29.917L18.5271 28.4855L20.0121 31.5895L20.1715 31.5127L20.3318 31.4358L18.7718 28.1742L18.5374 28.0898L14.8502 29.7914L14.748 29.9648L14.8746 30.1223L20.1218 31.6823L20.3074 31.628L20.3327 31.4367L20.1715 31.5127ZM27.8299 31.5127L27.9902 31.5895L29.4752 28.4855L32.5774 29.917L27.7802 31.343L27.8299 31.5127L27.8805 31.6823L33.1277 30.1223L33.2543 29.9648L33.1521 29.7914L29.4649 28.0898L29.2305 28.1742L27.6705 31.4358L27.6959 31.627L27.8815 31.6814L27.8299 31.5127Z" fill="#233447"/>
<path d="M14.2146 41.5813L15.0658 34.0645L9.25146 34.206L14.2146 41.5813ZM32.9355 33.9229L33.7868 41.4398L38.7508 34.0654L32.9355 33.9229ZM37.3315 25.6973L26.8362 26.1229L27.829 31.5126L29.389 28.251L33.0761 29.9526L37.3315 25.6973ZM14.9233 29.9526L18.6105 28.251L20.1705 31.5126L21.1633 26.1229L10.668 25.6973L14.9233 29.9526Z" fill="#CC6228"/>
<path d="M14.2144 41.5813L14.3907 41.601L15.2419 34.0841L15.1969 33.9444L15.0619 33.8872L9.24754 34.0288L9.09473 34.1244L9.10504 34.3044L14.0691 41.6788L14.2585 41.7519L14.3925 41.6L14.2144 41.5813L14.3616 41.4819L9.57848 34.3756L14.866 34.2463L14.0382 41.5607L14.2144 41.5813ZM32.9354 33.9228L32.7591 33.9425L33.6104 41.4594L33.7444 41.6113L33.9338 41.5382L38.8979 34.1638L38.9082 33.9838L38.7554 33.8882L32.941 33.7466L32.806 33.8038L32.761 33.9435L32.9354 33.9228L32.9307 34.1L38.4225 34.2341L33.9085 40.941L33.1116 33.9032L32.9354 33.9228ZM37.3313 25.6972L37.3238 25.52L26.8285 25.9456L26.6972 26.0122L26.6616 26.1547L27.6544 31.5444L27.8054 31.6878L27.9882 31.5885L29.4732 28.4844L33.0019 30.1128L33.2016 30.0772L37.456 25.8228L37.4925 25.626L37.3229 25.52L37.3313 25.6972L37.2057 25.5716L33.0385 29.7388L29.4638 28.0888L29.2294 28.1731L27.9047 30.9425L27.0479 26.2906L37.3388 25.8744L37.3313 25.6972ZM14.9232 29.9525L14.9972 30.1138L18.526 28.4853L20.011 31.5894L20.1938 31.6888L20.3447 31.5453L21.3375 26.1556L21.3019 26.0131L21.1707 25.9466L10.6754 25.521L10.5057 25.6269L10.5422 25.8238L14.7966 30.0781L14.9963 30.1138L14.9232 29.9525L15.0488 29.8269L11.115 25.8931L20.9522 26.2916L20.0954 30.9435L18.7707 28.1741L18.5363 28.0897L14.8491 29.7913L14.9232 29.9525Z" fill="#CC6228"/>
<path d="M10.6689 25.5557L15.0658 34.2069L14.9243 29.9525C14.9233 29.9525 10.6689 25.6972 10.6689 25.5557ZM33.0771 29.9525L32.9355 34.2069L37.3324 25.5557L33.0771 29.9525ZM21.1633 26.1229L20.1705 31.5125L21.4464 37.895L21.7305 29.5278L21.1633 26.1229ZM26.8371 26.1229L26.2699 29.5269L26.5539 37.8941L27.8299 31.5116L26.8371 26.1229Z" fill="#E27525"/>
<path d="M10.6689 25.5558L10.5104 25.6364L14.9073 34.2877L15.1098 34.3786L15.2429 34.2014L15.1014 29.9471L15.0498 29.828C15.0479 29.8261 13.9867 28.7649 12.9236 27.6839C12.392 27.1439 11.8604 26.5992 11.4629 26.1811C11.2642 25.972 11.0992 25.7958 10.9848 25.6683L10.8564 25.5192L10.8301 25.4845L10.7983 25.5052L10.832 25.4892L10.8301 25.4845L10.7983 25.5052L10.832 25.4892L10.6923 25.5577H10.847L10.832 25.4892L10.6923 25.5577H10.847H10.6689L10.5104 25.6383L10.6689 25.5558H10.4917L10.5329 25.6786C10.6211 25.808 10.907 26.1127 11.3214 26.5467C12.5523 27.8321 14.7976 30.0774 14.7986 30.0783L14.9242 29.9527L14.747 29.9583L14.8623 33.4149L10.8273 25.4752L10.6276 25.3833L10.4917 25.5558H10.6689ZM33.077 29.9527L32.8998 29.9471L32.7583 34.2014L32.8914 34.3786L33.0939 34.2877L37.4908 25.6364L37.4354 25.4114L37.2048 25.432L32.9504 29.8289L32.9008 29.9461L33.077 29.9527L33.2045 30.0755L36.6404 26.5252L33.1389 33.4149L33.2542 29.9583L33.077 29.9527ZM21.1633 26.123L20.9889 26.0911L19.9961 31.4808L19.997 31.5474L21.2729 37.9299L21.4614 38.0714L21.6245 37.9008L21.9086 29.5336L21.9067 29.4989L21.3395 26.0949L21.1661 25.9467L20.9898 26.0921L21.1633 26.123L20.9879 26.152L21.5523 29.5383L21.3208 36.3633L20.3504 31.5108L21.3367 26.1549L21.1633 26.123ZM26.837 26.123L26.6617 26.0939L26.0945 29.498L26.0926 29.5327L26.3767 37.8999L26.5398 38.0705L26.7283 37.9289L28.0042 31.5464L28.0051 31.4799L27.0123 26.0902L26.8361 25.9449L26.6626 26.093L26.837 26.123L26.6626 26.1549L27.6489 31.5108L26.6786 36.3624L26.447 29.5383L27.0114 26.152L26.837 26.123Z" fill="#E27525"/>
<path d="M27.8299 31.5126L26.554 37.8951L27.4052 38.4623L32.9365 34.208L33.078 29.9536L27.8299 31.5126ZM14.9233 29.9526L15.0649 34.207L20.5962 38.4614L21.4474 37.8942L20.1715 31.5117L14.9233 29.9526Z" fill="#F5841F"/>
<path d="M27.8298 31.5124L27.6564 31.4777L26.3805 37.8602L26.4564 38.042L27.3077 38.6092L27.5139 38.6027L33.0452 34.3483L33.1145 34.2133L33.2561 29.9589L33.1876 29.8127L33.0292 29.7827L27.782 31.3427L27.6583 31.4777L27.8298 31.5124L27.8805 31.6821L32.8923 30.1924L32.7611 34.1177L27.3967 38.2436L26.7498 37.8124L28.0033 31.5471L27.8298 31.5124ZM14.9233 29.9524L14.7461 29.958L14.8877 34.2124L14.957 34.3474L20.4883 38.6017L20.6945 38.6083L21.5458 38.0411L21.6217 37.8592L20.3458 31.4767L20.222 31.3417L14.9748 29.7817L14.8164 29.8117L14.748 29.958L14.9233 29.9524L14.8727 30.1221L20.0177 31.6521L21.2495 37.8133L20.6036 38.2445L15.2392 34.1186L15.1005 29.9477L14.9233 29.9524Z" fill="#F5841F"/>
<path d="M27.9712 44.2763V42.5738L27.5456 42.1482H20.4543L20.0287 42.5738V44.2763L14.0728 41.4395L16.1999 43.141L20.3128 45.9779H27.5456L31.7999 43.141L33.7856 41.4395L27.9712 44.2763Z" fill="#C0AC9D"/>
<path d="M27.9712 44.2765H28.1484V42.574L28.0969 42.4493L27.6713 42.0237L27.5456 41.9712H20.4544L20.3288 42.0237L19.9031 42.4493L19.8516 42.574V43.9952L14.1487 41.2793L13.9219 41.3459L13.9612 41.5784L16.0894 43.2799L16.0988 43.2874L20.2116 46.1243L20.3128 46.1552H27.5456L27.6441 46.1252L31.8984 43.2893L31.9153 43.2762L33.9009 41.5746L33.9338 41.3421L33.7078 41.2802L27.8934 44.1171L27.9712 44.2765H28.1484H27.9712L28.0491 44.4359L32.6194 42.2055L31.6931 42.9996L27.4922 45.8009H20.3681L16.3059 42.9996L15.3797 42.259L19.9528 44.4359L20.1234 44.4255L20.2059 44.2765V42.648L20.5275 42.3255H27.4725L27.7941 42.648V44.2765L27.8775 44.4265L28.0491 44.4359L27.9712 44.2765Z" fill="#C0AC9D"/>
<path d="M27.5457 38.4612L26.6944 37.894H21.4472L20.596 38.4612L20.0288 42.574L20.4544 42.1484H27.5457L27.9713 42.574L27.5457 38.4612Z" fill="#161616"/>
<path d="M27.5457 38.4612L27.6441 38.314L26.7929 37.7468L26.6945 37.7168H21.4473L21.3488 37.7468L20.4976 38.314L20.4207 38.4368L19.8535 42.5496L19.9501 42.7334L20.1545 42.6996L20.5276 42.3255H27.4726L27.8457 42.6996L28.0473 42.7343L28.1476 42.5562L27.722 38.4434L27.6441 38.314L27.5457 38.4612L27.3695 38.4799L27.7435 42.0959L27.6713 42.0237L27.5457 41.9712H20.4545L20.3288 42.0237L20.2763 42.0762L20.761 38.5643L21.5007 38.0712H26.641L27.4473 38.6093L27.5457 38.4612L27.3695 38.4799L27.5457 38.4612Z" fill="#161616"/>
<path d="M46.2664 16.7629L47.8264 9.10443L45.5577 2.01318L27.5465 15.3444L34.4961 21.1588L44.2818 23.9957L46.4089 21.4429L45.4161 20.7341L46.8346 19.3157L45.7002 18.4644L47.1186 17.3301L46.2664 16.7629ZM0.17334 9.10443L1.73334 16.7629L0.740527 17.4716L2.30053 18.606L1.16615 19.4572L2.58459 20.8757L1.59178 21.5844L3.71896 24.1372L13.5046 21.3004L20.4543 15.486L2.58459 2.01318L0.17334 9.10443Z" fill="#763E1A"/>
<path d="M46.2666 16.7626L46.44 16.7983L48 9.13889L47.9953 9.04983L45.7266 1.95857L45.6122 1.8442L45.4519 1.87045L27.4406 15.2017L27.3684 15.3386L27.4322 15.4801L34.3819 21.2945L34.4466 21.3292L44.2322 24.1661L44.4178 24.1089L46.545 21.5561L46.5844 21.4201L46.5112 21.2983L45.6891 20.7105L46.9594 19.4401L47.0109 19.3023L46.9406 19.173L45.9891 18.4595L47.2284 17.4676L47.295 17.3214L47.2163 17.1817L46.365 16.6145L46.2666 16.7626L46.1681 16.9098L46.8178 17.343L45.5887 18.3264L45.5222 18.468L45.5934 18.6067L46.5647 19.3351L45.2906 20.6092L45.2391 20.7489L45.3131 20.8783L46.1503 21.4764L44.2191 23.793L34.5797 20.9992L27.8316 15.3526L45.4631 2.30264L47.6428 9.11451L46.0922 16.728L46.1672 16.9108L46.2666 16.7626ZM0.173438 9.1042L0 9.13889L1.5375 16.6848L0.638438 17.327L0.564375 17.4705L0.6375 17.6148L2.00344 18.6086L1.06125 19.3155L0.990937 19.4448L1.0425 19.5826L2.31281 20.853L1.49062 21.4408L1.4175 21.5626L1.45687 21.6986L3.58406 24.2514L3.76969 24.3086L13.5553 21.4717L13.62 21.437L20.5697 15.6226L20.6334 15.482L20.5631 15.3451L2.69156 1.87139L2.53312 1.84326L2.41781 1.95576L0.005625 9.04701L0 9.13889L0.173438 9.1042L0.34125 9.16139L2.67375 2.30264L20.1694 15.4942L13.4194 21.1417L3.78094 23.9355L1.84969 21.618L2.68687 21.0198L2.76094 20.8905L2.70937 20.7508L1.43531 19.4767L2.40656 18.7483L2.47781 18.6048L2.40469 18.4623L1.04344 17.4723L1.83562 16.9061L1.90594 16.7261L0.347813 9.06858L0.173438 9.1042Z" fill="#763E1A"/>
<path d="M44.1385 23.9957L34.3529 21.1588L37.3313 25.5557L32.9344 34.0654H38.7488H47.4001L44.1385 23.9957ZM13.6472 21.1588L3.86162 23.9957L0.599121 34.0654H9.25037H15.0647L10.6679 25.5557L13.6472 21.1588ZM26.8369 26.1229L27.5457 15.3445L30.3826 7.68604H17.7601L20.5969 15.3445L21.1641 26.1229L21.4482 29.527V37.8941H26.6954V29.527L26.8369 26.1229Z" fill="#F5841F"/>
<path d="M44.1383 23.9956L44.188 23.825L34.4023 20.9881L34.2092 21.0538L34.2055 21.2572L37.1248 25.5669L32.7767 33.9828L32.7823 34.1563L32.9342 34.2416H38.7486H47.3998L47.5433 34.1684L47.5686 34.01L44.307 23.9403L44.188 23.825L44.1383 23.9956L43.9695 24.05L47.1561 33.8872H38.7486H33.2248L37.4877 25.6363L37.4773 25.4553L34.7745 21.4653L44.0886 24.1653L44.1383 23.9956ZM13.647 21.1588L13.5974 20.9881L3.81174 23.825L3.69267 23.9403L0.430176 34.01L0.455488 34.1694L0.598926 34.2425H9.25017H15.0645L15.2155 34.1572L15.2211 33.9838L10.873 25.5678L13.7924 21.2581L13.7886 21.0547L13.5955 20.9891L13.647 21.1588L13.4999 21.0594L10.5214 25.4563L10.5111 25.6372L14.7739 33.8881H9.25017H0.842676L4.00017 24.14L13.6958 21.3294L13.647 21.1588ZM26.8367 26.1228L27.0139 26.1341L27.7217 15.3809L30.5492 7.74688L30.5286 7.58375L30.3833 7.50781H17.7599L17.6145 7.58375L17.5939 7.74688L20.4205 15.38L20.9867 26.1322V26.1378L21.2699 29.5344V37.8941L21.3214 38.0197L21.447 38.0713H26.6942L26.8199 38.0197L26.8714 37.8941V29.5306L27.013 26.1303L26.8367 26.1228L26.6595 26.1153L26.518 29.5194V29.5269V37.7169H21.6252V29.5269L21.6242 29.5119L21.3411 26.1106L20.7739 15.3341L20.7636 15.2816L18.0158 7.86219H30.1283L27.3805 15.2816L27.3702 15.3313L26.6614 26.1097V26.1144L26.8367 26.1228Z" fill="#F5841F"/>
</svg>
