<svg width="48" height="48" viewBox="0 0 48 48" fill="none" xmlns="http://www.w3.org/2000/svg">
<path fill-rule="evenodd" clip-rule="evenodd" d="M16.2359 14.5868H9V43.8464H16.2359V14.5868ZM38.9274 16.2599C38.9274 10.0512 33.8716 5 27.6568 5H9V11.2486H26.7697C29.5822 11.2486 31.912 13.4582 31.9635 16.1739C31.9892 17.5337 31.4788 18.817 30.5265 19.7875C29.5738 20.7582 28.3008 21.2932 26.9422 21.2932H20.0199C19.7742 21.2932 19.5741 21.4929 19.5741 21.7387V27.2922C19.5741 27.3867 19.6033 27.4769 19.6582 27.553L31.4028 43.8466H40L28.2281 27.5084C34.1565 27.2108 38.9274 22.2297 38.9274 16.2599Z" fill="black"/>
</svg>
