<svg width="48" height="48" viewBox="0 0 48 48" fill="none" xmlns="http://www.w3.org/2000/svg">
<g clip-path="url(#clip0_149_19041)">
<path d="M31.275 -0.000488281C36.075 -0.000488281 38.475 -0.000488281 41.1 0.824512C42.4935 1.33428 43.7591 2.14196 44.8083 3.1912C45.8575 4.24044 46.6652 5.50598 47.175 6.89951C48 9.52451 48 11.9245 48 16.732V31.2595C48 36.0745 48 38.4895 47.175 41.0845C46.6652 42.478 45.8575 43.7436 44.8083 44.7928C43.7591 45.8421 42.4935 46.6497 41.1 47.1595C38.475 47.9995 36.075 47.9995 31.275 47.9995H16.725C11.91 47.9995 9.495 47.9995 6.9 47.1745C5.50646 46.6647 4.24093 45.8571 3.19169 44.8078C2.14245 43.7586 1.33477 42.493 0.825 41.0995C0 38.4745 0 36.0745 0 31.267V16.7245C0 11.9095 0 9.49451 0.825 6.89951C1.33477 5.50598 2.14245 4.24044 3.19169 3.1912C4.24093 2.14196 5.50646 1.33428 6.9 0.824512C9.525 -0.000488281 11.925 -0.000488281 16.725 -0.000488281H31.275Z" fill="#00D632"/>
<path d="M31.8527 17.8498C32.2277 18.2248 32.8502 18.2248 33.2027 17.8498L35.0777 15.8998C35.4752 15.5248 35.4527 14.8498 35.0327 14.4448C33.5593 13.1615 31.8463 12.1827 29.9927 11.5648L30.5852 8.71482C30.7127 8.09232 30.2477 7.50732 29.6252 7.50732H25.9952C25.7683 7.50976 25.5491 7.59006 25.3743 7.73478C25.1996 7.8795 25.0798 8.07986 25.0352 8.30232L24.5102 10.8373C19.6802 11.0848 15.5852 13.5373 15.5852 18.5623C15.5852 22.9123 18.9677 24.7798 22.5452 26.0623C25.9277 27.3523 27.7202 27.8323 27.7202 29.6473C27.7202 31.5148 25.9352 32.6098 23.2952 32.6098C20.8952 32.6098 18.3752 31.8073 16.4252 29.8498C16.3346 29.7591 16.227 29.6871 16.1086 29.638C15.9903 29.5889 15.8633 29.5637 15.7352 29.5637C15.607 29.5637 15.4801 29.5889 15.3617 29.638C15.2433 29.6871 15.1357 29.7591 15.0452 29.8498L13.0202 31.8748C12.8296 32.066 12.7227 32.3249 12.7227 32.5948C12.7227 32.8647 12.8296 33.1236 13.0202 33.3148C14.5952 34.8673 16.5902 35.9923 18.8642 36.6148L18.3092 39.2923C18.1817 39.9148 18.6392 40.4923 19.2617 40.4998L22.8992 40.5298C23.1286 40.5308 23.3513 40.4521 23.5292 40.3071C23.707 40.1621 23.829 39.9598 23.8742 39.7348L24.3992 37.1923C30.2102 36.8023 33.7502 33.5998 33.7502 28.9273C33.7502 24.6223 30.2252 22.8073 25.9502 21.3298C23.5052 20.4223 21.3902 19.7998 21.3902 17.9323C21.3902 16.1173 23.3627 15.3973 25.3427 15.3973C27.8627 15.3973 30.2852 16.4398 31.8677 17.8648L31.8527 17.8498Z" fill="white"/>
</g>
<defs>
<clipPath id="clip0_149_19041">
<rect width="48" height="48" fill="white"/>
</clipPath>
</defs>
</svg>
